<?xml version="1.0" encoding="utf-8"?>
<!-- Generator: Adobe Illustrator 16.0.4, SVG Export Plug-In . SVG Version: 6.00 Build 0)  -->
<!DOCTYPE svg PUBLIC "-//W3C//DTD SVG 1.1 Tiny//EN" "http://www.w3.org/Graphics/SVG/1.1/DTD/svg11-tiny.dtd">
<svg version="1.1" baseProfile="tiny" id="Layer_1" xmlns="http://www.w3.org/2000/svg" xmlns:xlink="http://www.w3.org/1999/xlink"
	 x="0px" y="0px" width="360px" height="224px" viewBox="0 0 360 224" xml:space="preserve">
<g>
	<g>
		<g>
		</g>
		<g>
		</g>
	</g>
	<g>
	</g>
</g>
<g>
	<path fill="#FFFFFF" d="M317.174,216.818c-0.143-0.156-0.335-0.312-0.575-0.469c-0.24-0.155-0.546-0.316-0.917-0.482
		c-0.321,0.152-0.593,0.304-0.811,0.453c-0.219,0.147-0.396,0.3-0.532,0.455c-0.134,0.152-0.229,0.312-0.286,0.477
		c-0.057,0.164-0.086,0.339-0.086,0.525c0,0.205,0.045,0.387,0.136,0.546c0.093,0.158,0.218,0.292,0.376,0.402
		c0.159,0.111,0.35,0.194,0.569,0.249s0.458,0.081,0.713,0.081c0.248,0,0.482-0.024,0.702-0.073c0.22-0.052,0.411-0.129,0.571-0.232
		c0.161-0.104,0.287-0.234,0.381-0.392c0.093-0.159,0.14-0.349,0.14-0.568c0-0.171-0.027-0.336-0.083-0.497
		C317.416,217.133,317.317,216.974,317.174,216.818z"/>
	<path fill="#FFFFFF" d="M13.317,87.802c-0.068-0.235-0.156-0.448-0.262-0.641c-0.106-0.194-0.233-0.361-0.381-0.501
		c-0.145-0.141-0.313-0.251-0.503-0.33c-0.188-0.079-0.399-0.118-0.634-0.118c-0.312,0-0.596,0.076-0.851,0.229
		c-0.255,0.152-0.473,0.379-0.652,0.681c-0.179,0.302-0.317,0.675-0.413,1.12c-0.097,0.445-0.145,0.959-0.145,1.544
		c0,0.143,0,0.286,0,0.429s0.01,0.281,0.029,0.415L13.317,87.802z"/>
	<path fill="#FFFFFF" d="M9.993,92.459c0.104,0.201,0.231,0.375,0.378,0.521c0.149,0.144,0.318,0.257,0.507,0.339
		c0.191,0.08,0.408,0.12,0.65,0.12c0.312,0,0.595-0.076,0.849-0.227c0.254-0.153,0.469-0.379,0.647-0.678
		c0.18-0.301,0.317-0.673,0.412-1.118c0.096-0.445,0.144-0.96,0.144-1.547c0-0.156,0-0.311,0-0.466c0-0.154-0.012-0.305-0.035-0.452
		l-3.813,2.843C9.801,92.035,9.888,92.257,9.993,92.459z"/>
	<path fill="#FFFFFF" d="M9.993,53.921c0.104,0.202,0.231,0.375,0.378,0.521c0.149,0.144,0.318,0.257,0.507,0.339
		c0.191,0.08,0.408,0.12,0.65,0.12c0.312,0,0.595-0.076,0.849-0.227c0.254-0.153,0.469-0.379,0.647-0.678
		c0.18-0.301,0.317-0.673,0.412-1.118c0.096-0.445,0.144-0.96,0.144-1.547c0-0.156,0-0.311,0-0.466c0-0.154-0.012-0.305-0.035-0.452
		l-3.813,2.843C9.801,53.497,9.888,53.719,9.993,53.921z"/>
	<path fill="#FFFFFF" d="M13.317,49.264c-0.068-0.235-0.156-0.448-0.262-0.641c-0.106-0.194-0.233-0.361-0.381-0.501
		c-0.145-0.141-0.313-0.251-0.503-0.33c-0.188-0.079-0.399-0.118-0.634-0.118c-0.312,0-0.596,0.076-0.851,0.229
		c-0.255,0.152-0.473,0.379-0.652,0.681c-0.179,0.302-0.317,0.675-0.413,1.12c-0.097,0.445-0.145,0.959-0.145,1.544
		c0,0.143,0,0.286,0,0.429c0,0.143,0.01,0.281,0.029,0.416L13.317,49.264z"/>
	<polygon fill="#FFFFFF" points="167.849,216.956 167.849,212.183 164.71,216.956 	"/>
	<path fill="#FFFFFF" d="M204.348,205.403v1.42h16.179l-15.292-1.788C204.986,205.252,204.677,205.381,204.348,205.403z"/>
	<path fill="#FFFFFF" d="M13.317,10.725c-0.068-0.235-0.156-0.448-0.262-0.641c-0.106-0.194-0.233-0.361-0.381-0.501
		c-0.145-0.141-0.313-0.251-0.503-0.33c-0.188-0.079-0.399-0.118-0.634-0.118c-0.312,0-0.596,0.076-0.851,0.229
		c-0.255,0.152-0.473,0.379-0.652,0.681c-0.179,0.302-0.317,0.675-0.413,1.12c-0.097,0.445-0.145,0.959-0.145,1.544
		c0,0.143,0,0.286,0,0.429s0.01,0.281,0.029,0.416L13.317,10.725z"/>
	<path fill="#FFFFFF" d="M9.993,15.382c0.104,0.202,0.231,0.375,0.378,0.521c0.149,0.144,0.318,0.257,0.507,0.339
		c0.191,0.08,0.408,0.12,0.65,0.12c0.312,0,0.595-0.076,0.849-0.227c0.254-0.153,0.469-0.379,0.647-0.678
		c0.18-0.301,0.317-0.673,0.412-1.118c0.096-0.445,0.144-0.96,0.144-1.547c0-0.156,0-0.311,0-0.466c0-0.154-0.012-0.305-0.035-0.452
		l-3.813,2.843C9.801,14.958,9.888,15.18,9.993,15.382z"/>
	<path fill="#FFFFFF" d="M240.573,207.022h-1.127l0.987,0.115C240.479,207.098,240.523,207.057,240.573,207.022z"/>
	<path fill="#FFFFFF" d="M92.736,16.38c-0.398,0-0.779-0.158-1.061-0.439c-0.094-0.095-0.169-0.204-0.234-0.318L57.975,8.42
		l33.962,9.638c0.238-0.15,0.513-0.234,0.799-0.234c0.398,0,0.779,0.158,1.061,0.439c0.043,0.043,0.079,0.093,0.116,0.141
		l22.817,1.604l-23.07-3.955C93.396,16.26,93.074,16.38,92.736,16.38z"/>
	<polygon fill="#FFFFFF" points="4.62,48.028 1.481,52.801 4.62,52.801 	"/>
	<path fill="#FFFFFF" d="M315.883,214.723c0.519-0.244,0.902-0.497,1.153-0.761c0.253-0.264,0.379-0.571,0.379-0.921
		c0-0.409-0.143-0.713-0.429-0.913c-0.286-0.199-0.688-0.299-1.208-0.299c-0.514,0-0.912,0.099-1.198,0.297
		c-0.286,0.197-0.429,0.492-0.429,0.886c0,0.181,0.033,0.346,0.103,0.497c0.07,0.151,0.176,0.294,0.319,0.426
		c0.145,0.134,0.325,0.265,0.54,0.395C315.329,214.457,315.586,214.589,315.883,214.723z"/>
	<path fill="#FFFFFF" d="M0,224h360V0H0V224z M6.86,171.384h-5.6v-1.12h2.38v-6.535l-2.218,1.164L0.98,163.88l2.914-1.5H4.9v7.884
		h1.96V171.384z M6.86,132.845H0.98v-1.053l2.378-2.329c0.389-0.38,0.706-0.708,0.949-0.985c0.245-0.277,0.435-0.531,0.571-0.761
		c0.136-0.229,0.227-0.444,0.274-0.646c0.048-0.205,0.072-0.426,0.072-0.661c0-0.223-0.031-0.434-0.092-0.634
		c-0.06-0.203-0.153-0.381-0.28-0.532c-0.127-0.152-0.292-0.271-0.494-0.359c-0.202-0.089-0.443-0.133-0.725-0.133
		c-0.389,0-0.743,0.086-1.063,0.258c-0.319,0.171-0.612,0.393-0.879,0.665l-0.676-0.799c0.34-0.341,0.731-0.614,1.175-0.82
		c0.444-0.207,0.961-0.31,1.551-0.31c0.401,0,0.765,0.059,1.093,0.177c0.33,0.118,0.614,0.289,0.854,0.514
		c0.239,0.225,0.424,0.499,0.555,0.824c0.131,0.326,0.197,0.692,0.197,1.1c0,0.344-0.044,0.662-0.133,0.956
		c-0.088,0.293-0.221,0.585-0.399,0.877c-0.177,0.29-0.402,0.59-0.673,0.9c-0.27,0.312-0.602,0.653-0.996,1.028l-1.669,1.604h4.29
		V132.845z M5.337,91.07c-0.109-0.182-0.264-0.334-0.465-0.457c-0.2-0.123-0.439-0.214-0.718-0.276
		c-0.277-0.061-0.578-0.092-0.903-0.092H2.24v-1.006h1.024c0.267,0,0.509-0.035,0.728-0.105c0.22-0.07,0.409-0.17,0.565-0.302
		c0.156-0.131,0.275-0.293,0.358-0.485c0.083-0.193,0.125-0.411,0.125-0.654c0-0.476-0.144-0.822-0.433-1.039
		c-0.289-0.219-0.713-0.328-1.273-0.328c-0.299,0-0.607,0.029-0.923,0.089c-0.315,0.059-0.652,0.146-1.011,0.263v-1.02
		c0.152-0.052,0.314-0.1,0.488-0.142c0.173-0.044,0.346-0.079,0.518-0.107c0.172-0.029,0.344-0.051,0.514-0.066
		c0.172-0.016,0.336-0.024,0.493-0.024c0.468,0,0.879,0.051,1.233,0.151c0.355,0.101,0.651,0.246,0.888,0.435
		c0.238,0.19,0.417,0.421,0.538,0.692c0.123,0.27,0.184,0.574,0.184,0.912c0,0.506-0.121,0.93-0.363,1.273
		c-0.242,0.343-0.599,0.619-1.07,0.829c0.237,0.038,0.466,0.112,0.69,0.221c0.224,0.109,0.426,0.249,0.605,0.42
		c0.18,0.171,0.325,0.372,0.436,0.604c0.111,0.23,0.166,0.485,0.166,0.765c0,0.391-0.08,0.758-0.241,1.101
		c-0.159,0.342-0.398,0.642-0.717,0.899c-0.318,0.255-0.719,0.456-1.203,0.604c-0.484,0.147-1.047,0.22-1.689,0.22
		c-0.356,0-0.675,0-0.958,0c-0.283,0-0.547-0.029-0.792-0.089v-1.074c0.308,0.051,0.618,0.09,0.932,0.118
		c0.315,0.026,0.636,0.039,0.965,0.039c0.444,0,0.824-0.039,1.139-0.118c0.317-0.08,0.575-0.195,0.775-0.346
		c0.199-0.15,0.345-0.331,0.435-0.544c0.092-0.213,0.138-0.454,0.138-0.722C5.504,91.464,5.448,91.251,5.337,91.07z M95.747,219.923
		h-5.88v-1.053l2.378-2.329c0.389-0.38,0.706-0.708,0.949-0.985c0.245-0.277,0.436-0.531,0.571-0.761
		c0.136-0.229,0.227-0.445,0.274-0.646c0.048-0.205,0.072-0.426,0.072-0.661c0-0.223-0.031-0.434-0.092-0.635
		c-0.06-0.202-0.153-0.38-0.28-0.531c-0.127-0.152-0.292-0.271-0.494-0.359c-0.202-0.089-0.443-0.133-0.725-0.133
		c-0.389,0-0.743,0.086-1.063,0.258c-0.319,0.171-0.612,0.392-0.879,0.665l-0.676-0.799c0.34-0.341,0.731-0.614,1.175-0.82
		c0.444-0.207,0.961-0.31,1.551-0.31c0.401,0,0.765,0.059,1.093,0.177c0.33,0.118,0.614,0.289,0.854,0.514
		c0.239,0.225,0.424,0.499,0.555,0.824c0.131,0.326,0.197,0.692,0.197,1.099c0,0.345-0.044,0.662-0.133,0.956
		c-0.088,0.293-0.221,0.585-0.399,0.877c-0.177,0.29-0.402,0.591-0.673,0.901c-0.27,0.312-0.602,0.653-0.996,1.028l-1.669,1.604
		h4.29V219.923z M170.509,217.963h-1.444v1.979h-1.216v-1.979h-4.34v-1.007l3.843-5.923h1.713v5.923h1.444V217.963z
		 M244.347,218.267c-0.146,0.358-0.357,0.672-0.632,0.938c-0.272,0.267-0.602,0.477-0.987,0.63
		c-0.385,0.152-0.812,0.227-1.281,0.227c-0.493,0-0.929-0.077-1.307-0.235c-0.377-0.159-0.693-0.402-0.948-0.729
		c-0.256-0.326-0.449-0.739-0.582-1.237c-0.134-0.501-0.199-1.092-0.199-1.772c0-0.46,0.03-0.904,0.09-1.335
		c0.059-0.43,0.157-0.834,0.293-1.214c0.137-0.38,0.319-0.729,0.547-1.045c0.229-0.317,0.512-0.588,0.852-0.814
		c0.339-0.227,0.738-0.403,1.197-0.528c0.461-0.126,0.994-0.188,1.6-0.188h0.882v1.006h-0.933c-0.538,0-1.008,0.066-1.403,0.199
		c-0.396,0.131-0.728,0.317-0.996,0.558c-0.266,0.24-0.472,0.53-0.616,0.87c-0.143,0.339-0.232,0.719-0.269,1.139l-0.027,0.289
		c0.29-0.178,0.624-0.318,1-0.426s0.784-0.162,1.223-0.162c0.453,0,0.851,0.067,1.19,0.199s0.622,0.315,0.848,0.549
		c0.229,0.235,0.399,0.518,0.513,0.848c0.113,0.328,0.171,0.688,0.171,1.078C244.57,217.521,244.496,217.906,244.347,218.267z
		 M318.541,218.702c-0.153,0.294-0.367,0.542-0.643,0.744c-0.275,0.201-0.602,0.354-0.976,0.459
		c-0.375,0.104-0.782,0.156-1.221,0.156c-0.483,0-0.908-0.054-1.275-0.163c-0.368-0.109-0.676-0.263-0.926-0.459
		c-0.248-0.197-0.435-0.431-0.562-0.7c-0.125-0.271-0.188-0.567-0.188-0.893c0-0.549,0.144-1.021,0.433-1.418
		c0.29-0.397,0.767-0.76,1.427-1.087c-0.609-0.298-1.041-0.629-1.295-0.995c-0.253-0.365-0.381-0.786-0.381-1.26
		c0-0.291,0.06-0.571,0.178-0.843c0.12-0.271,0.299-0.512,0.538-0.725c0.24-0.213,0.541-0.382,0.9-0.507
		c0.362-0.127,0.786-0.189,1.273-0.189c0.463,0,0.868,0.049,1.217,0.147c0.348,0.099,0.641,0.239,0.879,0.426
		c0.238,0.183,0.416,0.406,0.534,0.669s0.177,0.554,0.177,0.875c0,0.524-0.143,0.972-0.429,1.341
		c-0.284,0.367-0.698,0.688-1.24,0.965c0.265,0.134,0.507,0.281,0.726,0.442c0.22,0.157,0.409,0.337,0.571,0.534
		s0.287,0.417,0.376,0.659c0.091,0.242,0.137,0.511,0.137,0.808C318.771,218.07,318.694,218.407,318.541,218.702z M18.295,0.178h0.2
		v6.243h2.304v0.2h-2.304v7.508h3.907v0.2h-3.907v7.508h2.304v0.2h-2.304v7.507h2.304v0.2h-2.304v7.508h2.304v0.2h-2.304v7.508
		h2.304v0.2h-2.304v7.508h3.907v0.2h-3.907v7.507h2.304v0.2h-2.304v7.508h2.304v0.2h-2.304v7.508h2.304v0.2h-2.304v7.508h2.304v0.2
		h-2.304v7.506h3.907v0.2h-3.907v7.509h2.304v0.2h-2.304v7.508h2.304v0.2h-2.304v7.508h2.304v0.199h-2.304v7.508h2.304v0.199h-2.304
		v7.509h3.907v0.199h-3.907v7.509h2.304v0.199h-2.304v7.509h2.304v0.199h-2.304v7.509h2.304v0.199h-2.304v7.508h2.304v0.199h-2.304
		v7.509h3.907v0.199h-3.907v7.508h2.304v0.199h-2.304v7.51h2.304v0.199h-2.304v7.508h2.304v0.199h-2.304v7.509h2.304v0.199h-2.304
		v3.602v3.907h3.907H36.88v-2.305h0.2v2.305h18.385v-2.305h0.2v2.305h18.386v-2.305h0.2v2.305h18.385v-3.907h0.2v3.907h18.385
		v-2.305h0.2v2.305h18.386v-2.305h0.2v2.305h18.385v-2.305h0.2v2.305h18.385v-3.907h0.2v3.907h18.386v-2.305h0.199v2.305h18.386
		v-1.42c-0.361-0.024-0.704-0.172-0.961-0.43c-0.281-0.282-0.439-0.664-0.439-1.061c0-0.159,0.031-0.312,0.08-0.461l-36.061-62.537
		c-0.282-0.06-0.544-0.199-0.75-0.405c-0.078-0.077-0.143-0.163-0.201-0.254l-34.977-5.75c-0.265,0.212-0.591,0.334-0.932,0.334
		c-0.398,0-0.78-0.157-1.061-0.438c-0.089-0.089-0.161-0.19-0.224-0.297l-34.991-6.917c-0.258,0.192-0.569,0.303-0.896,0.303
		c-0.398,0-0.779-0.157-1.061-0.438c-0.057-0.058-0.105-0.121-0.152-0.186l-34.955-3.62c-0.275,0.247-0.63,0.391-1.003,0.391
		c-0.398,0-0.779-0.158-1.06-0.438c-0.282-0.281-0.44-0.663-0.44-1.062c0-0.396,0.158-0.778,0.44-1.06
		c0.281-0.283,0.662-0.44,1.06-0.44s0.78,0.157,1.061,0.44c0.055,0.056,0.102,0.117,0.147,0.18l34.962,3.624
		c0.275-0.247,0.628-0.391,1-0.391c0.398,0,0.779,0.159,1.061,0.44c0.089,0.089,0.161,0.191,0.225,0.298l34.991,6.915
		c0.257-0.192,0.569-0.304,0.895-0.304c0.397,0,0.779,0.159,1.06,0.44c0.077,0.077,0.143,0.163,0.201,0.254l34.978,5.748
		c0.264-0.21,0.59-0.333,0.932-0.333c0.398,0,0.78,0.158,1.061,0.438c0.281,0.282,0.439,0.662,0.439,1.062
		c0,0.158-0.032,0.312-0.08,0.46l36.06,62.537c0.282,0.06,0.545,0.198,0.752,0.404c0.061,0.062,0.113,0.129,0.162,0.199
		l17.263,2.019v-0.55h0.199v0.573l14.811,1.731h3.269c0.101-0.028,0.203-0.047,0.308-0.054v-3.854h0.199v3.854
		c0.104,0.007,0.207,0.025,0.308,0.054h18.078v-2.305h0.199v2.305h18.386v-2.305h0.199v2.305h18.387v-2.305h0.199v2.305h17.102
		L277.863,48.384c-0.121-0.067-0.235-0.145-0.334-0.244c-0.104-0.103-0.184-0.222-0.252-0.348l-35.009-8.429
		c-0.248,0.172-0.544,0.267-0.85,0.267c-0.397,0-0.78-0.158-1.061-0.44c-0.092-0.092-0.165-0.197-0.229-0.307l-34.996-7.264
		c-0.256,0.188-0.562,0.295-0.885,0.295c-0.398,0-0.78-0.158-1.061-0.439c-0.047-0.047-0.085-0.101-0.125-0.153l-34.954-2.806
		c-0.278,0.264-0.646,0.414-1.032,0.414c-0.398,0-0.779-0.157-1.06-0.438c-0.073-0.073-0.137-0.153-0.193-0.239l-34.967-5.167
		c-0.268,0.221-0.601,0.349-0.949,0.349c-0.398,0-0.78-0.158-1.061-0.44c-0.044-0.044-0.08-0.095-0.118-0.144l-34.929-2.472
		c-0.001,0.001-0.001,0.002-0.002,0.003c-0.282,0.282-0.663,0.44-1.061,0.44s-0.779-0.158-1.061-0.44
		c-0.117-0.117-0.207-0.254-0.279-0.4l-35.032-9.941c-0.238,0.15-0.514,0.234-0.799,0.234c-0.398,0-0.779-0.158-1.06-0.44
		c-0.282-0.281-0.44-0.663-0.44-1.06c0-0.349,0.127-0.681,0.348-0.948c-0.22-0.267-0.348-0.6-0.348-0.949
		c0-0.397,0.158-0.779,0.44-1.06c0.281-0.282,0.662-0.44,1.06-0.44s0.78,0.158,1.061,0.44c0.094,0.094,0.169,0.203,0.234,0.316
		l34.999,7.534c0.255-0.184,0.559-0.289,0.877-0.289c0.398,0,0.779,0.158,1.061,0.439c0.08,0.081,0.147,0.17,0.207,0.265
		l34.98,5.998c0.263-0.207,0.585-0.327,0.924-0.327c0.397,0,0.779,0.158,1.06,0.44c0.066,0.066,0.125,0.139,0.177,0.215
		l34.965,4.604c0.27-0.23,0.611-0.364,0.969-0.364c0.398,0,0.78,0.158,1.061,0.439c0.055,0.055,0.102,0.117,0.147,0.18l34.958,3.556
		c0.274-0.25,0.631-0.393,1.005-0.393c0.398,0,0.779,0.158,1.061,0.439c0.066,0.066,0.125,0.14,0.178,0.216l34.948,4.615
		c0.272-0.239,0.62-0.376,0.984-0.376c0.397,0,0.779,0.158,1.06,0.439c0.128,0.128,0.228,0.279,0.301,0.44l35.051,11.019
		c0.229-0.135,0.488-0.213,0.759-0.213c0.398,0,0.78,0.158,1.062,0.439c0.084,0.084,0.152,0.179,0.214,0.279l34.985,6.439
		c0.261-0.2,0.578-0.316,0.91-0.316c0.398,0,0.779,0.158,1.061,0.439c0.079,0.079,0.146,0.168,0.205,0.261l34.979,5.926
		c0.263-0.208,0.587-0.329,0.926-0.329c0.397,0,0.779,0.158,1.061,0.439c0.281,0.281,0.439,0.663,0.439,1.061
		s-0.158,0.778-0.439,1.06c-0.281,0.282-0.663,0.44-1.061,0.44s-0.779-0.158-1.061-0.44c-0.079-0.079-0.146-0.167-0.204-0.26
		l-34.98-5.926c-0.264,0.208-0.586,0.329-0.926,0.329c-0.397,0-0.779-0.158-1.061-0.44c-0.084-0.084-0.153-0.179-0.214-0.278
		l-34.569-6.369c-0.031,0.061-0.062,0.121-0.103,0.178l35.847,155.548v-0.572h0.199v1.437l0.569,2.471h17.816v-2.305h0.199v2.305
		h18.387v-2.305h0.199v2.305h6.87v0.199h-43.426l0.012,0.049c0.12,0.067,0.234,0.145,0.334,0.244
		c0.021,0.021,0.037,0.048,0.058,0.07l34.951,0.318c0.015-0.016,0.025-0.034,0.041-0.05c0.281-0.281,0.663-0.439,1.061-0.439
		s0.779,0.158,1.061,0.439s0.439,0.662,0.439,1.061s-0.158,0.779-0.439,1.062c-0.281,0.279-0.663,0.438-1.061,0.438
		s-0.779-0.159-1.061-0.438c-0.022-0.022-0.038-0.049-0.059-0.072l-34.951-0.317c-0.014,0.016-0.024,0.033-0.04,0.049
		c-0.281,0.282-0.662,0.44-1.061,0.44c-0.397,0-0.779-0.158-1.061-0.44c-0.281-0.28-0.439-0.661-0.439-1.06
		c0-0.312,0.099-0.61,0.275-0.86l-0.113-0.493h-72.158c0.076,0.052,0.148,0.11,0.215,0.177c0.024,0.024,0.042,0.053,0.064,0.078
		l34.951,0.551c0.013-0.014,0.021-0.029,0.035-0.043c0.28-0.281,0.662-0.439,1.06-0.439c0.398,0,0.78,0.158,1.062,0.439
		c0.28,0.282,0.438,0.663,0.438,1.061c0,0.398-0.158,0.779-0.438,1.062c-0.281,0.281-0.663,0.438-1.062,0.438
		c-0.397,0-0.779-0.157-1.06-0.438c-0.024-0.024-0.043-0.054-0.065-0.079l-34.946-0.556c-0.014,0.015-0.024,0.033-0.039,0.048
		c-0.28,0.281-0.662,0.439-1.06,0.439s-0.78-0.158-1.061-0.439c-0.061-0.061-0.112-0.128-0.161-0.196l-17.968-2.102H22.402h-3.907
		v7.509h2.304v0.199h-2.304v0.816h-0.2v-8.524h-6.87v-0.199h6.87v-3.907V0.178z M8.47,10.867c0.14-0.57,0.349-1.058,0.626-1.463
		c0.278-0.407,0.626-0.721,1.043-0.943s0.904-0.332,1.459-0.332c0.481,0,0.919,0.09,1.313,0.271c0.393,0.181,0.73,0.461,1.01,0.84
		c0.282,0.379,0.498,0.859,0.648,1.441c0.151,0.582,0.227,1.273,0.227,2.072c0,0.687-0.069,1.314-0.208,1.881
		c-0.137,0.566-0.345,1.052-0.625,1.459c-0.28,0.407-0.628,0.721-1.044,0.943c-0.414,0.222-0.901,0.333-1.461,0.333
		c-0.481,0-0.919-0.091-1.312-0.272c-0.394-0.181-0.732-0.459-1.013-0.835c-0.28-0.377-0.496-0.856-0.648-1.438
		c-0.15-0.583-0.225-1.273-0.225-2.071C8.26,12.065,8.33,11.436,8.47,10.867z M8.47,49.406c0.14-0.57,0.349-1.058,0.626-1.463
		c0.278-0.407,0.626-0.721,1.043-0.943s0.904-0.332,1.459-0.332c0.481,0,0.919,0.09,1.313,0.271c0.393,0.181,0.73,0.461,1.01,0.84
		c0.282,0.379,0.498,0.859,0.648,1.441c0.151,0.582,0.227,1.273,0.227,2.072c0,0.687-0.069,1.314-0.208,1.881
		c-0.137,0.566-0.345,1.052-0.625,1.459c-0.28,0.407-0.628,0.721-1.044,0.943c-0.414,0.222-0.901,0.333-1.461,0.333
		c-0.481,0-0.919-0.091-1.312-0.272c-0.394-0.181-0.732-0.459-1.013-0.835c-0.28-0.377-0.496-0.856-0.648-1.438
		C8.335,52.78,8.26,52.09,8.26,51.292C8.26,50.604,8.33,49.975,8.47,49.406z M8.47,87.944c0.14-0.57,0.349-1.058,0.626-1.463
		c0.278-0.407,0.626-0.721,1.043-0.943c0.417-0.222,0.904-0.332,1.459-0.332c0.481,0,0.919,0.09,1.313,0.271
		c0.393,0.181,0.73,0.461,1.01,0.84c0.282,0.379,0.498,0.859,0.648,1.441c0.151,0.582,0.227,1.273,0.227,2.072
		c0,0.687-0.069,1.314-0.208,1.881c-0.137,0.566-0.345,1.052-0.625,1.459c-0.28,0.407-0.628,0.721-1.044,0.943
		c-0.414,0.222-0.901,0.332-1.461,0.332c-0.481,0-0.919-0.09-1.312-0.271c-0.394-0.181-0.732-0.459-1.013-0.835
		c-0.28-0.377-0.496-0.856-0.648-1.438c-0.15-0.583-0.225-1.273-0.225-2.071C8.26,89.142,8.33,88.513,8.47,87.944z M8.47,126.483
		c0.14-0.57,0.349-1.059,0.626-1.464c0.278-0.406,0.626-0.721,1.043-0.942s0.904-0.332,1.459-0.332c0.481,0,0.919,0.09,1.313,0.271
		c0.393,0.182,0.73,0.461,1.01,0.841c0.282,0.379,0.498,0.858,0.648,1.44c0.151,0.582,0.227,1.273,0.227,2.072
		c0,0.687-0.069,1.313-0.208,1.881c-0.137,0.566-0.345,1.052-0.625,1.459c-0.28,0.407-0.628,0.721-1.044,0.943
		c-0.414,0.222-0.901,0.333-1.461,0.333c-0.481,0-0.919-0.092-1.312-0.272c-0.394-0.181-0.732-0.459-1.013-0.835
		c-0.28-0.377-0.496-0.855-0.648-1.438c-0.15-0.583-0.225-1.273-0.225-2.071C8.26,127.681,8.33,127.052,8.47,126.483z M8.47,165.022
		c0.14-0.57,0.349-1.059,0.626-1.464c0.278-0.406,0.626-0.721,1.043-0.942c0.417-0.223,0.904-0.332,1.459-0.332
		c0.481,0,0.919,0.09,1.313,0.271c0.393,0.182,0.73,0.461,1.01,0.84c0.282,0.38,0.498,0.859,0.648,1.441
		c0.151,0.582,0.227,1.273,0.227,2.072c0,0.687-0.069,1.313-0.208,1.881c-0.137,0.566-0.345,1.052-0.625,1.459
		c-0.28,0.407-0.628,0.721-1.044,0.943c-0.414,0.222-0.901,0.333-1.461,0.333c-0.481,0-0.919-0.092-1.312-0.272
		c-0.394-0.181-0.732-0.459-1.013-0.835c-0.28-0.377-0.496-0.856-0.648-1.438c-0.15-0.582-0.225-1.272-0.225-2.07
		C8.26,166.22,8.33,165.591,8.47,165.022z M1.26,16.192c0.235,0.058,0.512,0.101,0.831,0.129c0.321,0.027,0.646,0.041,0.974,0.041
		c0.369,0,0.7-0.043,0.995-0.129c0.296-0.087,0.548-0.213,0.755-0.376c0.208-0.163,0.368-0.36,0.479-0.591
		c0.111-0.23,0.166-0.49,0.166-0.778c0-0.558-0.203-0.963-0.608-1.217c-0.406-0.255-0.988-0.382-1.748-0.382H1.4V8.382h4.81v1.007
		H2.52v2.493h0.792c0.436,0,0.854,0.039,1.253,0.116c0.4,0.076,0.756,0.211,1.068,0.405c0.313,0.192,0.566,0.451,0.757,0.776
		c0.191,0.324,0.286,0.731,0.286,1.221c0,0.44-0.095,0.842-0.286,1.205c-0.19,0.364-0.452,0.676-0.786,0.937
		c-0.332,0.261-0.725,0.464-1.179,0.61c-0.452,0.144-0.94,0.217-1.465,0.217c-0.132,0-0.273,0-0.425,0c-0.151,0-0.302,0-0.452,0
		c-0.151,0-0.297-0.01-0.44-0.029c-0.142-0.019-0.269-0.041-0.383-0.068V16.192z M0.28,52.801l3.843-5.924h1.713v5.924H7.28v1.007
		H5.836v1.979H4.62v-1.979H0.28V52.801z"/>
	<path fill="#FFFFFF" d="M242.94,215.917c-0.144-0.15-0.324-0.267-0.544-0.35s-0.48-0.124-0.784-0.124
		c-0.177,0-0.355,0.016-0.535,0.048c-0.18,0.03-0.356,0.073-0.528,0.129c-0.172,0.055-0.337,0.119-0.494,0.189
		c-0.157,0.071-0.3,0.148-0.429,0.23c0,0.576,0.041,1.057,0.123,1.443c0.083,0.387,0.206,0.696,0.369,0.93
		c0.165,0.231,0.367,0.397,0.605,0.497c0.241,0.097,0.519,0.146,0.832,0.146c0.263,0,0.503-0.041,0.723-0.124
		c0.22-0.084,0.409-0.205,0.567-0.365c0.159-0.162,0.283-0.357,0.372-0.586c0.091-0.23,0.136-0.493,0.136-0.787
		c0-0.27-0.033-0.512-0.101-0.728C243.188,216.249,243.083,216.066,242.94,215.917z"/>
	<path fill="#FFFFFF" d="M13.317,164.88c-0.068-0.235-0.156-0.448-0.262-0.641c-0.106-0.194-0.233-0.361-0.381-0.501
		c-0.145-0.142-0.313-0.251-0.503-0.33c-0.188-0.079-0.399-0.118-0.634-0.118c-0.312,0-0.596,0.076-0.851,0.229
		s-0.473,0.38-0.652,0.682c-0.179,0.302-0.317,0.675-0.413,1.12c-0.097,0.444-0.145,0.959-0.145,1.544c0,0.143,0,0.286,0,0.429
		s0.01,0.281,0.029,0.416L13.317,164.88z"/>
	<path fill="#FFFFFF" d="M241.419,36.324c-0.397,0-0.78-0.158-1.061-0.439c-0.066-0.066-0.124-0.139-0.176-0.215l-15.585-2.052
		l15.936,3.308c0.256-0.188,0.564-0.295,0.886-0.295c0.397,0,0.779,0.157,1.06,0.439c0.104,0.103,0.184,0.223,0.252,0.349
		l15.397,3.707l-15.95-5.014C241.949,36.246,241.689,36.324,241.419,36.324z"/>
	<path fill="#FFFFFF" d="M9.993,130.998c0.104,0.202,0.231,0.375,0.378,0.521c0.149,0.145,0.318,0.258,0.507,0.34
		c0.191,0.08,0.408,0.119,0.65,0.119c0.312,0,0.595-0.075,0.849-0.227c0.254-0.153,0.469-0.379,0.647-0.678
		c0.18-0.301,0.317-0.673,0.412-1.118c0.096-0.445,0.144-0.96,0.144-1.547c0-0.156,0-0.312,0-0.466s-0.012-0.306-0.035-0.452
		l-3.813,2.843C9.801,130.574,9.888,130.796,9.993,130.998z"/>
	<path fill="#FFFFFF" d="M9.993,169.537c0.104,0.202,0.231,0.375,0.378,0.521c0.149,0.145,0.318,0.258,0.507,0.34
		c0.191,0.079,0.408,0.119,0.65,0.119c0.312,0,0.595-0.075,0.849-0.227c0.254-0.153,0.469-0.379,0.647-0.678
		c0.18-0.302,0.317-0.673,0.412-1.118c0.096-0.445,0.144-0.96,0.144-1.547c0-0.156,0-0.312,0-0.466s-0.012-0.306-0.035-0.452
		l-3.813,2.843C9.801,169.113,9.888,169.335,9.993,169.537z"/>
	<path fill="#FFFFFF" d="M13.317,126.341c-0.068-0.234-0.156-0.448-0.262-0.641c-0.106-0.194-0.233-0.361-0.381-0.501
		c-0.145-0.142-0.313-0.251-0.503-0.33c-0.188-0.079-0.399-0.118-0.634-0.118c-0.312,0-0.596,0.076-0.851,0.229
		c-0.255,0.151-0.473,0.379-0.652,0.681c-0.179,0.302-0.317,0.675-0.413,1.12c-0.097,0.444-0.145,0.959-0.145,1.544
		c0,0.143,0,0.286,0,0.429c0,0.144,0.01,0.281,0.029,0.416L13.317,126.341z"/>
	<path fill="#FF0000" d="M128.846,132.28c0.051-0.052,0.109-0.094,0.167-0.137l-34.991-6.915c0.136,0.229,0.214,0.491,0.214,0.762
		c0,0.398-0.158,0.779-0.439,1.062c-0.051,0.051-0.108,0.093-0.166,0.136l34.991,6.917c-0.136-0.23-0.215-0.491-0.215-0.765
		C128.407,132.943,128.565,132.561,128.846,132.28z"/>
	<path fill="#FF0000" d="M205.309,204.974c-0.023,0.023-0.051,0.04-0.074,0.062l15.292,1.788h2.207v-1.755l-17.263-2.019
		c0.178,0.252,0.277,0.552,0.277,0.863C205.748,204.31,205.59,204.691,205.309,204.974z"/>
	<path fill="#FF0000" d="M91.675,124.931c0.019-0.019,0.042-0.032,0.061-0.05l-34.962-3.624c0.186,0.255,0.292,0.562,0.292,0.88
		c0,0.398-0.158,0.78-0.439,1.062c-0.018,0.018-0.04,0.03-0.058,0.048l34.955,3.62c-0.183-0.254-0.287-0.559-0.287-0.876
		C91.236,125.594,91.394,125.212,91.675,124.931z"/>
	<path fill="#FF0000" d="M242.518,209.272l34.946,0.556c-0.237-0.273-0.375-0.618-0.375-0.982c0-0.379,0.147-0.74,0.405-1.018
		l-34.951-0.551c0.237,0.273,0.376,0.619,0.376,0.982C242.919,208.637,242.772,208.996,242.518,209.272z"/>
	<polygon fill="#FF0000" points="237.743,206.823 222.933,205.092 222.933,206.823 	"/>
	<path fill="#FF0000" d="M166.017,138.388c0.04-0.039,0.085-0.07,0.128-0.105l-34.978-5.748c0.153,0.239,0.239,0.519,0.239,0.806
		c0,0.399-0.159,0.78-0.44,1.062c-0.039,0.039-0.084,0.07-0.127,0.104l34.977,5.75c-0.153-0.24-0.239-0.519-0.239-0.807
		C165.577,139.05,165.735,138.67,166.017,138.388z"/>
	<path fill="#FF0000" d="M240.358,207.199c0.022-0.023,0.051-0.04,0.075-0.062l-0.987-0.115h-17.217l17.968,2.102
		c-0.178-0.252-0.278-0.552-0.278-0.864C239.919,207.862,240.077,207.481,240.358,207.199z"/>
	<path fill="#FF0000" d="M204.248,202.413c0.104,0,0.208,0.013,0.309,0.033l-36.06-62.537c-0.072,0.224-0.19,0.431-0.359,0.601
		c-0.281,0.28-0.663,0.439-1.061,0.439c-0.105,0-0.208-0.013-0.31-0.034l36.061,62.537c0.072-0.224,0.19-0.432,0.359-0.602
		C203.468,202.571,203.85,202.413,204.248,202.413z"/>
	<path fill="#00FF00" d="M116.73,20.008l-22.817-1.604c0.205,0.262,0.323,0.583,0.323,0.92c0,0.396-0.157,0.776-0.437,1.057
		l34.929,2.472c-0.188-0.242-0.298-0.534-0.313-0.841L116.73,20.008z"/>
	<path fill="#00FF00" d="M91.675,18.263c0.08-0.08,0.169-0.146,0.262-0.205L57.975,8.42L56.95,8.2
		c0.075,0.181,0.115,0.376,0.115,0.576c0,0.397-0.158,0.779-0.439,1.06c-0.08,0.08-0.168,0.147-0.262,0.206l35.032,9.941
		c-0.101-0.204-0.16-0.428-0.16-0.659C91.236,18.925,91.394,18.544,91.675,18.263z"/>
	<path fill="#00FF00" d="M316.486,207.071l-0.012-0.049h-0.08C316.426,207.037,316.455,207.055,316.486,207.071z"/>
	<path fill="#00FF00" d="M316.86,209.387l34.951,0.317c-0.241-0.273-0.381-0.622-0.381-0.989c0-0.377,0.146-0.734,0.398-1.011
		l-34.951-0.318c0.242,0.272,0.382,0.622,0.382,0.99C317.26,208.753,317.114,209.111,316.86,209.387z"/>
	<path fill="#00FF00" d="M315.126,207.022h-0.704l0.113,0.493c0.049-0.07,0.103-0.139,0.164-0.2
		C314.823,207.191,314.97,207.096,315.126,207.022z"/>
	<polygon fill="#00FF00" points="316.429,206.823 315.859,204.353 315.859,206.823 	"/>
	<path fill="#00FF00" d="M258.128,41.125l-15.397-3.707c0.118,0.218,0.188,0.46,0.188,0.712c0,0.397-0.159,0.779-0.44,1.06
		c-0.064,0.065-0.136,0.122-0.21,0.173l35.009,8.429c-0.117-0.216-0.187-0.457-0.188-0.707L258.128,41.125z"/>
	<path fill="#00FF00" d="M240.358,37.07c0.054-0.054,0.114-0.099,0.175-0.144l-15.936-3.308l-19.029-2.506
		c-0.07,0.131-0.152,0.256-0.26,0.364c-0.054,0.054-0.115,0.099-0.176,0.144l34.996,7.264c-0.133-0.228-0.21-0.485-0.21-0.753
		C239.919,37.733,240.077,37.351,240.358,37.07z"/>
	<path fill="#00FF00" d="M315.66,203.488L279.813,47.94c-0.049,0.07-0.102,0.138-0.163,0.2c-0.281,0.281-0.663,0.439-1.062,0.439
		c-0.258,0-0.505-0.072-0.726-0.195l36.513,158.439h1.284V203.488z"/>
	<path fill="#00FF00" d="M165.657,26.97l-34.346-4.523c-0.074,0.204-0.188,0.394-0.345,0.55c-0.034,0.034-0.074,0.061-0.11,0.091
		l34.967,5.167c-0.159-0.243-0.247-0.528-0.247-0.823C165.577,27.272,165.609,27.119,165.657,26.97z"/>
	<path fill="#00FF00" d="M168.564,27.306c0.004,0.042,0.013,0.083,0.013,0.125c0,0.399-0.158,0.781-0.439,1.062
		c-0.009,0.009-0.02,0.015-0.029,0.024l34.954,2.806c-0.123-0.16-0.211-0.341-0.262-0.535L168.564,27.306z"/>
	<path fill="#0000FF" d="M56.718,7.828c0.094,0.114,0.175,0.237,0.232,0.372l1.024,0.221l33.466,7.203
		c-0.129-0.225-0.205-0.479-0.205-0.743c0-0.398,0.158-0.779,0.439-1.061c0.057-0.057,0.12-0.104,0.184-0.15L56.86,6.135
		c0.129,0.226,0.205,0.48,0.205,0.744C57.065,7.228,56.938,7.561,56.718,7.828z"/>
	<path fill="#0000FF" d="M93.797,15.941c-0.042,0.042-0.091,0.076-0.137,0.112l23.07,3.955l11.685,2.003
		c-0.001-0.025-0.007-0.049-0.007-0.075c0-0.117,0.018-0.23,0.043-0.342c-0.026-0.112-0.043-0.225-0.043-0.341
		c0-0.397,0.158-0.779,0.439-1.06c0.042-0.042,0.091-0.076,0.137-0.113l-34.98-5.998c0.149,0.237,0.232,0.512,0.232,0.796
		C94.236,15.278,94.078,15.659,93.797,15.941z"/>
	<path fill="#0000FF" d="M168.427,26.791c0.077,0.162,0.123,0.335,0.138,0.515l34.236,3.482c-0.031-0.121-0.053-0.245-0.053-0.373
		c0-0.082,0.011-0.163,0.024-0.243c-0.014-0.08-0.024-0.16-0.024-0.242c0-0.399,0.158-0.78,0.439-1.061
		c0.018-0.018,0.038-0.03,0.056-0.046l-34.958-3.556c0.186,0.255,0.292,0.562,0.292,0.881
		C168.577,26.374,168.521,26.591,168.427,26.791z"/>
	<path fill="#0000FF" d="M242.479,35.885c-0.09,0.09-0.192,0.163-0.301,0.226l15.95,5.014l18.962,5.961
		c0-0.002-0.001-0.004-0.001-0.007c0-0.097,0.01-0.192,0.028-0.285c-0.019-0.093-0.028-0.188-0.028-0.285
		c0-0.398,0.158-0.779,0.44-1.061c0.09-0.09,0.192-0.163,0.301-0.226l-35.051-11.019c0.089,0.193,0.14,0.403,0.14,0.621
		C242.919,35.222,242.76,35.603,242.479,35.885z"/>
	<path fill="#0000FF" d="M280.061,46.794c0.019,0.093,0.028,0.188,0.028,0.285c0,0.241-0.064,0.473-0.173,0.684l34.569,6.369
		c-0.144-0.234-0.226-0.503-0.226-0.782c0-0.398,0.158-0.78,0.439-1.061c0.046-0.046,0.099-0.084,0.15-0.123l-34.985-6.439
		c0.143,0.234,0.225,0.502,0.225,0.782C280.089,46.605,280.079,46.701,280.061,46.794z"/>
	<path fill="#0000FF" d="M316.82,54.41c-0.042,0.042-0.089,0.075-0.135,0.111l34.98,5.926c-0.15-0.238-0.235-0.514-0.235-0.8
		c0-0.398,0.158-0.78,0.439-1.061c0.041-0.042,0.089-0.074,0.135-0.11l-34.979-5.926c0.15,0.238,0.234,0.514,0.234,0.8
		C317.26,53.747,317.102,54.129,316.82,54.41z"/>
	<path fill="#0000FF" d="M131.407,21.254c0,0.116-0.018,0.229-0.044,0.341c0.026,0.111,0.044,0.225,0.044,0.342
		c0,0.176-0.036,0.348-0.096,0.51l34.346,4.523c0.02-0.062,0.042-0.121,0.07-0.18c-0.095-0.199-0.15-0.417-0.15-0.642
		c0-0.398,0.158-0.78,0.44-1.061c0.028-0.028,0.062-0.049,0.091-0.075l-34.965-4.604C131.313,20.657,131.407,20.95,131.407,21.254z"
		/>
	<path fill="#0000FF" d="M205.748,29.93c0,0.082-0.011,0.163-0.024,0.242c0.014,0.08,0.024,0.161,0.024,0.243
		c0,0.247-0.067,0.483-0.18,0.697l19.029,2.506l15.585,2.052c-0.17-0.248-0.264-0.541-0.264-0.846c0-0.399,0.158-0.779,0.439-1.061
		c0.023-0.023,0.052-0.041,0.076-0.062l-34.948-4.615C205.654,29.333,205.748,29.626,205.748,29.93z"/>
	<path d="M57.065,122.137c0-0.318-0.106-0.625-0.292-0.88c-0.046-0.062-0.092-0.124-0.147-0.18c-0.281-0.283-0.663-0.44-1.061-0.44
		s-0.779,0.157-1.06,0.44c-0.282,0.281-0.44,0.663-0.44,1.06c0,0.398,0.158,0.78,0.44,1.062c0.281,0.28,0.662,0.438,1.06,0.438
		c0.373,0,0.728-0.144,1.003-0.391c0.019-0.018,0.04-0.03,0.058-0.048C56.907,122.917,57.065,122.535,57.065,122.137z"/>
	<path d="M94.236,125.99c0-0.271-0.079-0.532-0.214-0.762c-0.063-0.106-0.135-0.209-0.225-0.298c-0.282-0.281-0.663-0.44-1.061-0.44
		c-0.372,0-0.725,0.144-1,0.391c-0.02,0.018-0.042,0.031-0.061,0.05c-0.281,0.281-0.439,0.663-0.439,1.06
		c0,0.317,0.104,0.622,0.287,0.876c0.047,0.064,0.095,0.128,0.152,0.186c0.282,0.281,0.663,0.438,1.061,0.438
		c0.326,0,0.638-0.11,0.896-0.303c0.057-0.043,0.115-0.085,0.166-0.136C94.078,126.77,94.236,126.389,94.236,125.99z"/>
	<path d="M131.407,133.34c0-0.287-0.086-0.566-0.239-0.806c-0.058-0.091-0.124-0.177-0.201-0.254c-0.281-0.281-0.663-0.44-1.06-0.44
		c-0.326,0-0.637,0.111-0.895,0.304c-0.058,0.043-0.115,0.085-0.167,0.137c-0.281,0.28-0.439,0.663-0.439,1.06
		c0,0.273,0.079,0.534,0.215,0.765c0.063,0.106,0.135,0.208,0.224,0.297c0.281,0.281,0.663,0.438,1.061,0.438
		c0.341,0,0.667-0.122,0.932-0.334c0.043-0.034,0.088-0.065,0.127-0.104C131.248,134.12,131.407,133.739,131.407,133.34z"/>
	<path d="M168.138,140.51c0.168-0.17,0.287-0.377,0.359-0.601c0.048-0.147,0.08-0.302,0.08-0.46c0-0.399-0.158-0.779-0.439-1.062
		c-0.281-0.28-0.663-0.438-1.061-0.438c-0.342,0-0.667,0.123-0.932,0.333c-0.043,0.035-0.089,0.066-0.128,0.105
		c-0.282,0.282-0.44,0.662-0.44,1.062c0,0.288,0.085,0.566,0.239,0.807c0.058,0.091,0.124,0.177,0.201,0.254
		c0.207,0.206,0.468,0.346,0.75,0.405c0.102,0.021,0.205,0.034,0.31,0.034C167.475,140.949,167.857,140.79,168.138,140.51z"/>
	<path d="M204.148,204.519h0.199v0.885c0.329-0.022,0.639-0.151,0.887-0.368c0.023-0.021,0.051-0.038,0.074-0.062
		c0.281-0.282,0.439-0.664,0.439-1.061c0-0.312-0.1-0.611-0.277-0.863c-0.049-0.07-0.102-0.138-0.162-0.199
		c-0.207-0.206-0.47-0.345-0.752-0.404c-0.101-0.021-0.204-0.033-0.309-0.033c-0.398,0-0.78,0.158-1.061,0.438
		c-0.169,0.17-0.287,0.378-0.359,0.602c-0.049,0.148-0.08,0.302-0.08,0.461c0,0.396,0.158,0.778,0.439,1.061
		c0.257,0.258,0.6,0.405,0.961,0.43V204.519z"/>
	<path d="M241.319,206.77c-0.104,0.007-0.207,0.025-0.308,0.054h0.308V206.77z"/>
	<path d="M241.826,206.823c-0.101-0.028-0.203-0.047-0.308-0.054v0.054H241.826z"/>
	<path d="M240.434,207.138c-0.024,0.021-0.053,0.038-0.075,0.062c-0.281,0.282-0.439,0.663-0.439,1.061
		c0,0.312,0.101,0.612,0.278,0.864c0.049,0.068,0.101,0.136,0.161,0.196c0.28,0.281,0.663,0.439,1.061,0.439s0.779-0.158,1.06-0.439
		c0.015-0.015,0.025-0.033,0.039-0.048c0.255-0.276,0.401-0.636,0.401-1.013c0-0.363-0.139-0.709-0.376-0.982
		c-0.022-0.025-0.04-0.054-0.064-0.078c-0.066-0.066-0.139-0.125-0.215-0.177h-1.69
		C240.523,207.057,240.479,207.098,240.434,207.138z"/>
	<path d="M277.464,209.828c0.022,0.025,0.041,0.055,0.065,0.079c0.28,0.281,0.662,0.438,1.06,0.438c0.398,0,0.78-0.157,1.062-0.438
		c0.28-0.282,0.438-0.663,0.438-1.062c0-0.397-0.158-0.778-0.438-1.061c-0.281-0.281-0.663-0.439-1.062-0.439
		c-0.397,0-0.779,0.158-1.06,0.439c-0.014,0.014-0.022,0.029-0.035,0.043c-0.258,0.277-0.405,0.639-0.405,1.018
		C277.089,209.21,277.227,209.555,277.464,209.828z"/>
	<path d="M57.065,8.776c0-0.2-0.04-0.395-0.115-0.576c-0.057-0.135-0.138-0.258-0.232-0.372c-0.031,0.038-0.058,0.078-0.092,0.112
		c-0.281,0.281-0.663,0.439-1.061,0.439s-0.779-0.158-1.06-0.439c-0.035-0.035-0.062-0.075-0.092-0.112
		c-0.22,0.267-0.348,0.599-0.348,0.948c0,0.397,0.158,0.779,0.44,1.06c0.281,0.282,0.662,0.44,1.06,0.44
		c0.285,0,0.561-0.084,0.799-0.234c0.094-0.059,0.183-0.126,0.262-0.206C56.907,9.555,57.065,9.173,57.065,8.776z"/>
	<path d="M93.913,18.404c-0.038-0.048-0.073-0.098-0.116-0.141c-0.282-0.281-0.663-0.439-1.061-0.439
		c-0.286,0-0.561,0.084-0.799,0.234c-0.093,0.059-0.183,0.125-0.262,0.205c-0.281,0.281-0.439,0.662-0.439,1.061
		c0,0.231,0.06,0.455,0.16,0.659c0.072,0.146,0.162,0.283,0.279,0.4c0.282,0.282,0.663,0.44,1.061,0.44s0.779-0.158,1.061-0.44
		c0.001-0.001,0.001-0.002,0.002-0.003c0.28-0.281,0.437-0.661,0.437-1.057C94.236,18.987,94.118,18.667,93.913,18.404z"/>
	<path d="M131.312,22.447c0.06-0.163,0.096-0.334,0.096-0.51c0-0.117-0.018-0.23-0.044-0.342c-0.063,0.27-0.197,0.521-0.396,0.72
		c-0.281,0.281-0.663,0.439-1.06,0.439c-0.398,0-0.78-0.158-1.061-0.439c-0.199-0.199-0.333-0.45-0.396-0.72
		c-0.026,0.111-0.043,0.225-0.043,0.342c0,0.025,0.006,0.049,0.007,0.075c0.016,0.307,0.125,0.6,0.313,0.841
		c0.038,0.049,0.074,0.1,0.118,0.144c0.281,0.282,0.663,0.44,1.061,0.44c0.349,0,0.682-0.128,0.949-0.349
		c0.037-0.03,0.076-0.057,0.11-0.091C131.123,22.841,131.237,22.651,131.312,22.447z"/>
	<path d="M168.577,27.431c0-0.042-0.009-0.083-0.013-0.125c-0.015-0.18-0.061-0.354-0.138-0.515
		c-0.073,0.153-0.167,0.297-0.289,0.419c-0.281,0.28-0.663,0.439-1.061,0.439s-0.779-0.159-1.06-0.439
		c-0.123-0.123-0.217-0.266-0.29-0.419c-0.028,0.059-0.05,0.118-0.07,0.18c-0.048,0.148-0.08,0.302-0.08,0.461
		c0,0.295,0.087,0.581,0.247,0.823c0.056,0.085,0.12,0.166,0.193,0.239c0.281,0.281,0.662,0.438,1.06,0.438
		c0.385,0,0.753-0.15,1.032-0.414c0.009-0.009,0.021-0.015,0.029-0.024C168.419,28.212,168.577,27.83,168.577,27.431z"/>
	<path d="M205.568,31.112c0.112-0.214,0.18-0.451,0.18-0.697c0-0.082-0.011-0.163-0.024-0.243c-0.05,0.307-0.191,0.595-0.415,0.818
		c-0.281,0.281-0.662,0.44-1.061,0.44s-0.78-0.159-1.061-0.44c-0.224-0.223-0.365-0.511-0.415-0.818
		c-0.014,0.08-0.024,0.161-0.024,0.243c0,0.127,0.021,0.251,0.053,0.373c0.051,0.194,0.139,0.375,0.262,0.535
		c0.04,0.052,0.078,0.106,0.125,0.153c0.28,0.281,0.662,0.439,1.061,0.439c0.322,0,0.629-0.107,0.885-0.295
		c0.061-0.044,0.122-0.089,0.176-0.144C205.416,31.369,205.498,31.244,205.568,31.112z"/>
	<path d="M242.919,38.131c0-0.252-0.07-0.495-0.188-0.712c-0.068-0.125-0.148-0.246-0.252-0.349c-0.28-0.282-0.662-0.439-1.06-0.439
		c-0.321,0-0.63,0.107-0.886,0.295c-0.061,0.045-0.121,0.09-0.175,0.144c-0.281,0.281-0.439,0.663-0.439,1.061
		c0,0.268,0.077,0.525,0.21,0.753c0.064,0.11,0.138,0.215,0.229,0.307c0.28,0.282,0.663,0.44,1.061,0.44
		c0.306,0,0.602-0.095,0.85-0.267c0.074-0.051,0.146-0.108,0.21-0.173C242.76,38.91,242.919,38.528,242.919,38.131z"/>
	<path d="M279.65,48.14c0.062-0.062,0.114-0.129,0.163-0.2c0.04-0.057,0.071-0.117,0.103-0.178c0.108-0.21,0.173-0.442,0.173-0.684
		c0-0.097-0.01-0.192-0.028-0.285c-0.057,0.292-0.198,0.562-0.41,0.776c-0.281,0.281-0.663,0.439-1.062,0.439
		c-0.397,0-0.779-0.158-1.06-0.439c-0.214-0.213-0.355-0.484-0.412-0.776c-0.019,0.093-0.028,0.188-0.028,0.285
		c0,0.002,0.001,0.004,0.001,0.007c0.001,0.25,0.07,0.49,0.188,0.707c0.068,0.125,0.148,0.245,0.252,0.348
		c0.099,0.099,0.213,0.176,0.334,0.244c0.221,0.123,0.468,0.195,0.726,0.195C278.987,48.579,279.369,48.421,279.65,48.14z"/>
	<path d="M315.126,207.022c-0.156,0.073-0.303,0.169-0.427,0.293c-0.062,0.062-0.115,0.13-0.164,0.2
		c-0.177,0.25-0.275,0.549-0.275,0.86c0,0.398,0.158,0.779,0.439,1.06c0.281,0.282,0.663,0.44,1.061,0.44
		c0.398,0,0.779-0.158,1.061-0.44c0.016-0.016,0.026-0.033,0.04-0.049c0.254-0.275,0.399-0.634,0.399-1.011
		c0-0.368-0.14-0.718-0.382-0.99c-0.021-0.022-0.036-0.049-0.058-0.07c-0.1-0.1-0.214-0.177-0.334-0.244
		c-0.031-0.017-0.061-0.034-0.092-0.049H315.126z"/>
	<path d="M351.812,209.704c0.021,0.023,0.036,0.05,0.059,0.072c0.281,0.279,0.663,0.438,1.061,0.438s0.779-0.159,1.061-0.438
		c0.281-0.282,0.439-0.663,0.439-1.062s-0.158-0.779-0.439-1.061s-0.663-0.439-1.061-0.439s-0.779,0.158-1.061,0.439
		c-0.016,0.016-0.026,0.034-0.041,0.05c-0.253,0.276-0.398,0.634-0.398,1.011C351.431,209.082,351.57,209.431,351.812,209.704z"/>
	<path d="M55.565,8.379c0.398,0,0.78-0.158,1.061-0.439c0.035-0.035,0.062-0.075,0.092-0.112c0.219-0.267,0.347-0.6,0.347-0.949
		c0-0.264-0.076-0.519-0.205-0.744c-0.065-0.113-0.14-0.222-0.234-0.316c-0.281-0.282-0.663-0.44-1.061-0.44s-0.779,0.158-1.06,0.44
		c-0.282,0.281-0.44,0.663-0.44,1.06c0,0.349,0.127,0.682,0.348,0.949c0.031,0.038,0.058,0.078,0.092,0.112
		C54.786,8.221,55.167,8.379,55.565,8.379z"/>
	<path d="M91.236,14.88c0,0.264,0.076,0.518,0.205,0.743c0.065,0.114,0.14,0.223,0.234,0.318c0.282,0.281,0.663,0.439,1.061,0.439
		c0.338,0,0.661-0.12,0.924-0.327c0.046-0.037,0.095-0.07,0.137-0.112c0.281-0.282,0.439-0.663,0.439-1.061
		c0-0.285-0.083-0.559-0.232-0.796c-0.06-0.094-0.126-0.184-0.207-0.265c-0.282-0.281-0.663-0.439-1.061-0.439
		c-0.318,0-0.622,0.104-0.877,0.289c-0.064,0.046-0.127,0.094-0.184,0.15C91.394,14.101,91.236,14.482,91.236,14.88z"/>
	<path d="M128.407,21.254c0,0.116,0.018,0.229,0.043,0.341c0.063,0.27,0.196,0.521,0.396,0.72c0.281,0.281,0.663,0.439,1.061,0.439
		c0.397,0,0.779-0.158,1.06-0.439c0.199-0.199,0.333-0.45,0.396-0.72c0.026-0.112,0.044-0.225,0.044-0.341
		c0-0.304-0.094-0.597-0.264-0.845c-0.052-0.076-0.11-0.149-0.177-0.215c-0.281-0.282-0.663-0.44-1.06-0.44
		c-0.339,0-0.661,0.12-0.924,0.327c-0.046,0.037-0.095,0.07-0.137,0.113C128.565,20.475,128.407,20.857,128.407,21.254z"/>
	<path d="M165.577,26.149c0,0.225,0.055,0.442,0.15,0.642c0.073,0.153,0.167,0.297,0.29,0.419c0.281,0.28,0.662,0.439,1.06,0.439
		s0.78-0.159,1.061-0.439c0.122-0.123,0.216-0.266,0.289-0.419c0.095-0.199,0.15-0.417,0.15-0.642c0-0.32-0.106-0.626-0.292-0.881
		c-0.045-0.062-0.092-0.125-0.147-0.18c-0.281-0.281-0.663-0.439-1.061-0.439c-0.358,0-0.699,0.134-0.969,0.364
		c-0.03,0.025-0.063,0.046-0.091,0.075C165.735,25.369,165.577,25.751,165.577,26.149z"/>
	<path d="M202.748,29.93c0,0.082,0.011,0.163,0.024,0.242c0.05,0.307,0.191,0.595,0.415,0.818c0.28,0.281,0.662,0.44,1.061,0.44
		s0.779-0.159,1.061-0.44c0.224-0.223,0.365-0.511,0.415-0.818c0.014-0.08,0.024-0.16,0.024-0.242c0-0.304-0.094-0.598-0.262-0.845
		c-0.053-0.077-0.111-0.15-0.178-0.216c-0.281-0.281-0.662-0.439-1.061-0.439c-0.374,0-0.73,0.144-1.005,0.393
		c-0.018,0.016-0.038,0.028-0.056,0.046C202.906,29.15,202.748,29.531,202.748,29.93z"/>
	<path d="M239.919,34.824c0,0.305,0.094,0.598,0.264,0.846c0.052,0.076,0.109,0.148,0.176,0.215c0.28,0.281,0.663,0.439,1.061,0.439
		c0.271,0,0.53-0.078,0.759-0.213c0.108-0.063,0.211-0.136,0.301-0.226c0.281-0.282,0.44-0.663,0.44-1.061
		c0-0.218-0.051-0.427-0.14-0.621c-0.073-0.162-0.173-0.312-0.301-0.44c-0.28-0.281-0.662-0.439-1.06-0.439
		c-0.364,0-0.712,0.138-0.984,0.376c-0.024,0.021-0.053,0.039-0.076,0.062C240.077,34.045,239.919,34.425,239.919,34.824z"/>
	<path d="M277.089,46.509c0,0.097,0.01,0.192,0.028,0.285c0.057,0.292,0.198,0.562,0.412,0.776c0.28,0.281,0.662,0.439,1.06,0.439
		c0.398,0,0.78-0.158,1.062-0.439c0.212-0.213,0.354-0.484,0.41-0.776c0.019-0.093,0.028-0.188,0.028-0.285
		c0-0.279-0.082-0.548-0.225-0.782c-0.062-0.1-0.13-0.195-0.214-0.279c-0.281-0.281-0.663-0.439-1.062-0.439
		c-0.271,0-0.53,0.078-0.759,0.213c-0.108,0.063-0.211,0.136-0.301,0.226C277.247,45.73,277.089,46.111,277.089,46.509z"/>
	<path d="M314.26,53.35c0,0.279,0.082,0.547,0.226,0.782c0.061,0.1,0.13,0.194,0.214,0.278c0.281,0.282,0.663,0.44,1.061,0.44
		c0.34,0,0.662-0.121,0.926-0.329c0.046-0.036,0.093-0.069,0.135-0.111c0.281-0.281,0.439-0.663,0.439-1.06
		c0-0.286-0.084-0.562-0.234-0.8c-0.059-0.093-0.126-0.182-0.205-0.261c-0.281-0.281-0.662-0.439-1.061-0.439
		c-0.332,0-0.649,0.116-0.91,0.316c-0.052,0.039-0.104,0.077-0.15,0.123C314.418,52.57,314.26,52.952,314.26,53.35z"/>
	<path d="M351.431,59.647c0,0.286,0.085,0.562,0.235,0.8c0.059,0.093,0.125,0.181,0.204,0.26c0.281,0.282,0.663,0.44,1.061,0.44
		s0.779-0.158,1.061-0.44c0.281-0.282,0.439-0.662,0.439-1.06s-0.158-0.78-0.439-1.061c-0.281-0.281-0.663-0.439-1.061-0.439
		c-0.339,0-0.663,0.121-0.926,0.329c-0.046,0.036-0.094,0.068-0.135,0.11C351.589,58.867,351.431,59.249,351.431,59.647z"/>
	<rect x="36.88" y="204.519" width="0.2" height="2.305"/>
	<rect x="55.465" y="204.519" width="0.2" height="2.305"/>
	<rect x="74.051" y="204.519" width="0.2" height="2.305"/>
	<rect x="92.636" y="202.916" width="0.2" height="3.907"/>
	<path d="M93.126,217.199c0.394-0.375,0.726-0.717,0.996-1.028c0.271-0.311,0.496-0.611,0.673-0.901
		c0.178-0.292,0.311-0.584,0.399-0.877c0.089-0.294,0.133-0.611,0.133-0.956c0-0.406-0.066-0.772-0.197-1.099
		c-0.131-0.325-0.316-0.6-0.555-0.824c-0.24-0.225-0.524-0.396-0.854-0.514c-0.328-0.118-0.692-0.177-1.093-0.177
		c-0.59,0-1.107,0.103-1.551,0.31c-0.444,0.206-0.835,0.479-1.175,0.82l0.676,0.799c0.267-0.273,0.56-0.494,0.879-0.665
		c0.32-0.172,0.674-0.258,1.063-0.258c0.282,0,0.523,0.044,0.725,0.133c0.202,0.088,0.367,0.207,0.494,0.359
		c0.127,0.151,0.22,0.329,0.28,0.531c0.061,0.201,0.092,0.412,0.092,0.635c0,0.235-0.024,0.456-0.072,0.661
		c-0.047,0.201-0.138,0.418-0.274,0.646c-0.135,0.229-0.326,0.483-0.571,0.761c-0.243,0.277-0.56,0.605-0.949,0.985l-2.378,2.329
		v1.053h5.88v-1.12h-4.29L93.126,217.199z"/>
	<rect x="111.221" y="204.519" width="0.2" height="2.305"/>
	<rect x="129.807" y="204.519" width="0.2" height="2.305"/>
	<rect x="148.392" y="204.519" width="0.2" height="2.305"/>
	<rect x="166.977" y="202.916" width="0.2" height="3.907"/>
	<path d="M169.065,211.033h-1.713l-3.843,5.923v1.007h4.34v1.979h1.216v-1.979h1.444v-1.007h-1.444V211.033z M167.849,216.956
		h-3.139l3.139-4.773V216.956z"/>
	<rect x="185.563" y="204.519" width="0.199" height="2.305"/>
	<polygon points="204.348,205.403 204.348,204.519 204.148,204.519 204.148,205.403 204.148,206.823 204.348,206.823 	"/>
	<polygon points="222.933,206.823 222.933,205.092 222.933,204.519 222.733,204.519 222.733,205.068 222.733,206.823 	"/>
	<polygon points="241.519,206.823 241.519,206.77 241.519,202.916 241.319,202.916 241.319,206.77 241.319,206.823 	"/>
	<path d="M243.887,215.184c-0.226-0.233-0.508-0.417-0.848-0.549s-0.737-0.199-1.19-0.199c-0.438,0-0.847,0.055-1.223,0.162
		s-0.71,0.248-1,0.426l0.027-0.289c0.036-0.42,0.126-0.8,0.269-1.139c0.145-0.34,0.351-0.63,0.616-0.87
		c0.269-0.24,0.601-0.427,0.996-0.558c0.396-0.133,0.865-0.199,1.403-0.199h0.933v-1.006h-0.882c-0.605,0-1.139,0.062-1.6,0.188
		c-0.459,0.125-0.858,0.302-1.197,0.528c-0.34,0.227-0.622,0.497-0.852,0.814c-0.228,0.315-0.41,0.665-0.547,1.045
		c-0.136,0.38-0.234,0.784-0.293,1.214c-0.06,0.431-0.09,0.875-0.09,1.335c0,0.681,0.065,1.271,0.199,1.772
		c0.133,0.498,0.326,0.911,0.582,1.237c0.255,0.326,0.571,0.569,0.948,0.729c0.378,0.158,0.813,0.235,1.307,0.235
		c0.47,0,0.896-0.074,1.281-0.227c0.386-0.153,0.715-0.363,0.987-0.63c0.274-0.267,0.485-0.58,0.632-0.938
		c0.149-0.36,0.224-0.745,0.224-1.157c0-0.391-0.058-0.75-0.171-1.078C244.286,215.701,244.115,215.419,243.887,215.184z
		 M243.218,217.98c-0.089,0.229-0.213,0.424-0.372,0.586c-0.158,0.16-0.348,0.281-0.567,0.365c-0.22,0.083-0.46,0.124-0.723,0.124
		c-0.313,0-0.591-0.049-0.832-0.146c-0.238-0.1-0.44-0.266-0.605-0.497c-0.163-0.233-0.286-0.543-0.369-0.93
		c-0.082-0.387-0.123-0.867-0.123-1.443c0.129-0.082,0.271-0.159,0.429-0.23c0.157-0.07,0.322-0.135,0.494-0.189
		c0.172-0.056,0.349-0.099,0.528-0.129c0.18-0.032,0.358-0.048,0.535-0.048c0.304,0,0.564,0.041,0.784,0.124s0.4,0.199,0.544,0.35
		c0.143,0.149,0.247,0.332,0.312,0.549c0.067,0.216,0.101,0.458,0.101,0.728C243.354,217.487,243.309,217.75,243.218,217.98z"/>
	<rect x="259.904" y="204.519" width="0.199" height="2.305"/>
	<rect x="278.489" y="204.519" width="0.199" height="2.305"/>
	<rect x="297.075" y="204.519" width="0.199" height="2.305"/>
	<polygon points="315.859,206.823 315.859,204.353 315.859,202.916 315.66,202.916 315.66,203.488 315.66,206.823 	"/>
	<path d="M318.259,216.223c-0.162-0.197-0.352-0.377-0.571-0.534c-0.219-0.161-0.461-0.309-0.726-0.442
		c0.542-0.276,0.956-0.598,1.24-0.965c0.286-0.369,0.429-0.816,0.429-1.341c0-0.321-0.059-0.612-0.177-0.875
		s-0.296-0.486-0.534-0.669c-0.238-0.187-0.531-0.327-0.879-0.426c-0.349-0.099-0.754-0.147-1.217-0.147
		c-0.487,0-0.911,0.062-1.273,0.189c-0.359,0.125-0.66,0.294-0.9,0.507c-0.239,0.213-0.418,0.453-0.538,0.725
		c-0.118,0.271-0.178,0.552-0.178,0.843c0,0.474,0.128,0.895,0.381,1.26c0.254,0.366,0.686,0.697,1.295,0.995
		c-0.66,0.327-1.137,0.689-1.427,1.087c-0.289,0.397-0.433,0.869-0.433,1.418c0,0.325,0.063,0.622,0.188,0.893
		c0.127,0.27,0.313,0.503,0.562,0.7c0.25,0.196,0.558,0.35,0.926,0.459c0.367,0.109,0.792,0.163,1.275,0.163
		c0.438,0,0.846-0.052,1.221-0.156c0.374-0.105,0.7-0.258,0.976-0.459c0.275-0.202,0.489-0.45,0.643-0.744
		c0.153-0.295,0.23-0.632,0.23-1.013c0-0.297-0.046-0.565-0.137-0.808C318.546,216.64,318.421,216.42,318.259,216.223z
		 M314.573,213.935c-0.144-0.132-0.249-0.274-0.319-0.426c-0.069-0.151-0.103-0.316-0.103-0.497c0-0.394,0.143-0.688,0.429-0.886
		c0.286-0.198,0.685-0.297,1.198-0.297c0.52,0,0.922,0.1,1.208,0.299c0.286,0.2,0.429,0.504,0.429,0.913
		c0,0.35-0.126,0.657-0.379,0.921c-0.251,0.264-0.635,0.517-1.153,0.761c-0.297-0.134-0.554-0.266-0.77-0.394
		C314.898,214.199,314.718,214.068,314.573,213.935z M317.415,218.358c-0.094,0.157-0.22,0.288-0.381,0.392
		c-0.16,0.104-0.352,0.181-0.571,0.232c-0.22,0.049-0.454,0.073-0.702,0.073c-0.255,0-0.493-0.026-0.713-0.081
		s-0.41-0.138-0.569-0.249c-0.158-0.11-0.283-0.244-0.376-0.402c-0.091-0.159-0.136-0.341-0.136-0.546
		c0-0.187,0.029-0.361,0.086-0.525c0.057-0.165,0.152-0.324,0.286-0.477c0.136-0.155,0.313-0.308,0.532-0.455
		c0.218-0.149,0.489-0.301,0.811-0.453c0.371,0.166,0.677,0.327,0.917,0.482c0.24,0.156,0.433,0.312,0.575,0.469
		c0.144,0.155,0.242,0.314,0.298,0.475c0.056,0.161,0.083,0.326,0.083,0.497C317.555,218.01,317.508,218.199,317.415,218.358z"/>
	<rect x="334.245" y="204.519" width="0.199" height="2.305"/>
	<rect x="352.831" y="204.519" width="0.199" height="2.305"/>
	<polygon points="18.295,206.823 11.425,206.823 11.425,207.022 18.295,207.022 18.295,206.923 	"/>
	<polygon points="222.229,207.022 239.446,207.022 240.573,207.022 242.264,207.022 314.422,207.022 315.126,207.022 
		316.395,207.022 316.475,207.022 359.9,207.022 359.9,206.823 353.03,206.823 352.831,206.823 334.444,206.823 334.245,206.823 
		316.429,206.823 315.859,206.823 315.66,206.823 314.376,206.823 297.274,206.823 297.075,206.823 278.688,206.823 
		278.489,206.823 260.104,206.823 259.904,206.823 241.826,206.823 241.519,206.823 241.319,206.823 241.012,206.823 
		237.743,206.823 222.933,206.823 222.733,206.823 220.526,206.823 204.348,206.823 204.148,206.823 185.763,206.823 
		185.563,206.823 167.177,206.823 166.977,206.823 148.592,206.823 148.392,206.823 130.007,206.823 129.807,206.823 
		111.421,206.823 111.221,206.823 92.836,206.823 92.636,206.823 74.251,206.823 74.051,206.823 55.665,206.823 55.465,206.823 
		37.08,206.823 36.88,206.823 22.402,206.823 22.402,207.022 	"/>
	<rect x="18.495" y="214.531" width="2.304" height="0.199"/>
	<polygon points="18.495,207.022 22.402,207.022 22.402,206.823 18.495,206.823 18.495,206.923 	"/>
	<rect x="18.495" y="199.115" width="2.304" height="0.199"/>
	<rect x="18.495" y="191.407" width="2.304" height="0.199"/>
	<rect x="18.495" y="183.7" width="2.304" height="0.199"/>
	<rect x="18.495" y="175.991" width="2.304" height="0.199"/>
	<rect x="18.495" y="168.284" width="3.907" height="0.199"/>
	<polygon points="4.9,162.38 3.894,162.38 0.98,163.88 1.422,164.893 3.64,163.729 3.64,170.264 1.26,170.264 1.26,171.384 
		6.86,171.384 6.86,170.264 4.9,170.264 	"/>
	<path d="M9.133,170.417c0.281,0.376,0.619,0.654,1.013,0.835c0.393,0.181,0.831,0.272,1.312,0.272c0.56,0,1.047-0.111,1.461-0.333
		c0.416-0.223,0.764-0.536,1.044-0.943c0.28-0.407,0.488-0.893,0.625-1.459c0.139-0.567,0.208-1.194,0.208-1.881
		c0-0.799-0.076-1.49-0.227-2.072c-0.15-0.582-0.366-1.062-0.648-1.441c-0.28-0.379-0.617-0.658-1.01-0.84
		c-0.394-0.181-0.832-0.271-1.313-0.271c-0.555,0-1.042,0.109-1.459,0.332c-0.417,0.222-0.765,0.536-1.043,0.942
		c-0.277,0.405-0.486,0.894-0.626,1.464c-0.14,0.568-0.21,1.197-0.21,1.886c0,0.798,0.075,1.488,0.225,2.07
		C8.637,169.561,8.853,170.04,9.133,170.417z M13.545,166.029c0.023,0.146,0.035,0.298,0.035,0.452s0,0.31,0,0.466
		c0,0.587-0.048,1.102-0.144,1.547c-0.095,0.445-0.232,0.816-0.412,1.118c-0.178,0.299-0.393,0.524-0.647,0.678
		c-0.254,0.151-0.537,0.227-0.849,0.227c-0.242,0-0.459-0.04-0.65-0.119c-0.189-0.082-0.358-0.195-0.507-0.34
		c-0.147-0.146-0.274-0.318-0.378-0.521c-0.105-0.202-0.192-0.424-0.261-0.665L13.545,166.029z M9.476,166.864
		c0-0.585,0.048-1.1,0.145-1.544c0.096-0.445,0.234-0.818,0.413-1.12c0.179-0.302,0.397-0.529,0.652-0.682s0.539-0.229,0.851-0.229
		c0.235,0,0.446,0.039,0.634,0.118c0.19,0.079,0.358,0.188,0.503,0.33c0.148,0.14,0.275,0.307,0.381,0.501
		c0.106,0.192,0.194,0.405,0.262,0.641l-3.812,2.829c-0.019-0.135-0.029-0.273-0.029-0.416S9.476,167.007,9.476,166.864z"/>
	<rect x="18.495" y="160.576" width="2.304" height="0.199"/>
	<rect x="18.495" y="152.869" width="2.304" height="0.199"/>
	<rect x="18.495" y="145.161" width="2.304" height="0.199"/>
	<rect x="18.495" y="137.453" width="2.304" height="0.199"/>
	<rect x="18.495" y="129.745" width="3.907" height="0.199"/>
	<path d="M9.133,131.878c0.281,0.376,0.619,0.654,1.013,0.835c0.393,0.181,0.831,0.272,1.312,0.272c0.56,0,1.047-0.111,1.461-0.333
		c0.416-0.223,0.764-0.536,1.044-0.943c0.28-0.407,0.488-0.893,0.625-1.459c0.139-0.567,0.208-1.194,0.208-1.881
		c0-0.799-0.076-1.49-0.227-2.072c-0.15-0.582-0.366-1.062-0.648-1.44c-0.28-0.38-0.617-0.659-1.01-0.841
		c-0.394-0.181-0.832-0.271-1.313-0.271c-0.555,0-1.042,0.11-1.459,0.332s-0.765,0.536-1.043,0.942
		c-0.277,0.405-0.486,0.894-0.626,1.464c-0.14,0.568-0.21,1.197-0.21,1.886c0,0.798,0.075,1.488,0.225,2.071
		C8.637,131.022,8.853,131.501,9.133,131.878z M13.545,127.49c0.023,0.146,0.035,0.298,0.035,0.452s0,0.31,0,0.466
		c0,0.587-0.048,1.102-0.144,1.547c-0.095,0.445-0.232,0.817-0.412,1.118c-0.178,0.299-0.393,0.524-0.647,0.678
		c-0.254,0.151-0.537,0.227-0.849,0.227c-0.242,0-0.459-0.039-0.65-0.119c-0.189-0.082-0.358-0.195-0.507-0.34
		c-0.147-0.146-0.274-0.318-0.378-0.521c-0.105-0.202-0.192-0.424-0.261-0.665L13.545,127.49z M9.476,128.325
		c0-0.585,0.048-1.1,0.145-1.544c0.096-0.445,0.234-0.818,0.413-1.12c0.179-0.302,0.397-0.529,0.652-0.681
		c0.255-0.153,0.539-0.229,0.851-0.229c0.235,0,0.446,0.039,0.634,0.118c0.19,0.079,0.358,0.188,0.503,0.33
		c0.148,0.14,0.275,0.307,0.381,0.501c0.106,0.192,0.194,0.406,0.262,0.641l-3.812,2.829c-0.019-0.135-0.029-0.272-0.029-0.416
		C9.476,128.611,9.476,128.468,9.476,128.325z"/>
	<path d="M4.239,130.121c0.394-0.375,0.726-0.717,0.996-1.028c0.271-0.311,0.496-0.61,0.673-0.9
		c0.178-0.292,0.311-0.584,0.399-0.877c0.089-0.294,0.133-0.612,0.133-0.956c0-0.407-0.066-0.773-0.197-1.1
		c-0.131-0.325-0.316-0.6-0.555-0.824c-0.24-0.225-0.524-0.396-0.854-0.514c-0.328-0.118-0.692-0.177-1.093-0.177
		c-0.59,0-1.107,0.103-1.551,0.31c-0.444,0.206-0.835,0.479-1.175,0.82l0.676,0.799c0.267-0.272,0.56-0.494,0.879-0.665
		c0.32-0.172,0.674-0.258,1.063-0.258c0.282,0,0.523,0.044,0.725,0.133c0.202,0.088,0.367,0.207,0.494,0.359
		c0.127,0.151,0.22,0.329,0.28,0.532c0.061,0.2,0.092,0.411,0.092,0.634c0,0.235-0.024,0.456-0.072,0.661
		c-0.047,0.202-0.138,0.418-0.274,0.646c-0.136,0.229-0.326,0.483-0.571,0.761c-0.243,0.277-0.56,0.605-0.949,0.985l-2.378,2.329
		v1.053h5.88v-1.12H2.57L4.239,130.121z"/>
	<rect x="18.495" y="122.037" width="2.304" height="0.199"/>
	<rect x="18.495" y="114.33" width="2.304" height="0.199"/>
	<rect x="18.495" y="106.622" width="2.304" height="0.2"/>
	<rect x="18.495" y="98.914" width="2.304" height="0.2"/>
	<rect x="18.495" y="91.205" width="3.907" height="0.2"/>
	<path d="M4.931,92.975c-0.2,0.151-0.458,0.266-0.775,0.346c-0.315,0.079-0.695,0.118-1.139,0.118c-0.329,0-0.65-0.013-0.965-0.039
		c-0.314-0.028-0.624-0.067-0.932-0.118v1.074c0.245,0.06,0.509,0.089,0.792,0.089c0.283,0,0.602,0,0.958,0
		c0.642,0,1.205-0.073,1.689-0.22c0.484-0.148,0.885-0.349,1.203-0.604c0.319-0.257,0.558-0.557,0.717-0.899
		c0.161-0.343,0.241-0.71,0.241-1.101c0-0.28-0.055-0.535-0.166-0.765c-0.111-0.232-0.256-0.433-0.436-0.604
		c-0.179-0.171-0.381-0.311-0.605-0.42c-0.224-0.109-0.453-0.183-0.69-0.221c0.471-0.21,0.828-0.486,1.07-0.829
		c0.242-0.343,0.363-0.767,0.363-1.273c0-0.338-0.061-0.642-0.184-0.912c-0.121-0.271-0.3-0.502-0.538-0.692
		c-0.237-0.189-0.533-0.334-0.888-0.435c-0.354-0.1-0.765-0.151-1.233-0.151c-0.157,0-0.321,0.008-0.493,0.024
		c-0.17,0.015-0.342,0.037-0.514,0.066c-0.172,0.028-0.345,0.063-0.518,0.107c-0.174,0.042-0.336,0.09-0.488,0.142v1.02
		c0.359-0.117,0.696-0.204,1.011-0.263c0.316-0.06,0.624-0.089,0.923-0.089c0.56,0,0.984,0.109,1.273,0.328
		c0.289,0.217,0.433,0.563,0.433,1.039c0,0.243-0.042,0.461-0.125,0.654c-0.083,0.192-0.202,0.354-0.358,0.485
		c-0.156,0.132-0.345,0.232-0.565,0.302c-0.219,0.07-0.461,0.105-0.728,0.105H2.24v1.006h1.011c0.325,0,0.626,0.031,0.903,0.092
		c0.279,0.062,0.518,0.153,0.718,0.276c0.201,0.123,0.356,0.275,0.465,0.457c0.111,0.181,0.167,0.394,0.167,0.639
		c0,0.268-0.046,0.509-0.138,0.722C5.276,92.644,5.13,92.825,4.931,92.975z"/>
	<path d="M9.133,93.339c0.281,0.376,0.619,0.654,1.013,0.835c0.393,0.181,0.831,0.271,1.312,0.271c0.56,0,1.047-0.11,1.461-0.332
		c0.416-0.222,0.764-0.536,1.044-0.943c0.28-0.407,0.488-0.893,0.625-1.459c0.139-0.567,0.208-1.194,0.208-1.881
		c0-0.799-0.076-1.49-0.227-2.072c-0.15-0.582-0.366-1.062-0.648-1.441c-0.28-0.379-0.617-0.659-1.01-0.84
		c-0.394-0.181-0.832-0.271-1.313-0.271c-0.555,0-1.042,0.11-1.459,0.332c-0.417,0.222-0.765,0.536-1.043,0.943
		c-0.277,0.405-0.486,0.893-0.626,1.463c-0.14,0.569-0.21,1.198-0.21,1.886c0,0.798,0.075,1.488,0.225,2.071
		C8.637,92.483,8.853,92.962,9.133,93.339z M13.545,88.951c0.023,0.147,0.035,0.298,0.035,0.452c0,0.155,0,0.31,0,0.466
		c0,0.587-0.048,1.102-0.144,1.547c-0.095,0.445-0.232,0.817-0.412,1.118c-0.178,0.299-0.393,0.525-0.647,0.678
		c-0.254,0.151-0.537,0.227-0.849,0.227c-0.242,0-0.459-0.04-0.65-0.12c-0.189-0.082-0.358-0.195-0.507-0.339
		c-0.147-0.146-0.274-0.32-0.378-0.521c-0.105-0.202-0.192-0.424-0.261-0.665L13.545,88.951z M9.476,89.786
		c0-0.585,0.048-1.099,0.145-1.544c0.096-0.445,0.234-0.818,0.413-1.12c0.179-0.302,0.397-0.529,0.652-0.681
		c0.255-0.153,0.539-0.229,0.851-0.229c0.235,0,0.446,0.039,0.634,0.118c0.19,0.079,0.358,0.189,0.503,0.33
		c0.148,0.14,0.275,0.307,0.381,0.501c0.106,0.193,0.194,0.406,0.262,0.641L9.505,90.63c-0.019-0.134-0.029-0.272-0.029-0.415
		S9.476,89.929,9.476,89.786z"/>
	<rect x="18.495" y="83.499" width="2.304" height="0.2"/>
	<rect x="18.495" y="75.791" width="2.304" height="0.2"/>
	<rect x="18.495" y="68.083" width="2.304" height="0.2"/>
	<rect x="18.495" y="60.375" width="2.304" height="0.2"/>
	<rect x="18.495" y="52.668" width="3.907" height="0.2"/>
	<path d="M9.133,54.801c0.281,0.376,0.619,0.654,1.013,0.835c0.393,0.181,0.831,0.272,1.312,0.272c0.56,0,1.047-0.111,1.461-0.333
		c0.416-0.222,0.764-0.536,1.044-0.943c0.28-0.407,0.488-0.893,0.625-1.459c0.139-0.567,0.208-1.194,0.208-1.881
		c0-0.799-0.076-1.49-0.227-2.072c-0.15-0.582-0.366-1.062-0.648-1.441c-0.28-0.379-0.617-0.659-1.01-0.84
		c-0.394-0.181-0.832-0.271-1.313-0.271c-0.555,0-1.042,0.11-1.459,0.332s-0.765,0.536-1.043,0.943
		c-0.277,0.405-0.486,0.893-0.626,1.463c-0.14,0.569-0.21,1.198-0.21,1.886c0,0.798,0.075,1.488,0.225,2.071
		C8.637,53.945,8.853,54.424,9.133,54.801z M13.545,50.413c0.023,0.147,0.035,0.298,0.035,0.452c0,0.155,0,0.31,0,0.466
		c0,0.587-0.048,1.102-0.144,1.547c-0.095,0.445-0.232,0.817-0.412,1.118c-0.178,0.299-0.393,0.525-0.647,0.678
		c-0.254,0.151-0.537,0.227-0.849,0.227c-0.242,0-0.459-0.04-0.65-0.12c-0.189-0.082-0.358-0.195-0.507-0.339
		c-0.147-0.146-0.274-0.319-0.378-0.521c-0.105-0.202-0.192-0.424-0.261-0.665L13.545,50.413z M9.476,51.248
		c0-0.585,0.048-1.099,0.145-1.544c0.096-0.445,0.234-0.818,0.413-1.12c0.179-0.302,0.397-0.529,0.652-0.681
		c0.255-0.153,0.539-0.229,0.851-0.229c0.235,0,0.446,0.039,0.634,0.118c0.19,0.079,0.358,0.189,0.503,0.33
		c0.148,0.14,0.275,0.307,0.381,0.501c0.106,0.193,0.194,0.406,0.262,0.641l-3.812,2.829c-0.019-0.135-0.029-0.273-0.029-0.416
		C9.476,51.534,9.476,51.391,9.476,51.248z"/>
	<path d="M4.62,55.787h1.216v-1.979H7.28v-1.007H5.836v-5.924H4.123L0.28,52.801v1.007h4.34V55.787z M1.481,52.801l3.139-4.773
		v4.773H1.481z"/>
	<rect x="18.495" y="44.96" width="2.304" height="0.2"/>
	<rect x="18.495" y="37.252" width="2.304" height="0.2"/>
	<rect x="18.495" y="29.544" width="2.304" height="0.2"/>
	<rect x="18.495" y="21.837" width="2.304" height="0.2"/>
	<rect x="18.495" y="14.129" width="3.907" height="0.2"/>
	<path d="M2.083,17.369c0.15,0,0.301,0,0.452,0c0.152,0,0.293,0,0.425,0c0.525,0,1.013-0.073,1.465-0.217
		c0.454-0.146,0.847-0.349,1.179-0.61c0.334-0.261,0.596-0.573,0.786-0.937c0.191-0.363,0.286-0.765,0.286-1.205
		c0-0.49-0.095-0.897-0.286-1.221c-0.191-0.325-0.444-0.584-0.757-0.776c-0.312-0.194-0.668-0.329-1.068-0.405
		c-0.399-0.077-0.817-0.116-1.253-0.116H2.52V9.389h3.69V8.382H1.4v4.507h1.704c0.76,0,1.342,0.127,1.748,0.382
		c0.405,0.254,0.608,0.659,0.608,1.217c0,0.288-0.055,0.548-0.166,0.778c-0.111,0.231-0.271,0.428-0.479,0.591
		c-0.207,0.163-0.459,0.289-0.755,0.376c-0.295,0.086-0.626,0.129-0.995,0.129c-0.328,0-0.653-0.014-0.974-0.041
		c-0.319-0.028-0.596-0.071-0.831-0.129v1.08c0.114,0.027,0.241,0.049,0.383,0.068C1.786,17.359,1.932,17.369,2.083,17.369z"/>
	<path d="M9.133,16.262c0.281,0.376,0.619,0.654,1.013,0.835c0.393,0.181,0.831,0.272,1.312,0.272c0.56,0,1.047-0.111,1.461-0.333
		c0.416-0.222,0.764-0.536,1.044-0.943c0.28-0.407,0.488-0.893,0.625-1.459c0.139-0.567,0.208-1.194,0.208-1.881
		c0-0.799-0.076-1.49-0.227-2.072c-0.15-0.582-0.366-1.062-0.648-1.441c-0.28-0.379-0.617-0.659-1.01-0.84
		c-0.394-0.181-0.832-0.271-1.313-0.271c-0.555,0-1.042,0.11-1.459,0.332S9.374,8.997,9.096,9.404
		C8.819,9.809,8.61,10.297,8.47,10.867c-0.14,0.569-0.21,1.198-0.21,1.886c0,0.798,0.075,1.488,0.225,2.071
		C8.637,15.406,8.853,15.885,9.133,16.262z M13.545,11.874c0.023,0.147,0.035,0.298,0.035,0.452c0,0.155,0,0.31,0,0.466
		c0,0.587-0.048,1.102-0.144,1.547c-0.095,0.445-0.232,0.817-0.412,1.118c-0.178,0.299-0.393,0.525-0.647,0.678
		c-0.254,0.151-0.537,0.227-0.849,0.227c-0.242,0-0.459-0.04-0.65-0.12c-0.189-0.082-0.358-0.195-0.507-0.339
		c-0.147-0.146-0.274-0.319-0.378-0.521c-0.105-0.202-0.192-0.424-0.261-0.665L13.545,11.874z M9.476,12.709
		c0-0.585,0.048-1.099,0.145-1.544c0.096-0.445,0.234-0.818,0.413-1.12c0.179-0.302,0.397-0.529,0.652-0.681
		c0.255-0.153,0.539-0.229,0.851-0.229c0.235,0,0.446,0.039,0.634,0.118c0.19,0.079,0.358,0.189,0.503,0.33
		c0.148,0.14,0.275,0.307,0.381,0.501c0.106,0.193,0.194,0.406,0.262,0.641l-3.812,2.829c-0.019-0.135-0.029-0.273-0.029-0.416
		S9.476,12.852,9.476,12.709z"/>
	<rect x="18.495" y="6.421" width="2.304" height="0.2"/>
	<polygon points="18.295,206.923 18.295,207.022 18.295,215.547 18.495,215.547 18.495,214.73 18.495,214.531 18.495,207.022 
		18.495,206.923 18.495,206.823 18.495,202.916 18.495,199.314 18.495,199.115 18.495,191.606 18.495,191.407 18.495,183.899 
		18.495,183.7 18.495,176.19 18.495,175.991 18.495,168.483 18.495,168.284 18.495,160.775 18.495,160.576 18.495,153.068 
		18.495,152.869 18.495,145.36 18.495,145.161 18.495,137.652 18.495,137.453 18.495,129.944 18.495,129.745 18.495,122.236 
		18.495,122.037 18.495,114.529 18.495,114.33 18.495,106.822 18.495,106.622 18.495,99.114 18.495,98.914 18.495,91.405 
		18.495,91.205 18.495,83.699 18.495,83.499 18.495,75.991 18.495,75.791 18.495,68.283 18.495,68.083 18.495,60.575 18.495,60.375 
		18.495,52.868 18.495,52.668 18.495,45.16 18.495,44.96 18.495,37.452 18.495,37.252 18.495,29.744 18.495,29.544 18.495,22.037 
		18.495,21.837 18.495,14.329 18.495,14.129 18.495,6.621 18.495,6.421 18.495,0.178 18.295,0.178 18.295,202.916 18.295,206.823 	
		"/>
</g>
</svg>
