<?xml version="1.0" encoding="utf-8"?>
<!-- Generator: Adobe Illustrator 16.0.4, SVG Export Plug-In . SVG Version: 6.00 Build 0)  -->
<!DOCTYPE svg PUBLIC "-//W3C//DTD SVG 1.1 Tiny//EN" "http://www.w3.org/Graphics/SVG/1.1/DTD/svg11-tiny.dtd">
<svg version="1.1" baseProfile="tiny" id="Layer_1" xmlns="http://www.w3.org/2000/svg" xmlns:xlink="http://www.w3.org/1999/xlink"
	 x="0px" y="0px" width="360px" height="226px" viewBox="0 0 360 226" xml:space="preserve">
<g>
	<g>
		<g>
		</g>
		<g>
		</g>
	</g>
	<g>
	</g>
</g>
<g>
	<path fill="#FFFFFF" d="M242.94,217.879c-0.144-0.151-0.324-0.267-0.544-0.35s-0.48-0.125-0.784-0.125
		c-0.177,0-0.355,0.016-0.535,0.048c-0.18,0.031-0.356,0.074-0.528,0.129c-0.172,0.056-0.337,0.119-0.494,0.191
		c-0.157,0.07-0.3,0.147-0.429,0.229c0,0.576,0.041,1.057,0.123,1.444c0.083,0.386,0.206,0.695,0.369,0.93
		c0.165,0.232,0.367,0.397,0.605,0.496c0.241,0.098,0.519,0.146,0.832,0.146c0.263,0,0.503-0.042,0.723-0.125
		s0.409-0.204,0.567-0.364c0.159-0.162,0.283-0.358,0.372-0.586c0.091-0.231,0.136-0.493,0.136-0.788
		c0-0.269-0.033-0.511-0.101-0.727C243.188,218.21,243.083,218.027,242.94,217.879z"/>
	<path fill="#FFFFFF" d="M13.317,52.602c-0.068-0.235-0.156-0.449-0.262-0.641c-0.106-0.194-0.233-0.361-0.381-0.501
		c-0.145-0.142-0.313-0.252-0.503-0.331c-0.188-0.078-0.399-0.118-0.634-0.118c-0.312,0-0.596,0.077-0.851,0.23
		c-0.255,0.152-0.473,0.378-0.652,0.68c-0.179,0.302-0.317,0.675-0.413,1.12c-0.097,0.445-0.145,0.96-0.145,1.545
		c0,0.143,0,0.285,0,0.428s0.01,0.282,0.029,0.416L13.317,52.602z"/>
	<path fill="#FFFFFF" d="M9.993,95.454c0.104,0.201,0.231,0.375,0.378,0.52c0.149,0.145,0.318,0.258,0.507,0.339
		c0.191,0.081,0.408,0.121,0.65,0.121c0.312,0,0.595-0.076,0.849-0.228c0.254-0.153,0.469-0.379,0.647-0.678
		c0.18-0.3,0.317-0.673,0.412-1.118c0.096-0.444,0.144-0.96,0.144-1.546c0-0.156,0-0.312,0-0.466c0-0.155-0.012-0.306-0.035-0.453
		l-3.813,2.844C9.801,95.029,9.888,95.251,9.993,95.454z"/>
	<path fill="#FFFFFF" d="M0,226h360V0H0V226z M6.86,173.689h-5.6v-1.12h2.38v-6.534l-2.218,1.164l-0.442-1.014l2.914-1.501H4.9
		v7.885h1.96V173.689z M6.86,135.494H0.98v-1.052l2.378-2.33c0.389-0.379,0.706-0.707,0.949-0.984
		c0.245-0.279,0.435-0.533,0.571-0.761c0.136-0.229,0.227-0.445,0.274-0.648c0.048-0.204,0.072-0.424,0.072-0.661
		c0-0.221-0.031-0.433-0.092-0.634c-0.06-0.203-0.153-0.38-0.28-0.532c-0.127-0.15-0.292-0.271-0.494-0.357
		c-0.202-0.089-0.443-0.134-0.725-0.134c-0.389,0-0.743,0.086-1.063,0.258c-0.319,0.171-0.612,0.393-0.879,0.665l-0.676-0.798
		c0.34-0.342,0.731-0.615,1.175-0.82c0.444-0.207,0.961-0.312,1.551-0.312c0.401,0,0.765,0.06,1.093,0.178
		c0.33,0.118,0.614,0.29,0.854,0.514c0.239,0.225,0.424,0.5,0.555,0.825c0.131,0.325,0.197,0.69,0.197,1.098
		c0,0.344-0.044,0.663-0.133,0.956c-0.088,0.293-0.221,0.586-0.399,0.877c-0.177,0.29-0.402,0.591-0.673,0.901
		c-0.27,0.311-0.602,0.654-0.996,1.029l-1.669,1.603h4.29V135.494z M5.337,94.065c-0.109-0.183-0.264-0.335-0.465-0.457
		c-0.2-0.123-0.439-0.215-0.718-0.276c-0.277-0.061-0.578-0.092-0.903-0.092H2.24v-1.006h1.024c0.267,0,0.509-0.035,0.728-0.105
		c0.22-0.07,0.409-0.171,0.565-0.302c0.156-0.131,0.275-0.293,0.358-0.486c0.083-0.192,0.125-0.41,0.125-0.654
		c0-0.475-0.144-0.822-0.433-1.039c-0.289-0.219-0.713-0.328-1.273-0.328c-0.299,0-0.607,0.03-0.923,0.09
		c-0.315,0.058-0.652,0.146-1.011,0.262v-1.019c0.152-0.053,0.314-0.1,0.488-0.142c0.173-0.044,0.346-0.08,0.518-0.108
		c0.172-0.029,0.344-0.051,0.514-0.065c0.172-0.016,0.336-0.024,0.493-0.024c0.468,0,0.879,0.05,1.233,0.151
		c0.355,0.1,0.651,0.245,0.888,0.435c0.238,0.19,0.417,0.42,0.538,0.691c0.123,0.27,0.184,0.574,0.184,0.912
		c0,0.506-0.121,0.931-0.363,1.274c-0.242,0.342-0.599,0.619-1.07,0.829c0.237,0.038,0.466,0.111,0.69,0.221
		c0.224,0.109,0.426,0.249,0.605,0.42c0.18,0.17,0.325,0.371,0.436,0.603c0.111,0.231,0.166,0.486,0.166,0.766
		c0,0.391-0.08,0.758-0.241,1.1c-0.159,0.343-0.398,0.643-0.717,0.899c-0.318,0.256-0.719,0.457-1.203,0.604
		C4.075,97.366,3.512,97.44,2.87,97.44c-0.356,0-0.675,0-0.958,0c-0.283,0-0.547-0.03-0.792-0.09v-1.074
		c0.308,0.051,0.618,0.091,0.932,0.118c0.315,0.027,0.636,0.04,0.965,0.04c0.444,0,0.824-0.04,1.139-0.118
		c0.317-0.081,0.575-0.196,0.775-0.346c0.199-0.15,0.345-0.332,0.435-0.545c0.092-0.213,0.138-0.453,0.138-0.722
		C5.504,94.458,5.448,94.246,5.337,94.065z M95.747,221.884h-5.88v-1.052l2.378-2.33c0.389-0.379,0.706-0.707,0.949-0.984
		c0.245-0.278,0.436-0.532,0.571-0.761c0.136-0.229,0.227-0.445,0.274-0.647c0.048-0.204,0.072-0.425,0.072-0.661
		c0-0.222-0.031-0.434-0.092-0.634c-0.06-0.203-0.153-0.381-0.28-0.532c-0.127-0.151-0.292-0.271-0.494-0.358
		c-0.202-0.089-0.443-0.134-0.725-0.134c-0.389,0-0.743,0.086-1.063,0.258c-0.319,0.171-0.612,0.394-0.879,0.665l-0.676-0.798
		c0.34-0.341,0.731-0.615,1.175-0.82c0.444-0.207,0.961-0.311,1.551-0.311c0.401,0,0.765,0.059,1.093,0.177
		c0.33,0.118,0.614,0.29,0.854,0.514c0.239,0.226,0.424,0.5,0.555,0.825c0.131,0.325,0.197,0.691,0.197,1.099
		c0,0.344-0.044,0.662-0.133,0.955c-0.088,0.294-0.221,0.587-0.399,0.878c-0.177,0.29-0.402,0.591-0.673,0.9
		c-0.27,0.312-0.602,0.654-0.996,1.029l-1.669,1.603h4.29V221.884z M170.509,219.924h-1.444v1.98h-1.216v-1.98h-4.34v-1.006
		l3.843-5.924h1.713v5.924h1.444V219.924z M244.347,220.228c-0.146,0.359-0.357,0.673-0.632,0.939
		c-0.272,0.266-0.602,0.476-0.987,0.63c-0.385,0.151-0.812,0.228-1.281,0.228c-0.493,0-0.929-0.079-1.307-0.236
		c-0.377-0.159-0.693-0.402-0.948-0.729c-0.256-0.325-0.449-0.738-0.582-1.237c-0.134-0.5-0.199-1.091-0.199-1.772
		c0-0.459,0.03-0.904,0.09-1.334c0.059-0.43,0.157-0.835,0.293-1.214c0.137-0.381,0.319-0.729,0.547-1.046
		c0.229-0.316,0.512-0.587,0.852-0.813c0.339-0.228,0.738-0.403,1.197-0.529c0.461-0.125,0.994-0.188,1.6-0.188h0.882v1.006h-0.933
		c-0.538,0-1.008,0.067-1.403,0.199s-0.728,0.318-0.996,0.558c-0.266,0.241-0.472,0.531-0.616,0.871
		c-0.143,0.339-0.232,0.718-0.269,1.138l-0.027,0.289c0.29-0.177,0.624-0.318,1-0.425c0.376-0.107,0.784-0.161,1.223-0.161
		c0.453,0,0.851,0.065,1.19,0.198c0.34,0.131,0.622,0.314,0.848,0.55c0.229,0.234,0.399,0.517,0.513,0.846s0.171,0.688,0.171,1.079
		C244.57,219.482,244.496,219.868,244.347,220.228z M318.541,220.663c-0.153,0.295-0.367,0.543-0.643,0.744s-0.602,0.354-0.976,0.46
		c-0.375,0.104-0.782,0.157-1.221,0.157c-0.483,0-0.908-0.056-1.275-0.164c-0.368-0.109-0.676-0.264-0.926-0.459
		c-0.248-0.197-0.435-0.432-0.562-0.7c-0.125-0.271-0.188-0.568-0.188-0.894c0-0.548,0.144-1.021,0.433-1.417
		c0.29-0.398,0.767-0.761,1.427-1.088c-0.609-0.297-1.041-0.629-1.295-0.995c-0.253-0.365-0.381-0.785-0.381-1.26
		c0-0.29,0.06-0.571,0.178-0.842c0.12-0.271,0.299-0.513,0.538-0.724c0.24-0.214,0.541-0.383,0.9-0.509
		c0.362-0.127,0.786-0.189,1.273-0.189c0.463,0,0.868,0.05,1.217,0.148c0.348,0.098,0.641,0.239,0.879,0.425
		c0.238,0.184,0.416,0.406,0.534,0.669s0.177,0.555,0.177,0.875c0,0.525-0.143,0.972-0.429,1.341
		c-0.284,0.368-0.698,0.689-1.24,0.965c0.265,0.134,0.507,0.282,0.726,0.442c0.22,0.158,0.409,0.338,0.571,0.535
		s0.287,0.416,0.376,0.658c0.091,0.242,0.137,0.513,0.137,0.809C318.771,220.031,318.694,220.369,318.541,220.663z M93.774,16.969
		c-0.279,0.268-0.65,0.42-1.039,0.42c-0.398,0-0.779-0.158-1.061-0.439c-0.103-0.103-0.183-0.223-0.251-0.349l-35.008-8.45
		c-0.249,0.171-0.544,0.266-0.85,0.266c-0.398,0-0.779-0.158-1.06-0.439c-0.282-0.281-0.44-0.663-0.44-1.061
		c0-0.397,0.158-0.779,0.44-1.06c0.281-0.282,0.662-0.44,1.06-0.44s0.78,0.158,1.061,0.44c0.103,0.103,0.183,0.223,0.251,0.348
		l35.01,8.45c0.249-0.171,0.543-0.266,0.849-0.266c0.398,0,0.779,0.158,1.061,0.44c0.048,0.048,0.087,0.103,0.128,0.156
		l34.956,2.931c0.277-0.261,0.643-0.41,1.026-0.41c0.397,0,0.779,0.158,1.06,0.439c0.053,0.053,0.098,0.113,0.142,0.173
		l34.959,3.406c0.275-0.252,0.633-0.397,1.009-0.397c0.398,0,0.78,0.158,1.061,0.439c0.053,0.054,0.098,0.114,0.142,0.173
		l34.958,3.406c0.275-0.252,0.634-0.397,1.01-0.397c0.398,0,0.779,0.158,1.061,0.439c0.045,0.045,0.082,0.097,0.121,0.147
		l34.947,2.625c0.278-0.271,0.652-0.424,1.042-0.424c0.397,0,0.779,0.158,1.06,0.439c0.083,0.083,0.151,0.176,0.212,0.274
		l34.984,6.298c0.261-0.202,0.58-0.319,0.914-0.319c0.398,0,0.78,0.158,1.062,0.439c0.074,0.074,0.138,0.156,0.194,0.243
		l34.972,5.379c0.267-0.217,0.597-0.343,0.943-0.343c0.398,0,0.779,0.158,1.061,0.439c0.052,0.052,0.095,0.11,0.139,0.169
		l34.956,3.205c0.276-0.256,0.638-0.403,1.016-0.403c0.397,0,0.779,0.158,1.061,0.44c0.281,0.281,0.439,0.663,0.439,1.06
		c0,0.398-0.158,0.78-0.439,1.061c-0.281,0.281-0.663,0.439-1.061,0.439s-0.779-0.158-1.061-0.439
		c-0.052-0.051-0.094-0.109-0.137-0.167l-34.958-3.208c-0.276,0.256-0.637,0.403-1.016,0.403c-0.397,0-0.779-0.158-1.061-0.44
		c-0.074-0.074-0.139-0.157-0.195-0.244l-34.422-5.293c0.001,0.022,0.007,0.043,0.007,0.065c0,0.31-0.099,0.608-0.273,0.859
		l36.666,157.45c0.122,0.067,0.238,0.146,0.339,0.246c0.078,0.078,0.145,0.166,0.203,0.258l34.979,5.826
		c0.264-0.209,0.589-0.331,0.929-0.331c0.397,0,0.779,0.158,1.061,0.439c0.281,0.28,0.439,0.663,0.439,1.061
		s-0.158,0.779-0.439,1.061c-0.281,0.28-0.663,0.439-1.061,0.439s-0.779-0.159-1.061-0.439c-0.078-0.078-0.145-0.166-0.203-0.258
		l-34.979-5.825c-0.264,0.209-0.588,0.331-0.929,0.331c-0.397,0-0.779-0.158-1.061-0.439c-0.281-0.282-0.439-0.663-0.439-1.061
		c0-0.311,0.099-0.608,0.273-0.858L277.867,38.341c-0.122-0.067-0.238-0.146-0.338-0.246c-0.07-0.071-0.134-0.147-0.188-0.229
		l-34.968-5.005c-0.268,0.224-0.603,0.354-0.954,0.354c-0.397,0-0.78-0.159-1.061-0.44c-0.059-0.058-0.108-0.124-0.155-0.189
		l-34.963-3.883c-0.273,0.243-0.623,0.384-0.992,0.384c-0.398,0-0.78-0.158-1.061-0.44c-0.057-0.057-0.105-0.121-0.152-0.186
		l-34.962-3.779c-0.274,0.246-0.626,0.387-0.996,0.387c-0.398,0-0.779-0.158-1.06-0.44c-0.048-0.047-0.086-0.102-0.127-0.154
		l-34.956-2.863c-0.278,0.263-0.645,0.413-1.027,0.413c-0.398,0-0.78-0.158-1.061-0.439c-0.034-0.034-0.061-0.074-0.091-0.111
		L93.819,19.96c-0.008,0.008-0.014,0.019-0.022,0.027c-0.282,0.281-0.663,0.439-1.061,0.439s-0.779-0.158-1.061-0.439
		c-0.093-0.094-0.167-0.201-0.232-0.314l-34.998-7.443c-0.254,0.185-0.561,0.291-0.879,0.291c-0.398,0-0.779-0.158-1.06-0.44
		c-0.282-0.281-0.44-0.663-0.44-1.06c0-0.398,0.158-0.78,0.44-1.061c0.281-0.281,0.662-0.439,1.06-0.439s0.78,0.158,1.061,0.439
		c0.094,0.094,0.168,0.201,0.233,0.314l34.998,7.443c0.255-0.185,0.56-0.291,0.879-0.291c0.398,0,0.779,0.158,1.061,0.439
		c0.034,0.034,0.059,0.073,0.089,0.109l24.177,1.039L93.774,16.969z M18.295,0.216h0.2v2.316h2.304v0.2h-2.304v7.439h2.304v0.2
		h-2.304v7.439h3.907v0.2h-3.907v7.438h2.304v0.2h-2.304v7.439h2.304v0.2h-2.304v7.439h2.304v0.2h-2.304v7.438h2.304v0.2h-2.304
		v7.439h3.907v0.2h-3.907v7.439h2.304v0.2h-2.304v7.438h2.304v0.2h-2.304v7.439h2.304v0.2h-2.304v7.439h2.304v0.2h-2.304V94.2h3.907
		v0.2h-3.907v7.438h2.304v0.2h-2.304v7.439h2.304v0.2h-2.304v7.439h2.304v0.199h-2.304v7.44h2.304v0.199h-2.304v7.439h3.907v0.199
		h-3.907v7.439h2.304v0.199h-2.304v7.44h2.304v0.199h-2.304v7.439h2.304v0.199h-2.304v7.439h2.304v0.199h-2.304v7.44h3.907v0.199
		h-3.907v7.439h2.304v0.199h-2.304v7.439h2.304v0.199h-2.304v7.44h2.304v0.199h-2.304v7.439h2.304v0.199h-2.304v3.532v3.907h3.907
		H36.88v-2.304h0.2v2.304h18.385v-2.304h0.2v2.304h18.386v-2.304h0.2v2.304h18.385v-3.907h0.2v3.907h18.385v-2.304h0.2v2.304h18.386
		v-2.304h0.2v2.304h18.385v-2.304h0.2v2.304h18.385v-3.907h0.2v3.907h18.386v-2.304h0.199v2.304h18.386v-2.304h0.199v2.304h18.386
		v-2.304h0.199v2.304h18.387v-3.907h0.199v3.907h18.386v-2.304h0.199v2.304h18.386v-2.161c-0.36-0.024-0.703-0.172-0.96-0.429
		c-0.058-0.057-0.105-0.121-0.152-0.186l-34.945-3.733c-0.275,0.254-0.636,0.4-1.013,0.4c-0.397,0-0.78-0.158-1.061-0.438
		c-0.116-0.116-0.206-0.253-0.277-0.397l-35.029-9.789c-0.239,0.151-0.516,0.236-0.804,0.236c-0.398,0-0.78-0.158-1.061-0.439
		c-0.281-0.28-0.439-0.663-0.439-1.061c0-0.128,0.021-0.251,0.053-0.373l-35.943-54.229c-0.316-0.047-0.612-0.189-0.841-0.419
		c-0.059-0.059-0.109-0.123-0.156-0.189l-34.962-3.909c-0.273,0.242-0.624,0.383-0.991,0.383c-0.398,0-0.78-0.158-1.061-0.438
		c-0.053-0.054-0.098-0.113-0.142-0.174l-34.958-3.402c-0.276,0.253-0.634,0.397-1.01,0.397c-0.398,0-0.779-0.157-1.061-0.438
		c-0.065-0.065-0.123-0.138-0.174-0.213l-34.963-4.496c-0.271,0.231-0.613,0.366-0.972,0.366c-0.398,0-0.779-0.158-1.06-0.439
		c-0.282-0.281-0.44-0.663-0.44-1.061c0-0.398,0.158-0.779,0.44-1.061c0.281-0.282,0.662-0.439,1.06-0.439s0.78,0.157,1.061,0.439
		c0.065,0.065,0.122,0.137,0.173,0.211l34.965,4.497c0.271-0.231,0.612-0.366,0.972-0.366c0.398,0,0.779,0.158,1.061,0.439
		c0.053,0.054,0.098,0.113,0.142,0.173l34.96,3.402c0.275-0.253,0.633-0.397,1.009-0.397c0.397,0,0.779,0.158,1.06,0.44
		c0.059,0.059,0.108,0.123,0.156,0.189l34.962,3.91c0.273-0.243,0.624-0.384,0.993-0.384c0.398,0,0.78,0.158,1.061,0.438
		c0.281,0.281,0.439,0.663,0.439,1.062c0,0.127-0.022,0.251-0.053,0.373l35.945,54.229c0.315,0.048,0.611,0.189,0.84,0.418
		c0.116,0.116,0.205,0.252,0.276,0.396l35.03,9.791c0.238-0.152,0.517-0.237,0.804-0.237c0.397,0,0.779,0.158,1.06,0.44
		c0.057,0.057,0.104,0.119,0.15,0.183l34.964,3.722c0.273-0.246,0.626-0.388,0.996-0.388c0.398,0,0.78,0.158,1.062,0.44
		c0.28,0.28,0.438,0.662,0.438,1.06c0,0.398-0.158,0.78-0.438,1.062c-0.258,0.257-0.601,0.404-0.962,0.429v2.161h18.387v-2.304
		h0.199v2.304h18.386v-3.907h0.199v3.907h18.386v-2.304h0.199v2.304h18.387v-2.304h0.199v2.304h6.87v0.199H22.402h-3.907v6.602h-0.2
		v-6.602h-6.87v-0.199h6.87v-3.907V0.216z M8.47,14.549c0.14-0.57,0.349-1.058,0.626-1.464c0.278-0.407,0.626-0.721,1.043-0.942
		c0.417-0.222,0.904-0.333,1.459-0.333c0.481,0,0.919,0.09,1.313,0.271c0.393,0.181,0.73,0.461,1.01,0.84
		c0.282,0.379,0.498,0.86,0.648,1.442c0.151,0.582,0.227,1.272,0.227,2.071c0,0.687-0.069,1.314-0.208,1.882
		c-0.137,0.565-0.345,1.052-0.625,1.459c-0.28,0.407-0.628,0.721-1.044,0.943c-0.414,0.221-0.901,0.332-1.461,0.332
		c-0.481,0-0.919-0.09-1.312-0.271c-0.394-0.181-0.732-0.46-1.013-0.836c-0.28-0.376-0.496-0.855-0.648-1.437
		c-0.15-0.583-0.225-1.274-0.225-2.072C8.26,15.746,8.33,15.118,8.47,14.549z M8.47,52.744c0.14-0.57,0.349-1.058,0.626-1.464
		c0.278-0.407,0.626-0.721,1.043-0.942c0.417-0.222,0.904-0.333,1.459-0.333c0.481,0,0.919,0.09,1.313,0.271
		c0.393,0.181,0.73,0.461,1.01,0.84c0.282,0.379,0.498,0.86,0.648,1.442c0.151,0.582,0.227,1.272,0.227,2.071
		c0,0.687-0.069,1.314-0.208,1.882c-0.137,0.565-0.345,1.052-0.625,1.459c-0.28,0.407-0.628,0.721-1.044,0.943
		c-0.414,0.221-0.901,0.332-1.461,0.332c-0.481,0-0.919-0.09-1.312-0.271c-0.394-0.181-0.732-0.46-1.013-0.836
		c-0.28-0.376-0.496-0.855-0.648-1.437c-0.15-0.583-0.225-1.274-0.225-2.072C8.26,53.941,8.33,53.313,8.47,52.744z M8.47,90.939
		c0.14-0.57,0.349-1.058,0.626-1.464c0.278-0.407,0.626-0.721,1.043-0.943c0.417-0.221,0.904-0.332,1.459-0.332
		c0.481,0,0.919,0.09,1.313,0.271c0.393,0.181,0.73,0.461,1.01,0.84c0.282,0.379,0.498,0.86,0.648,1.442
		c0.151,0.582,0.227,1.272,0.227,2.071c0,0.687-0.069,1.314-0.208,1.882c-0.137,0.565-0.345,1.052-0.625,1.459
		c-0.28,0.407-0.628,0.721-1.044,0.943c-0.414,0.221-0.901,0.332-1.461,0.332c-0.481,0-0.919-0.09-1.312-0.271
		c-0.394-0.181-0.732-0.46-1.013-0.836c-0.28-0.376-0.496-0.855-0.648-1.437c-0.15-0.583-0.225-1.274-0.225-2.072
		C8.26,92.136,8.33,91.508,8.47,90.939z M8.47,129.133c0.14-0.569,0.349-1.058,0.626-1.464c0.278-0.407,0.626-0.721,1.043-0.942
		s0.904-0.333,1.459-0.333c0.481,0,0.919,0.091,1.313,0.271c0.393,0.181,0.73,0.461,1.01,0.84c0.282,0.379,0.498,0.86,0.648,1.442
		c0.151,0.582,0.227,1.271,0.227,2.07c0,0.688-0.069,1.314-0.208,1.883c-0.137,0.564-0.345,1.052-0.625,1.459
		c-0.28,0.406-0.628,0.721-1.044,0.942c-0.414,0.222-0.901,0.332-1.461,0.332c-0.481,0-0.919-0.09-1.312-0.271
		c-0.394-0.182-0.732-0.46-1.013-0.836c-0.28-0.376-0.496-0.855-0.648-1.438c-0.15-0.583-0.225-1.273-0.225-2.072
		C8.26,130.33,8.33,129.702,8.47,129.133z M8.47,167.328c0.14-0.57,0.349-1.059,0.626-1.464c0.278-0.407,0.626-0.722,1.043-0.943
		c0.417-0.221,0.904-0.332,1.459-0.332c0.481,0,0.919,0.09,1.313,0.271c0.393,0.181,0.73,0.461,1.01,0.84
		c0.282,0.379,0.498,0.859,0.648,1.441c0.151,0.582,0.227,1.272,0.227,2.071c0,0.688-0.069,1.314-0.208,1.882
		c-0.137,0.565-0.345,1.053-0.625,1.459c-0.28,0.407-0.628,0.722-1.044,0.942c-0.414,0.222-0.901,0.333-1.461,0.333
		c-0.481,0-0.919-0.09-1.312-0.271c-0.394-0.181-0.732-0.46-1.013-0.836c-0.28-0.376-0.496-0.854-0.648-1.437
		c-0.15-0.583-0.225-1.274-0.225-2.072C8.26,168.525,8.33,167.897,8.47,167.328z M1.26,19.873c0.235,0.058,0.512,0.101,0.831,0.129
		c0.321,0.028,0.646,0.042,0.974,0.042c0.369,0,0.7-0.043,0.995-0.129c0.296-0.088,0.548-0.213,0.755-0.377
		c0.208-0.163,0.368-0.36,0.479-0.59c0.111-0.231,0.166-0.49,0.166-0.779c0-0.557-0.203-0.962-0.608-1.216
		c-0.406-0.255-0.988-0.383-1.748-0.383H1.4v-4.506h4.81v1.006H2.52v2.494h0.792c0.436,0,0.854,0.038,1.253,0.116
		c0.4,0.076,0.756,0.21,1.068,0.404c0.313,0.193,0.566,0.452,0.757,0.777c0.191,0.324,0.286,0.731,0.286,1.221
		c0,0.44-0.095,0.842-0.286,1.205c-0.19,0.363-0.452,0.675-0.786,0.936c-0.332,0.261-0.725,0.465-1.179,0.61
		c-0.452,0.145-0.94,0.217-1.465,0.217c-0.132,0-0.273,0-0.425,0c-0.151,0-0.302,0-0.452,0c-0.151,0-0.297-0.009-0.44-0.028
		c-0.142-0.019-0.269-0.042-0.383-0.068V19.873z M0.28,56.139l3.843-5.924h1.713v5.924H7.28v1.006H5.836v1.98H4.62v-1.98H0.28
		V56.139z"/>
	<path fill="#FFFFFF" d="M13.317,14.407c-0.068-0.235-0.156-0.449-0.262-0.641c-0.106-0.194-0.233-0.361-0.381-0.501
		c-0.145-0.142-0.313-0.252-0.503-0.331c-0.188-0.078-0.399-0.118-0.634-0.118c-0.312,0-0.596,0.077-0.851,0.23
		c-0.255,0.152-0.473,0.378-0.652,0.68c-0.179,0.302-0.317,0.675-0.413,1.12c-0.097,0.445-0.145,0.96-0.145,1.545
		c0,0.143,0,0.285,0,0.428s0.01,0.282,0.029,0.416L13.317,14.407z"/>
	<path fill="#FFFFFF" d="M9.993,19.064c0.104,0.201,0.231,0.375,0.378,0.52c0.149,0.145,0.318,0.258,0.507,0.339
		c0.191,0.081,0.408,0.121,0.65,0.121c0.312,0,0.595-0.076,0.849-0.228c0.254-0.153,0.469-0.379,0.647-0.678
		c0.18-0.3,0.317-0.673,0.412-1.118c0.096-0.444,0.144-0.96,0.144-1.546c0-0.156,0-0.312,0-0.466c0-0.155-0.012-0.306-0.035-0.453
		l-3.813,2.844C9.801,18.639,9.888,18.861,9.993,19.064z"/>
	<polygon fill="#FFFFFF" points="167.849,218.918 167.849,214.145 164.71,218.918 	"/>
	<path fill="#FFFFFF" d="M13.317,90.797c-0.068-0.235-0.156-0.449-0.262-0.641c-0.106-0.194-0.233-0.361-0.381-0.501
		c-0.145-0.142-0.313-0.252-0.503-0.331c-0.188-0.078-0.399-0.118-0.634-0.118c-0.312,0-0.596,0.077-0.851,0.23
		c-0.255,0.152-0.473,0.378-0.652,0.68c-0.179,0.302-0.317,0.675-0.413,1.12c-0.097,0.445-0.145,0.96-0.145,1.545
		c0,0.143,0,0.285,0,0.428s0.01,0.282,0.029,0.416L13.317,90.797z"/>
	<path fill="#FFFFFF" d="M9.993,57.259c0.104,0.201,0.231,0.375,0.378,0.52c0.149,0.145,0.318,0.258,0.507,0.339
		c0.191,0.081,0.408,0.121,0.65,0.121c0.312,0,0.595-0.076,0.849-0.228c0.254-0.153,0.469-0.379,0.647-0.678
		c0.18-0.3,0.317-0.673,0.412-1.118c0.096-0.444,0.144-0.96,0.144-1.546c0-0.156,0-0.312,0-0.466c0-0.155-0.012-0.306-0.035-0.453
		l-3.813,2.844C9.801,56.834,9.888,57.056,9.993,57.259z"/>
	<polygon fill="#FFFFFF" points="4.62,51.366 1.481,56.139 4.62,56.139 	"/>
	<path fill="#FFFFFF" d="M13.317,167.186c-0.068-0.234-0.156-0.448-0.262-0.641c-0.106-0.194-0.233-0.361-0.381-0.501
		c-0.145-0.142-0.313-0.252-0.503-0.331c-0.188-0.078-0.399-0.118-0.634-0.118c-0.312,0-0.596,0.077-0.851,0.23
		c-0.255,0.151-0.473,0.378-0.652,0.68c-0.179,0.302-0.317,0.675-0.413,1.12c-0.097,0.445-0.145,0.96-0.145,1.545
		c0,0.144,0,0.285,0,0.428c0,0.144,0.01,0.282,0.029,0.416L13.317,167.186z"/>
	<path fill="#FFFFFF" d="M317.174,218.78c-0.143-0.156-0.335-0.312-0.575-0.469c-0.24-0.155-0.546-0.316-0.917-0.483
		c-0.321,0.154-0.593,0.304-0.811,0.453c-0.219,0.148-0.396,0.301-0.532,0.455c-0.134,0.152-0.229,0.312-0.286,0.477
		s-0.086,0.34-0.086,0.525c0,0.206,0.045,0.388,0.136,0.547c0.093,0.157,0.218,0.292,0.376,0.401c0.159,0.111,0.35,0.194,0.569,0.25
		c0.22,0.055,0.458,0.081,0.713,0.081c0.248,0,0.482-0.024,0.702-0.074c0.22-0.052,0.411-0.128,0.571-0.231
		c0.161-0.104,0.287-0.235,0.381-0.392c0.093-0.159,0.14-0.35,0.14-0.569c0-0.17-0.027-0.336-0.083-0.496
		C317.416,219.094,317.317,218.936,317.174,218.78z"/>
	<path fill="#FFFFFF" d="M240.757,30.375c-0.146-0.072-0.282-0.161-0.398-0.278c-0.045-0.045-0.082-0.097-0.12-0.147l-17.368-1.303
		l17.556,1.95C240.526,30.508,240.638,30.434,240.757,30.375z"/>
	<path fill="#FFFFFF" d="M242.667,30.883l16.426,2.351l-16.76-3.017c-0.079,0.061-0.163,0.114-0.253,0.158
		c0.146,0.072,0.282,0.161,0.398,0.278C242.549,30.724,242.612,30.801,242.667,30.883z"/>
	<path fill="#FFFFFF" d="M13.317,128.991c-0.068-0.235-0.156-0.449-0.262-0.642c-0.106-0.193-0.233-0.36-0.381-0.501
		c-0.145-0.142-0.313-0.252-0.503-0.331c-0.188-0.077-0.399-0.117-0.634-0.117c-0.312,0-0.596,0.076-0.851,0.229
		c-0.255,0.152-0.473,0.378-0.652,0.68c-0.179,0.303-0.317,0.676-0.413,1.12c-0.097,0.445-0.145,0.96-0.145,1.545
		c0,0.144,0,0.285,0,0.429c0,0.143,0.01,0.281,0.029,0.416L13.317,128.991z"/>
	<path fill="#FFFFFF" d="M9.993,133.648c0.104,0.2,0.231,0.375,0.378,0.52c0.149,0.146,0.318,0.258,0.507,0.339
		c0.191,0.081,0.408,0.121,0.65,0.121c0.312,0,0.595-0.076,0.849-0.228c0.254-0.153,0.469-0.379,0.647-0.679
		c0.18-0.3,0.317-0.673,0.412-1.118c0.096-0.443,0.144-0.96,0.144-1.546c0-0.155,0-0.312,0-0.466c0-0.155-0.012-0.306-0.035-0.453
		l-3.813,2.845C9.801,133.223,9.888,133.445,9.993,133.648z"/>
	<path fill="#FFFFFF" d="M9.993,171.843c0.104,0.201,0.231,0.375,0.378,0.521c0.149,0.145,0.318,0.258,0.507,0.339
		c0.191,0.081,0.408,0.121,0.65,0.121c0.312,0,0.595-0.076,0.849-0.229s0.469-0.379,0.647-0.678c0.18-0.3,0.317-0.673,0.412-1.118
		c0.096-0.443,0.144-0.96,0.144-1.546c0-0.156,0-0.312,0-0.466c0-0.155-0.012-0.306-0.035-0.453l-3.813,2.844
		C9.801,171.418,9.888,171.64,9.993,171.843z"/>
	<path fill="#FFFFFF" d="M315.883,216.684c0.519-0.242,0.902-0.497,1.153-0.761c0.253-0.264,0.379-0.571,0.379-0.921
		c0-0.408-0.143-0.712-0.429-0.912s-0.688-0.3-1.208-0.3c-0.514,0-0.912,0.099-1.198,0.298c-0.286,0.197-0.429,0.492-0.429,0.886
		c0,0.18,0.033,0.346,0.103,0.496c0.07,0.152,0.176,0.294,0.319,0.428c0.145,0.133,0.325,0.264,0.54,0.394
		C315.329,216.419,315.586,216.55,315.883,216.684z"/>
	<path fill="#FF0000" d="M128.846,129.49c0.016-0.017,0.036-0.027,0.052-0.043l-34.96-3.402c0.189,0.257,0.297,0.565,0.297,0.888
		c0,0.398-0.158,0.78-0.439,1.062c-0.016,0.016-0.034,0.026-0.051,0.041l34.958,3.402c-0.189-0.256-0.297-0.564-0.297-0.888
		C128.407,130.152,128.565,129.771,128.846,129.49z"/>
	<path fill="#FF0000" d="M91.675,125.872c0.027-0.027,0.06-0.048,0.089-0.073l-34.965-4.497c0.171,0.249,0.266,0.543,0.266,0.85
		c0,0.397-0.158,0.779-0.439,1.061c-0.027,0.027-0.06,0.048-0.089,0.073l34.963,4.496c-0.17-0.248-0.265-0.543-0.265-0.849
		C91.236,126.535,91.394,126.154,91.675,125.872z"/>
	<path fill="#FF0000" d="M166.017,133.645c0.021-0.021,0.045-0.036,0.067-0.055l-34.962-3.91c0.181,0.253,0.285,0.555,0.285,0.87
		c0,0.398-0.159,0.78-0.44,1.062c-0.021,0.021-0.046,0.036-0.068,0.056l34.962,3.909c-0.181-0.253-0.284-0.556-0.284-0.87
		C165.577,134.308,165.735,133.926,166.017,133.645z"/>
	<path fill="#FF0000" d="M240.358,200.116c0.078-0.078,0.165-0.145,0.257-0.203l-35.03-9.791c0.103,0.205,0.163,0.431,0.163,0.665
		c0,0.397-0.158,0.78-0.439,1.061c-0.078,0.078-0.165,0.145-0.257,0.203l35.029,9.789c-0.102-0.205-0.162-0.431-0.162-0.664
		C239.919,200.778,240.077,200.397,240.358,200.116z"/>
	<path fill="#FF0000" d="M277.529,204.073c0.02-0.02,0.043-0.034,0.063-0.053l-34.964-3.722c0.185,0.255,0.29,0.559,0.29,0.877
		c0,0.398-0.159,0.78-0.44,1.062c-0.015,0.015-0.032,0.024-0.047,0.038l34.945,3.733c-0.184-0.254-0.288-0.559-0.288-0.876
		C277.089,204.735,277.247,204.354,277.529,204.073z"/>
	<path fill="#FF0000" d="M204.248,189.287c0.074,0,0.147,0.011,0.221,0.021l-35.945-54.229c-0.066,0.257-0.195,0.496-0.386,0.687
		c-0.281,0.282-0.663,0.44-1.061,0.44c-0.074,0-0.147-0.011-0.219-0.021l35.943,54.229c0.066-0.257,0.195-0.496,0.387-0.688
		C203.468,189.445,203.85,189.287,204.248,189.287z"/>
	<path fill="#00FF00" d="M91.675,17.865c0.056-0.056,0.119-0.103,0.182-0.149l-34.998-7.443c0.13,0.226,0.206,0.481,0.206,0.747
		c0,0.397-0.158,0.779-0.439,1.06c-0.056,0.056-0.118,0.103-0.182,0.149l34.998,7.443c-0.13-0.226-0.207-0.481-0.207-0.747
		C91.236,18.528,91.394,18.147,91.675,17.865z"/>
	<path fill="#00FF00" d="M94.236,18.926c0,0.387-0.151,0.755-0.417,1.034l34.936,1.512c-0.22-0.268-0.348-0.601-0.348-0.95
		c0-0.219,0.052-0.432,0.143-0.627l-10.486-0.882l-24.177-1.039C94.107,18.242,94.236,18.575,94.236,18.926z"/>
	<path fill="#00FF00" d="M316.82,197.711c-0.041,0.041-0.087,0.072-0.132,0.108l34.979,5.825c-0.151-0.238-0.236-0.516-0.236-0.803
		c0-0.397,0.158-0.78,0.439-1.061c0.04-0.041,0.087-0.072,0.132-0.108l-34.979-5.826c0.151,0.239,0.236,0.517,0.236,0.804
		C317.26,197.048,317.102,197.429,316.82,197.711z"/>
	<path fill="#00FF00" d="M278.589,38.534c-0.256,0-0.502-0.072-0.722-0.193l36.666,157.451c0.05-0.071,0.104-0.141,0.166-0.203
		c0.281-0.281,0.663-0.438,1.061-0.438c0.256,0,0.502,0.071,0.722,0.192l-36.666-157.45c-0.05,0.071-0.104,0.14-0.165,0.202
		C279.369,38.376,278.987,38.534,278.589,38.534z"/>
	<path fill="#00FF00" d="M277.193,36.493l-18.101-3.259l-16.426-2.351c0.163,0.245,0.252,0.533,0.252,0.831
		c0,0.397-0.159,0.779-0.44,1.06c-0.032,0.033-0.07,0.057-0.105,0.086l34.968,5.005c-0.163-0.245-0.252-0.533-0.252-0.832
		C277.089,36.847,277.127,36.664,277.193,36.493z"/>
	<path fill="#00FF00" d="M240.358,30.653c0.021-0.021,0.046-0.036,0.067-0.055l-17.556-1.95l-17.145-1.286
		c0.012,0.074,0.022,0.147,0.022,0.223c0,0.397-0.158,0.779-0.439,1.06c-0.021,0.021-0.046,0.037-0.068,0.056l34.963,3.883
		c-0.182-0.253-0.284-0.556-0.284-0.871C239.919,31.316,240.077,30.934,240.358,30.653z"/>
	<path fill="#00FF00" d="M165.585,23.486l-34.23-3.334c0.031,0.121,0.053,0.244,0.053,0.371c0,0.398-0.159,0.78-0.44,1.061
		c-0.01,0.01-0.022,0.017-0.032,0.026l34.956,2.863c-0.199-0.26-0.313-0.576-0.313-0.906
		C165.577,23.54,165.583,23.513,165.585,23.486z"/>
	<path fill="#00FF00" d="M202.831,27.114l-34.274-3.339c-0.045,0.32-0.188,0.621-0.418,0.852c-0.02,0.02-0.044,0.035-0.065,0.053
		l34.962,3.779c-0.183-0.254-0.287-0.558-0.287-0.875C202.748,27.423,202.78,27.266,202.831,27.114z"/>
	<path fill="#0000FF" d="M242.479,30.097c-0.045,0.045-0.096,0.081-0.146,0.12l16.76,3.017l18.101,3.259
		c0.015-0.039,0.034-0.075,0.053-0.112c-0.1-0.202-0.157-0.423-0.157-0.653c0-0.398,0.158-0.78,0.44-1.061
		c0.045-0.045,0.096-0.081,0.146-0.12l-34.984-6.298c0.146,0.235,0.229,0.506,0.229,0.787
		C242.919,29.434,242.76,29.815,242.479,30.097z"/>
	<path fill="#0000FF" d="M279.933,36.381c0.089,0.183,0.141,0.382,0.149,0.588l34.422,5.293c-0.157-0.241-0.244-0.524-0.244-0.816
		c0-0.398,0.158-0.78,0.439-1.061c0.036-0.036,0.078-0.064,0.117-0.096l-34.972-5.379c0.157,0.242,0.244,0.525,0.244,0.818
		C280.089,35.958,280.031,36.179,279.933,36.381z"/>
	<path fill="#0000FF" d="M131.194,19.764c0.072,0.122,0.125,0.251,0.161,0.387l34.23,3.334c0.007-0.133,0.033-0.264,0.075-0.389
		c-0.05-0.151-0.083-0.308-0.083-0.47c0-0.398,0.158-0.779,0.44-1.061c0.016-0.016,0.035-0.027,0.051-0.042l-34.959-3.406
		c0.189,0.257,0.298,0.565,0.298,0.888C131.407,19.276,131.329,19.536,131.194,19.764z"/>
	<path fill="#0000FF" d="M205.583,26.916c0.07,0.141,0.119,0.29,0.143,0.446l17.145,1.286l17.368,1.303
		c-0.202-0.262-0.319-0.58-0.319-0.914c0-0.398,0.158-0.779,0.439-1.061c0.006-0.005,0.013-0.009,0.019-0.015l-34.947-2.625
		c0.201,0.261,0.318,0.58,0.318,0.914C205.748,26.483,205.687,26.71,205.583,26.916z"/>
	<path fill="#0000FF" d="M91.675,14.829c0.065-0.065,0.137-0.122,0.212-0.174l-35.01-8.45c0.118,0.218,0.188,0.46,0.188,0.712
		c0,0.398-0.158,0.78-0.439,1.061C56.561,8.043,56.49,8.1,56.415,8.151l35.008,8.45c-0.118-0.217-0.188-0.46-0.188-0.712
		C91.236,15.492,91.394,15.11,91.675,14.829z"/>
	<path fill="#0000FF" d="M168.495,23.097c0.05,0.151,0.083,0.308,0.083,0.47c0,0.07-0.011,0.14-0.021,0.208l34.274,3.339
		c0.022-0.068,0.05-0.134,0.082-0.198c-0.104-0.206-0.165-0.433-0.165-0.668c0-0.398,0.158-0.78,0.439-1.061
		c0.016-0.016,0.035-0.027,0.051-0.042l-34.958-3.406c0.189,0.257,0.297,0.565,0.297,0.888
		C168.577,22.789,168.544,22.946,168.495,23.097z"/>
	<path fill="#0000FF" d="M316.82,42.506c-0.014,0.014-0.031,0.024-0.045,0.037l34.958,3.208c-0.192-0.257-0.303-0.569-0.303-0.895
		c0-0.397,0.158-0.779,0.439-1.06c0.014-0.014,0.03-0.024,0.045-0.037l-34.956-3.205c0.191,0.257,0.301,0.567,0.301,0.892
		C317.26,41.843,317.102,42.225,316.82,42.506z"/>
	<path fill="#0000FF" d="M128.62,19.764c-0.135-0.229-0.212-0.488-0.212-0.758c0-0.398,0.158-0.779,0.439-1.061
		c0.011-0.011,0.024-0.018,0.035-0.029l-34.956-2.931c0.197,0.259,0.311,0.575,0.311,0.904c0,0.398-0.158,0.78-0.439,1.061
		c-0.007,0.007-0.016,0.012-0.022,0.019l24.289,2.044l10.486,0.882C128.571,19.85,128.594,19.807,128.62,19.764z"/>
	<path d="M57.065,122.151c0-0.307-0.095-0.601-0.266-0.85c-0.051-0.074-0.108-0.146-0.173-0.211
		c-0.281-0.282-0.663-0.439-1.061-0.439s-0.779,0.157-1.06,0.439c-0.282,0.281-0.44,0.662-0.44,1.061
		c0,0.397,0.158,0.779,0.44,1.061c0.281,0.281,0.662,0.439,1.06,0.439c0.359,0,0.702-0.135,0.972-0.366
		c0.029-0.025,0.062-0.046,0.089-0.073C56.907,122.931,57.065,122.549,57.065,122.151z"/>
	<path d="M94.236,126.933c0-0.322-0.108-0.631-0.297-0.888c-0.044-0.06-0.088-0.119-0.142-0.173
		c-0.282-0.281-0.663-0.439-1.061-0.439c-0.359,0-0.701,0.135-0.972,0.366c-0.029,0.025-0.062,0.046-0.089,0.073
		c-0.281,0.282-0.439,0.663-0.439,1.061c0,0.306,0.095,0.601,0.265,0.849c0.052,0.075,0.109,0.147,0.174,0.213
		c0.282,0.281,0.663,0.438,1.061,0.438c0.376,0,0.734-0.145,1.01-0.397c0.017-0.015,0.035-0.025,0.051-0.041
		C94.078,127.713,94.236,127.331,94.236,126.933z"/>
	<path d="M131.407,130.55c0-0.315-0.104-0.617-0.285-0.87c-0.048-0.066-0.097-0.131-0.156-0.189c-0.281-0.282-0.663-0.44-1.06-0.44
		c-0.375,0-0.733,0.145-1.009,0.397c-0.017,0.016-0.036,0.026-0.052,0.043c-0.281,0.281-0.439,0.662-0.439,1.06
		c0,0.323,0.108,0.632,0.297,0.888c0.044,0.061,0.089,0.12,0.142,0.174c0.281,0.28,0.663,0.438,1.061,0.438
		c0.367,0,0.718-0.141,0.991-0.383c0.022-0.02,0.047-0.034,0.068-0.056C131.248,131.33,131.407,130.948,131.407,130.55z"/>
	<path d="M168.138,135.766c0.191-0.19,0.319-0.43,0.386-0.687c0.031-0.122,0.053-0.246,0.053-0.373c0-0.398-0.158-0.78-0.439-1.062
		c-0.281-0.28-0.663-0.438-1.061-0.438c-0.369,0-0.719,0.141-0.993,0.384c-0.022,0.019-0.046,0.034-0.067,0.055
		c-0.282,0.281-0.44,0.663-0.44,1.062c0,0.314,0.103,0.617,0.284,0.87c0.047,0.066,0.098,0.131,0.156,0.189
		c0.229,0.229,0.524,0.372,0.841,0.419c0.072,0.011,0.145,0.021,0.219,0.021C167.475,136.206,167.857,136.048,168.138,135.766z"/>
	<path d="M205.748,190.787c0-0.234-0.061-0.46-0.163-0.665c-0.071-0.144-0.16-0.279-0.276-0.396c-0.229-0.229-0.524-0.37-0.84-0.418
		c-0.073-0.011-0.146-0.021-0.221-0.021c-0.398,0-0.78,0.158-1.061,0.439c-0.191,0.191-0.32,0.431-0.387,0.688
		c-0.031,0.122-0.053,0.245-0.053,0.373c0,0.397,0.158,0.78,0.439,1.061c0.28,0.281,0.662,0.439,1.061,0.439
		c0.288,0,0.564-0.085,0.804-0.236c0.092-0.059,0.179-0.125,0.257-0.203C205.59,191.567,205.748,191.185,205.748,190.787z"/>
	<path d="M242.919,201.176c0-0.318-0.105-0.622-0.29-0.877c-0.047-0.063-0.094-0.126-0.15-0.183c-0.28-0.282-0.662-0.44-1.06-0.44
		c-0.287,0-0.565,0.085-0.804,0.237c-0.092,0.059-0.179,0.125-0.257,0.203c-0.281,0.281-0.439,0.662-0.439,1.06
		c0,0.233,0.061,0.459,0.162,0.664c0.071,0.145,0.161,0.281,0.277,0.397c0.28,0.28,0.663,0.438,1.061,0.438
		c0.377,0,0.737-0.146,1.013-0.4c0.015-0.014,0.032-0.023,0.047-0.038C242.76,201.956,242.919,201.574,242.919,201.176z"/>
	<path d="M278.688,206.48v0.143c0.361-0.024,0.704-0.172,0.962-0.429c0.28-0.281,0.438-0.663,0.438-1.062
		c0-0.397-0.158-0.779-0.438-1.06c-0.281-0.282-0.663-0.44-1.062-0.44c-0.37,0-0.723,0.142-0.996,0.388
		c-0.021,0.019-0.044,0.033-0.063,0.053c-0.282,0.28-0.44,0.662-0.44,1.06c0,0.317,0.104,0.622,0.288,0.876
		c0.047,0.064,0.095,0.129,0.152,0.186c0.257,0.257,0.6,0.404,0.96,0.429v-0.143H278.688z"/>
	<path d="M57.065,11.02c0-0.266-0.076-0.521-0.206-0.747c-0.065-0.113-0.139-0.22-0.233-0.314c-0.281-0.281-0.663-0.439-1.061-0.439
		s-0.779,0.158-1.06,0.439c-0.282,0.281-0.44,0.663-0.44,1.061c0,0.397,0.158,0.779,0.44,1.06c0.281,0.282,0.662,0.44,1.06,0.44
		c0.319,0,0.625-0.105,0.879-0.291c0.063-0.046,0.126-0.093,0.182-0.149C56.907,11.799,57.065,11.417,57.065,11.02z"/>
	<path d="M93.886,17.974c-0.03-0.036-0.056-0.075-0.089-0.109c-0.282-0.281-0.663-0.439-1.061-0.439
		c-0.319,0-0.624,0.105-0.879,0.291c-0.063,0.046-0.126,0.093-0.182,0.149c-0.281,0.282-0.439,0.663-0.439,1.061
		c0,0.266,0.076,0.521,0.207,0.747c0.065,0.113,0.139,0.22,0.232,0.314c0.282,0.281,0.663,0.439,1.061,0.439
		s0.779-0.158,1.061-0.439c0.008-0.008,0.014-0.019,0.022-0.027c0.266-0.279,0.417-0.647,0.417-1.034
		C94.236,18.575,94.107,18.242,93.886,17.974z"/>
	<path d="M131.407,20.522c0-0.126-0.021-0.25-0.053-0.371c-0.035-0.136-0.089-0.266-0.161-0.387
		c-0.064,0.108-0.137,0.212-0.227,0.303c-0.281,0.281-0.663,0.439-1.06,0.439c-0.398,0-0.78-0.158-1.061-0.439
		c-0.09-0.09-0.163-0.194-0.227-0.303c-0.025,0.043-0.049,0.086-0.07,0.131c-0.09,0.195-0.143,0.408-0.143,0.627
		c0,0.35,0.128,0.683,0.348,0.95c0.03,0.037,0.057,0.077,0.091,0.111c0.281,0.281,0.663,0.439,1.061,0.439
		c0.383,0,0.75-0.15,1.027-0.413c0.01-0.01,0.022-0.017,0.032-0.026C131.248,21.302,131.407,20.92,131.407,20.522z"/>
	<path d="M168.557,23.775c0.01-0.069,0.021-0.138,0.021-0.208c0-0.162-0.033-0.319-0.083-0.47c-0.073,0.22-0.19,0.424-0.356,0.591
		c-0.281,0.281-0.663,0.439-1.061,0.439s-0.779-0.158-1.06-0.439c-0.167-0.167-0.285-0.371-0.357-0.591
		c-0.042,0.125-0.067,0.256-0.075,0.389c-0.001,0.027-0.008,0.054-0.008,0.081c0,0.33,0.114,0.646,0.313,0.906
		c0.041,0.053,0.079,0.107,0.127,0.154c0.281,0.282,0.662,0.44,1.06,0.44c0.37,0,0.722-0.141,0.996-0.387
		c0.021-0.019,0.045-0.033,0.065-0.053C168.369,24.396,168.511,24.096,168.557,23.775z"/>
	<path d="M205.748,27.585c0-0.076-0.011-0.149-0.022-0.223c-0.023-0.156-0.072-0.305-0.143-0.446
		c-0.071,0.143-0.159,0.277-0.274,0.392c-0.281,0.282-0.662,0.44-1.061,0.44s-0.78-0.158-1.061-0.44
		c-0.115-0.115-0.203-0.25-0.274-0.392c-0.032,0.064-0.06,0.13-0.082,0.198c-0.051,0.151-0.083,0.309-0.083,0.471
		c0,0.316,0.104,0.621,0.287,0.875c0.047,0.065,0.096,0.128,0.152,0.186c0.28,0.282,0.662,0.44,1.061,0.44
		c0.369,0,0.719-0.141,0.992-0.384c0.022-0.02,0.047-0.035,0.068-0.056C205.59,28.364,205.748,27.982,205.748,27.585z"/>
	<path d="M242.919,31.714c0-0.298-0.089-0.586-0.252-0.831c-0.055-0.082-0.118-0.159-0.188-0.23
		c-0.116-0.117-0.253-0.206-0.398-0.278c-0.204,0.101-0.429,0.161-0.661,0.161s-0.457-0.06-0.662-0.161
		c-0.119,0.059-0.23,0.133-0.331,0.223c-0.021,0.02-0.047,0.035-0.067,0.055c-0.281,0.281-0.439,0.663-0.439,1.061
		c0,0.314,0.103,0.618,0.284,0.871c0.047,0.066,0.097,0.131,0.155,0.189c0.28,0.281,0.663,0.44,1.061,0.44
		c0.352,0,0.687-0.13,0.954-0.354c0.035-0.029,0.073-0.054,0.105-0.086C242.76,32.493,242.919,32.111,242.919,31.714z"/>
	<path d="M279.65,36.788c-0.281,0.282-0.663,0.44-1.062,0.44c-0.397,0-0.779-0.158-1.06-0.44c-0.119-0.119-0.211-0.259-0.283-0.407
		c-0.019,0.037-0.038,0.073-0.053,0.112c-0.066,0.171-0.104,0.354-0.104,0.542c0,0.298,0.089,0.587,0.252,0.832
		c0.055,0.082,0.118,0.159,0.188,0.229c0.1,0.1,0.216,0.178,0.338,0.246c0.22,0.122,0.466,0.193,0.722,0.193
		c0.398,0,0.78-0.158,1.062-0.439c0.062-0.062,0.115-0.131,0.165-0.202c0.175-0.25,0.273-0.549,0.273-0.859
		c0-0.022-0.006-0.043-0.007-0.065c-0.009-0.207-0.061-0.405-0.149-0.588C279.86,36.529,279.77,36.669,279.65,36.788z"/>
	<path d="M314.699,195.589c-0.062,0.062-0.116,0.132-0.166,0.203c-0.175,0.25-0.273,0.548-0.273,0.858
		c0,0.397,0.158,0.778,0.439,1.061c0.281,0.281,0.663,0.439,1.061,0.439c0.341,0,0.665-0.122,0.929-0.331
		c0.045-0.036,0.091-0.067,0.132-0.108c0.281-0.282,0.439-0.663,0.439-1.061c0-0.287-0.085-0.564-0.236-0.804
		c-0.059-0.092-0.125-0.18-0.203-0.258c-0.101-0.101-0.217-0.179-0.339-0.246c-0.22-0.121-0.466-0.192-0.722-0.192
		C315.362,195.15,314.98,195.308,314.699,195.589z"/>
	<path d="M351.431,202.842c0,0.287,0.085,0.564,0.236,0.803c0.059,0.092,0.125,0.18,0.203,0.258c0.281,0.28,0.663,0.439,1.061,0.439
		s0.779-0.159,1.061-0.439c0.281-0.281,0.439-0.663,0.439-1.061s-0.158-0.78-0.439-1.061c-0.281-0.281-0.663-0.439-1.061-0.439
		c-0.34,0-0.665,0.122-0.929,0.331c-0.045,0.036-0.092,0.067-0.132,0.108C351.589,202.062,351.431,202.444,351.431,202.842z"/>
	<path d="M57.065,6.917c0-0.252-0.07-0.494-0.188-0.712c-0.068-0.125-0.148-0.245-0.251-0.348c-0.281-0.282-0.663-0.44-1.061-0.44
		s-0.779,0.158-1.06,0.44c-0.282,0.281-0.44,0.663-0.44,1.06c0,0.398,0.158,0.78,0.44,1.061c0.281,0.281,0.662,0.439,1.06,0.439
		c0.306,0,0.602-0.095,0.85-0.266c0.075-0.051,0.146-0.108,0.211-0.173C56.907,7.697,57.065,7.315,57.065,6.917z"/>
	<path d="M94.236,15.889c0-0.329-0.114-0.645-0.311-0.904c-0.041-0.054-0.08-0.108-0.128-0.156c-0.282-0.282-0.663-0.44-1.061-0.44
		c-0.306,0-0.601,0.095-0.849,0.266c-0.075,0.052-0.146,0.108-0.212,0.174c-0.281,0.281-0.439,0.663-0.439,1.06
		c0,0.252,0.07,0.495,0.188,0.712c0.068,0.126,0.148,0.246,0.251,0.349c0.282,0.281,0.663,0.439,1.061,0.439
		c0.388,0,0.759-0.153,1.039-0.42c0.007-0.007,0.016-0.012,0.022-0.019C94.078,16.669,94.236,16.287,94.236,15.889z"/>
	<path d="M128.407,19.006c0,0.27,0.078,0.53,0.212,0.758c0.063,0.108,0.136,0.212,0.227,0.303c0.281,0.281,0.663,0.439,1.061,0.439
		c0.397,0,0.779-0.158,1.06-0.439c0.09-0.09,0.163-0.194,0.227-0.303c0.135-0.229,0.213-0.488,0.213-0.758
		c0-0.323-0.109-0.631-0.298-0.888c-0.044-0.06-0.089-0.12-0.142-0.173c-0.281-0.281-0.663-0.439-1.06-0.439
		c-0.383,0-0.749,0.149-1.026,0.41c-0.011,0.011-0.024,0.018-0.035,0.029C128.565,18.227,128.407,18.608,128.407,19.006z"/>
	<path d="M165.577,22.627c0,0.162,0.032,0.319,0.083,0.47c0.073,0.22,0.19,0.424,0.357,0.591c0.281,0.281,0.662,0.439,1.06,0.439
		s0.78-0.158,1.061-0.439c0.167-0.167,0.284-0.371,0.356-0.591c0.05-0.151,0.083-0.308,0.083-0.47c0-0.322-0.108-0.631-0.297-0.888
		c-0.044-0.06-0.088-0.12-0.142-0.173c-0.281-0.281-0.663-0.439-1.061-0.439c-0.375,0-0.733,0.145-1.009,0.397
		c-0.017,0.015-0.036,0.026-0.051,0.042C165.735,21.848,165.577,22.229,165.577,22.627z"/>
	<path d="M202.748,26.248c0,0.235,0.062,0.462,0.165,0.668c0.071,0.143,0.159,0.277,0.274,0.392c0.28,0.282,0.662,0.44,1.061,0.44
		s0.779-0.158,1.061-0.44c0.115-0.115,0.203-0.25,0.274-0.392c0.104-0.206,0.165-0.433,0.165-0.668c0-0.333-0.117-0.652-0.318-0.914
		c-0.039-0.05-0.076-0.102-0.121-0.147c-0.281-0.281-0.662-0.439-1.061-0.439c-0.376,0-0.734,0.145-1.01,0.397
		c-0.016,0.015-0.035,0.026-0.051,0.042C202.906,25.468,202.748,25.85,202.748,26.248z"/>
	<path d="M239.919,29.036c0,0.334,0.117,0.652,0.319,0.914c0.038,0.05,0.075,0.102,0.12,0.147c0.116,0.117,0.253,0.206,0.398,0.278
		c0.205,0.101,0.43,0.161,0.662,0.161s0.457-0.06,0.661-0.161c0.09-0.044,0.174-0.097,0.253-0.158
		c0.05-0.039,0.101-0.075,0.146-0.12c0.281-0.282,0.44-0.663,0.44-1.061c0-0.281-0.083-0.552-0.229-0.787
		c-0.061-0.098-0.129-0.191-0.212-0.274c-0.28-0.281-0.662-0.439-1.06-0.439c-0.39,0-0.764,0.153-1.042,0.424
		c-0.006,0.006-0.013,0.01-0.019,0.015C240.077,28.257,239.919,28.638,239.919,29.036z"/>
	<path d="M277.089,35.728c0,0.229,0.058,0.451,0.157,0.653c0.072,0.148,0.164,0.288,0.283,0.407c0.28,0.282,0.662,0.44,1.06,0.44
		c0.398,0,0.78-0.158,1.062-0.44c0.119-0.119,0.21-0.259,0.282-0.407c0.099-0.202,0.156-0.423,0.156-0.653
		c0-0.293-0.087-0.577-0.244-0.818c-0.057-0.086-0.12-0.168-0.194-0.243c-0.281-0.281-0.663-0.439-1.062-0.439
		c-0.334,0-0.653,0.117-0.914,0.319c-0.05,0.039-0.101,0.075-0.146,0.12C277.247,34.948,277.089,35.33,277.089,35.728z"/>
	<path d="M314.26,41.446c0,0.292,0.087,0.575,0.244,0.816c0.057,0.087,0.121,0.169,0.195,0.244c0.281,0.282,0.663,0.44,1.061,0.44
		c0.379,0,0.739-0.146,1.016-0.403c0.014-0.013,0.031-0.023,0.045-0.037c0.281-0.281,0.439-0.663,0.439-1.06
		c0-0.325-0.109-0.635-0.301-0.892c-0.044-0.059-0.087-0.117-0.139-0.169c-0.281-0.281-0.662-0.439-1.061-0.439
		c-0.347,0-0.677,0.126-0.943,0.343c-0.039,0.032-0.081,0.06-0.117,0.096C314.418,40.666,314.26,41.048,314.26,41.446z"/>
	<path d="M351.431,44.856c0,0.325,0.11,0.637,0.303,0.895c0.043,0.058,0.085,0.115,0.137,0.167c0.281,0.281,0.663,0.439,1.061,0.439
		s0.779-0.158,1.061-0.439c0.281-0.281,0.439-0.663,0.439-1.061c0-0.397-0.158-0.779-0.439-1.06c-0.281-0.282-0.663-0.44-1.061-0.44
		c-0.378,0-0.739,0.147-1.016,0.403c-0.015,0.013-0.031,0.023-0.045,0.037C351.589,44.077,351.431,44.459,351.431,44.856z"/>
	<rect x="36.88" y="206.48" width="0.2" height="2.304"/>
	<rect x="55.465" y="206.48" width="0.2" height="2.304"/>
	<rect x="74.051" y="206.48" width="0.2" height="2.304"/>
	<rect x="92.636" y="204.877" width="0.2" height="3.907"/>
	<path d="M93.126,219.161c0.394-0.375,0.726-0.718,0.996-1.029c0.271-0.31,0.496-0.61,0.673-0.9
		c0.178-0.291,0.311-0.584,0.399-0.878c0.089-0.293,0.133-0.611,0.133-0.955c0-0.407-0.066-0.773-0.197-1.099
		c-0.131-0.325-0.316-0.6-0.555-0.825c-0.24-0.224-0.524-0.396-0.854-0.514c-0.328-0.118-0.692-0.177-1.093-0.177
		c-0.59,0-1.107,0.104-1.551,0.311c-0.444,0.205-0.835,0.479-1.175,0.82l0.676,0.798c0.267-0.271,0.56-0.494,0.879-0.665
		c0.32-0.172,0.674-0.258,1.063-0.258c0.282,0,0.523,0.045,0.725,0.134c0.202,0.087,0.367,0.207,0.494,0.358
		c0.127,0.151,0.22,0.329,0.28,0.532c0.061,0.2,0.092,0.412,0.092,0.634c0,0.236-0.024,0.457-0.072,0.661
		c-0.047,0.202-0.138,0.419-0.274,0.647c-0.135,0.229-0.326,0.482-0.571,0.761c-0.243,0.277-0.56,0.605-0.949,0.984l-2.378,2.33
		v1.052h5.88v-1.12h-4.29L93.126,219.161z"/>
	<rect x="111.221" y="206.48" width="0.2" height="2.304"/>
	<rect x="129.807" y="206.48" width="0.2" height="2.304"/>
	<rect x="148.392" y="206.48" width="0.2" height="2.304"/>
	<rect x="166.977" y="204.877" width="0.2" height="3.907"/>
	<path d="M169.065,212.994h-1.713l-3.843,5.924v1.006h4.34v1.98h1.216v-1.98h1.444v-1.006h-1.444V212.994z M167.849,218.918h-3.139
		l3.139-4.773V218.918z"/>
	<rect x="185.563" y="206.48" width="0.199" height="2.304"/>
	<rect x="204.148" y="206.48" width="0.199" height="2.304"/>
	<rect x="222.733" y="206.48" width="0.199" height="2.304"/>
	<rect x="241.319" y="204.877" width="0.199" height="3.907"/>
	<path d="M243.887,217.146c-0.226-0.235-0.508-0.419-0.848-0.55c-0.34-0.133-0.737-0.198-1.19-0.198
		c-0.438,0-0.847,0.054-1.223,0.161c-0.376,0.106-0.71,0.248-1,0.425l0.027-0.289c0.036-0.42,0.126-0.799,0.269-1.138
		c0.145-0.34,0.351-0.63,0.616-0.871c0.269-0.239,0.601-0.426,0.996-0.558s0.865-0.199,1.403-0.199h0.933v-1.006h-0.882
		c-0.605,0-1.139,0.063-1.6,0.188c-0.459,0.126-0.858,0.302-1.197,0.529c-0.34,0.227-0.622,0.497-0.852,0.813
		c-0.228,0.317-0.41,0.665-0.547,1.046c-0.136,0.379-0.234,0.784-0.293,1.214c-0.06,0.43-0.09,0.875-0.09,1.334
		c0,0.682,0.065,1.272,0.199,1.772c0.133,0.499,0.326,0.912,0.582,1.237c0.255,0.327,0.571,0.57,0.948,0.729
		c0.378,0.157,0.813,0.236,1.307,0.236c0.47,0,0.896-0.076,1.281-0.228c0.386-0.154,0.715-0.364,0.987-0.63
		c0.274-0.267,0.485-0.58,0.632-0.939c0.149-0.359,0.224-0.745,0.224-1.156c0-0.392-0.058-0.75-0.171-1.079
		S244.115,217.381,243.887,217.146z M243.218,219.942c-0.089,0.228-0.213,0.424-0.372,0.586c-0.158,0.16-0.348,0.281-0.567,0.364
		s-0.46,0.125-0.723,0.125c-0.313,0-0.591-0.049-0.832-0.146c-0.238-0.099-0.44-0.264-0.605-0.496
		c-0.163-0.234-0.286-0.544-0.369-0.93c-0.082-0.388-0.123-0.868-0.123-1.444c0.129-0.081,0.271-0.158,0.429-0.229
		c0.157-0.072,0.322-0.136,0.494-0.191c0.172-0.055,0.349-0.098,0.528-0.129c0.18-0.032,0.358-0.048,0.535-0.048
		c0.304,0,0.564,0.042,0.784,0.125s0.4,0.198,0.544,0.35c0.143,0.148,0.247,0.331,0.312,0.549c0.067,0.216,0.101,0.458,0.101,0.727
		C243.354,219.449,243.309,219.711,243.218,219.942z"/>
	<rect x="259.904" y="206.48" width="0.199" height="2.304"/>
	<polygon points="278.688,206.623 278.688,206.48 278.489,206.48 278.489,206.623 278.489,208.784 278.688,208.784 	"/>
	<rect x="297.075" y="206.48" width="0.199" height="2.304"/>
	<rect x="315.66" y="204.877" width="0.199" height="3.907"/>
	<path d="M318.259,218.185c-0.162-0.197-0.352-0.377-0.571-0.535c-0.219-0.16-0.461-0.309-0.726-0.442
		c0.542-0.275,0.956-0.597,1.24-0.965c0.286-0.369,0.429-0.815,0.429-1.341c0-0.32-0.059-0.612-0.177-0.875
		s-0.296-0.485-0.534-0.669c-0.238-0.186-0.531-0.327-0.879-0.425c-0.349-0.099-0.754-0.148-1.217-0.148
		c-0.487,0-0.911,0.062-1.273,0.189c-0.359,0.126-0.66,0.295-0.9,0.509c-0.239,0.211-0.418,0.452-0.538,0.724
		c-0.118,0.271-0.178,0.552-0.178,0.842c0,0.475,0.128,0.895,0.381,1.26c0.254,0.366,0.686,0.698,1.295,0.995
		c-0.66,0.327-1.137,0.689-1.427,1.088c-0.289,0.396-0.433,0.869-0.433,1.417c0,0.325,0.063,0.623,0.188,0.894
		c0.127,0.269,0.313,0.503,0.562,0.7c0.25,0.195,0.558,0.35,0.926,0.459c0.367,0.108,0.792,0.164,1.275,0.164
		c0.438,0,0.846-0.053,1.221-0.157c0.374-0.105,0.7-0.259,0.976-0.46s0.489-0.449,0.643-0.744c0.153-0.294,0.23-0.632,0.23-1.012
		c0-0.296-0.046-0.566-0.137-0.809C318.546,218.601,318.421,218.382,318.259,218.185z M314.573,215.897
		c-0.144-0.134-0.249-0.275-0.319-0.428c-0.069-0.15-0.103-0.316-0.103-0.496c0-0.394,0.143-0.688,0.429-0.886
		c0.286-0.199,0.685-0.298,1.198-0.298c0.52,0,0.922,0.1,1.208,0.3s0.429,0.504,0.429,0.912c0,0.35-0.126,0.657-0.379,0.921
		c-0.251,0.264-0.635,0.519-1.153,0.761c-0.297-0.134-0.554-0.265-0.77-0.393C314.898,216.161,314.718,216.03,314.573,215.897z
		 M317.415,220.32c-0.094,0.156-0.22,0.288-0.381,0.392c-0.16,0.104-0.352,0.18-0.571,0.231c-0.22,0.05-0.454,0.074-0.702,0.074
		c-0.255,0-0.493-0.026-0.713-0.081c-0.22-0.056-0.41-0.139-0.569-0.25c-0.158-0.109-0.283-0.244-0.376-0.401
		c-0.091-0.159-0.136-0.341-0.136-0.547c0-0.186,0.029-0.36,0.086-0.525s0.152-0.324,0.286-0.477
		c0.136-0.154,0.313-0.307,0.532-0.455c0.218-0.149,0.489-0.299,0.811-0.453c0.371,0.167,0.677,0.328,0.917,0.483
		c0.24,0.156,0.433,0.312,0.575,0.469c0.144,0.155,0.242,0.313,0.298,0.475c0.056,0.16,0.083,0.326,0.083,0.496
		C317.555,219.971,317.508,220.161,317.415,220.32z"/>
	<rect x="334.245" y="206.48" width="0.199" height="2.304"/>
	<rect x="352.831" y="206.48" width="0.199" height="2.304"/>
	<polygon points="18.295,208.784 11.425,208.784 11.425,208.983 18.295,208.983 18.295,208.884 	"/>
	<polygon points="359.9,208.983 359.9,208.784 353.03,208.784 352.831,208.784 334.444,208.784 334.245,208.784 315.859,208.784 
		315.66,208.784 297.274,208.784 297.075,208.784 278.688,208.784 278.489,208.784 260.104,208.784 259.904,208.784 
		241.519,208.784 241.319,208.784 222.933,208.784 222.733,208.784 204.348,208.784 204.148,208.784 185.763,208.784 
		185.563,208.784 167.177,208.784 166.977,208.784 148.592,208.784 148.392,208.784 130.007,208.784 129.807,208.784 
		111.421,208.784 111.221,208.784 92.836,208.784 92.636,208.784 74.251,208.784 74.051,208.784 55.665,208.784 55.465,208.784 
		37.08,208.784 36.88,208.784 22.402,208.784 22.402,208.983 	"/>
	<polygon points="18.495,208.983 22.402,208.983 22.402,208.784 18.495,208.784 18.495,208.884 	"/>
	<rect x="18.495" y="201.146" width="2.304" height="0.199"/>
	<rect x="18.495" y="193.507" width="2.304" height="0.199"/>
	<rect x="18.495" y="185.867" width="2.304" height="0.199"/>
	<rect x="18.495" y="178.229" width="2.304" height="0.199"/>
	<rect x="18.495" y="170.59" width="3.907" height="0.199"/>
	<path d="M9.133,172.722c0.281,0.376,0.619,0.655,1.013,0.836c0.393,0.182,0.831,0.271,1.312,0.271c0.56,0,1.047-0.111,1.461-0.333
		c0.416-0.221,0.764-0.535,1.044-0.942c0.28-0.406,0.488-0.894,0.625-1.459c0.139-0.567,0.208-1.194,0.208-1.882
		c0-0.799-0.076-1.489-0.227-2.071c-0.15-0.582-0.366-1.062-0.648-1.441c-0.28-0.379-0.617-0.659-1.01-0.84
		c-0.394-0.182-0.832-0.271-1.313-0.271c-0.555,0-1.042,0.111-1.459,0.332c-0.417,0.222-0.765,0.536-1.043,0.943
		c-0.277,0.405-0.486,0.894-0.626,1.464c-0.14,0.569-0.21,1.197-0.21,1.885c0,0.798,0.075,1.489,0.225,2.072
		C8.637,171.867,8.853,172.346,9.133,172.722z M13.545,168.334c0.023,0.147,0.035,0.298,0.035,0.453c0,0.154,0,0.31,0,0.466
		c0,0.586-0.048,1.103-0.144,1.546c-0.095,0.445-0.232,0.818-0.412,1.118c-0.178,0.299-0.393,0.525-0.647,0.678
		s-0.537,0.229-0.849,0.229c-0.242,0-0.459-0.04-0.65-0.121c-0.189-0.081-0.358-0.194-0.507-0.339
		c-0.147-0.146-0.274-0.319-0.378-0.521c-0.105-0.203-0.192-0.425-0.261-0.665L13.545,168.334z M9.476,169.17
		c0-0.585,0.048-1.1,0.145-1.545c0.096-0.445,0.234-0.818,0.413-1.12c0.179-0.302,0.397-0.528,0.652-0.68
		c0.255-0.153,0.539-0.23,0.851-0.23c0.235,0,0.446,0.04,0.634,0.118c0.19,0.079,0.358,0.189,0.503,0.331
		c0.148,0.14,0.275,0.307,0.381,0.501c0.106,0.192,0.194,0.406,0.262,0.641l-3.812,2.828c-0.019-0.134-0.029-0.272-0.029-0.416
		C9.476,169.455,9.476,169.313,9.476,169.17z"/>
	<polygon points="4.9,164.685 3.894,164.685 0.98,166.186 1.422,167.199 3.64,166.035 3.64,172.569 1.26,172.569 1.26,173.689 
		6.86,173.689 6.86,172.569 4.9,172.569 	"/>
	<rect x="18.495" y="162.95" width="2.304" height="0.199"/>
	<rect x="18.495" y="155.312" width="2.304" height="0.199"/>
	<rect x="18.495" y="147.673" width="2.304" height="0.199"/>
	<rect x="18.495" y="140.033" width="2.304" height="0.199"/>
	<rect x="18.495" y="132.395" width="3.907" height="0.199"/>
	<path d="M9.133,134.527c0.281,0.376,0.619,0.654,1.013,0.836c0.393,0.181,0.831,0.271,1.312,0.271c0.56,0,1.047-0.11,1.461-0.332
		c0.416-0.222,0.764-0.536,1.044-0.942c0.28-0.407,0.488-0.895,0.625-1.459c0.139-0.568,0.208-1.195,0.208-1.883
		c0-0.799-0.076-1.488-0.227-2.07c-0.15-0.582-0.366-1.063-0.648-1.442c-0.28-0.379-0.617-0.659-1.01-0.84
		c-0.394-0.181-0.832-0.271-1.313-0.271c-0.555,0-1.042,0.111-1.459,0.333s-0.765,0.535-1.043,0.942
		c-0.277,0.406-0.486,0.895-0.626,1.464c-0.14,0.569-0.21,1.197-0.21,1.885c0,0.799,0.075,1.489,0.225,2.072
		C8.637,133.672,8.853,134.151,9.133,134.527z M13.545,130.139c0.023,0.147,0.035,0.298,0.035,0.453c0,0.154,0,0.311,0,0.466
		c0,0.586-0.048,1.103-0.144,1.546c-0.095,0.445-0.232,0.818-0.412,1.118c-0.178,0.3-0.393,0.525-0.647,0.679
		c-0.254,0.151-0.537,0.228-0.849,0.228c-0.242,0-0.459-0.04-0.65-0.121c-0.189-0.081-0.358-0.193-0.507-0.339
		c-0.147-0.145-0.274-0.319-0.378-0.52c-0.105-0.203-0.192-0.426-0.261-0.665L13.545,130.139z M9.476,130.975
		c0-0.585,0.048-1.1,0.145-1.545c0.096-0.444,0.234-0.817,0.413-1.12c0.179-0.302,0.397-0.527,0.652-0.68
		c0.255-0.153,0.539-0.229,0.851-0.229c0.235,0,0.446,0.04,0.634,0.117c0.19,0.079,0.358,0.189,0.503,0.331
		c0.148,0.141,0.275,0.308,0.381,0.501c0.106,0.192,0.194,0.406,0.262,0.642l-3.812,2.828c-0.019-0.135-0.029-0.273-0.029-0.416
		C9.476,131.26,9.476,131.118,9.476,130.975z"/>
	<path d="M4.239,132.771c0.394-0.375,0.726-0.719,0.996-1.029c0.271-0.311,0.496-0.611,0.673-0.901
		c0.178-0.291,0.311-0.584,0.399-0.877c0.089-0.293,0.133-0.612,0.133-0.956c0-0.407-0.066-0.772-0.197-1.098
		c-0.131-0.325-0.316-0.601-0.555-0.825c-0.24-0.224-0.524-0.396-0.854-0.514c-0.328-0.118-0.692-0.178-1.093-0.178
		c-0.59,0-1.107,0.104-1.551,0.312c-0.444,0.205-0.835,0.479-1.175,0.82l0.676,0.798c0.267-0.272,0.56-0.494,0.879-0.665
		c0.32-0.172,0.674-0.258,1.063-0.258c0.282,0,0.523,0.045,0.725,0.134c0.202,0.087,0.367,0.207,0.494,0.357
		c0.127,0.152,0.22,0.329,0.28,0.532c0.061,0.201,0.092,0.413,0.092,0.634c0,0.237-0.024,0.457-0.072,0.661
		c-0.047,0.203-0.138,0.419-0.274,0.648c-0.136,0.228-0.326,0.481-0.571,0.761c-0.243,0.277-0.56,0.605-0.949,0.984l-2.378,2.33
		v1.052h5.88v-1.12H2.57L4.239,132.771z"/>
	<rect x="18.495" y="124.756" width="2.304" height="0.199"/>
	<rect x="18.495" y="117.116" width="2.304" height="0.199"/>
	<rect x="18.495" y="109.477" width="2.304" height="0.2"/>
	<rect x="18.495" y="101.838" width="2.304" height="0.2"/>
	<rect x="18.495" y="94.2" width="3.907" height="0.2"/>
	<path d="M4.931,95.97c-0.2,0.15-0.458,0.265-0.775,0.346c-0.315,0.078-0.695,0.118-1.139,0.118c-0.329,0-0.65-0.013-0.965-0.04
		c-0.314-0.027-0.624-0.067-0.932-0.118v1.074c0.245,0.06,0.509,0.09,0.792,0.09c0.283,0,0.602,0,0.958,0
		c0.642,0,1.205-0.074,1.689-0.221c0.484-0.147,0.885-0.348,1.203-0.604c0.319-0.256,0.558-0.556,0.717-0.899
		c0.161-0.342,0.241-0.709,0.241-1.1c0-0.28-0.055-0.535-0.166-0.766c-0.111-0.232-0.256-0.433-0.436-0.603
		c-0.179-0.171-0.381-0.311-0.605-0.42c-0.224-0.11-0.453-0.183-0.69-0.221c0.471-0.21,0.828-0.487,1.07-0.829
		c0.242-0.343,0.363-0.768,0.363-1.274c0-0.338-0.061-0.642-0.184-0.912c-0.121-0.271-0.3-0.501-0.538-0.691
		c-0.237-0.19-0.533-0.335-0.888-0.435c-0.354-0.101-0.765-0.151-1.233-0.151c-0.157,0-0.321,0.008-0.493,0.024
		c-0.17,0.014-0.342,0.036-0.514,0.065c-0.172,0.028-0.345,0.064-0.518,0.108C1.714,88.553,1.552,88.6,1.4,88.653v1.019
		c0.359-0.116,0.696-0.204,1.011-0.262c0.316-0.06,0.624-0.09,0.923-0.09c0.56,0,0.984,0.109,1.273,0.328
		c0.289,0.217,0.433,0.564,0.433,1.039c0,0.244-0.042,0.462-0.125,0.654c-0.083,0.193-0.202,0.355-0.358,0.486
		c-0.156,0.131-0.345,0.232-0.565,0.302c-0.219,0.07-0.461,0.105-0.728,0.105H2.24v1.006h1.011c0.325,0,0.626,0.031,0.903,0.092
		c0.279,0.061,0.518,0.153,0.718,0.276c0.201,0.122,0.356,0.274,0.465,0.457c0.111,0.181,0.167,0.393,0.167,0.638
		c0,0.269-0.046,0.509-0.138,0.722C5.276,95.638,5.13,95.82,4.931,95.97z"/>
	<path d="M9.133,96.333c0.281,0.376,0.619,0.655,1.013,0.836c0.393,0.181,0.831,0.271,1.312,0.271c0.56,0,1.047-0.111,1.461-0.332
		c0.416-0.222,0.764-0.536,1.044-0.943c0.28-0.407,0.488-0.894,0.625-1.459c0.139-0.568,0.208-1.195,0.208-1.882
		c0-0.799-0.076-1.489-0.227-2.071c-0.15-0.582-0.366-1.063-0.648-1.442c-0.28-0.379-0.617-0.659-1.01-0.84
		c-0.394-0.181-0.832-0.271-1.313-0.271c-0.555,0-1.042,0.111-1.459,0.332c-0.417,0.222-0.765,0.536-1.043,0.943
		c-0.277,0.406-0.486,0.894-0.626,1.464c-0.14,0.569-0.21,1.197-0.21,1.885c0,0.798,0.075,1.489,0.225,2.072
		C8.637,95.478,8.853,95.957,9.133,96.333z M13.545,91.945c0.023,0.147,0.035,0.298,0.035,0.453c0,0.154,0,0.31,0,0.466
		c0,0.586-0.048,1.102-0.144,1.546c-0.095,0.445-0.232,0.818-0.412,1.118c-0.178,0.299-0.393,0.525-0.647,0.678
		c-0.254,0.152-0.537,0.228-0.849,0.228c-0.242,0-0.459-0.04-0.65-0.121c-0.189-0.081-0.358-0.194-0.507-0.339
		c-0.147-0.145-0.274-0.319-0.378-0.52c-0.105-0.203-0.192-0.425-0.261-0.665L13.545,91.945z M9.476,92.781
		c0-0.585,0.048-1.1,0.145-1.545c0.096-0.445,0.234-0.818,0.413-1.12c0.179-0.302,0.397-0.528,0.652-0.68
		c0.255-0.153,0.539-0.23,0.851-0.23c0.235,0,0.446,0.04,0.634,0.118c0.19,0.079,0.358,0.189,0.503,0.331
		c0.148,0.14,0.275,0.307,0.381,0.501c0.106,0.192,0.194,0.406,0.262,0.641l-3.812,2.828c-0.019-0.134-0.029-0.273-0.029-0.416
		S9.476,92.924,9.476,92.781z"/>
	<rect x="18.495" y="86.561" width="2.304" height="0.2"/>
	<rect x="18.495" y="78.922" width="2.304" height="0.2"/>
	<rect x="18.495" y="71.283" width="2.304" height="0.2"/>
	<rect x="18.495" y="63.644" width="2.304" height="0.2"/>
	<rect x="18.495" y="56.005" width="3.907" height="0.2"/>
	<path d="M9.133,58.138c0.281,0.376,0.619,0.655,1.013,0.836c0.393,0.181,0.831,0.271,1.312,0.271c0.56,0,1.047-0.111,1.461-0.332
		c0.416-0.222,0.764-0.536,1.044-0.943c0.28-0.407,0.488-0.894,0.625-1.459c0.139-0.568,0.208-1.195,0.208-1.882
		c0-0.799-0.076-1.489-0.227-2.071c-0.15-0.582-0.366-1.063-0.648-1.442c-0.28-0.379-0.617-0.659-1.01-0.84
		c-0.394-0.181-0.832-0.271-1.313-0.271c-0.555,0-1.042,0.111-1.459,0.333c-0.417,0.221-0.765,0.535-1.043,0.942
		c-0.277,0.406-0.486,0.894-0.626,1.464c-0.14,0.569-0.21,1.197-0.21,1.885c0,0.798,0.075,1.489,0.225,2.072
		C8.637,57.283,8.853,57.762,9.133,58.138z M13.545,53.75c0.023,0.147,0.035,0.298,0.035,0.453c0,0.154,0,0.31,0,0.466
		c0,0.586-0.048,1.102-0.144,1.546c-0.095,0.445-0.232,0.818-0.412,1.118c-0.178,0.299-0.393,0.525-0.647,0.678
		c-0.254,0.152-0.537,0.228-0.849,0.228c-0.242,0-0.459-0.04-0.65-0.121c-0.189-0.081-0.358-0.194-0.507-0.339
		c-0.147-0.145-0.274-0.319-0.378-0.52c-0.105-0.203-0.192-0.425-0.261-0.665L13.545,53.75z M9.476,54.586
		c0-0.585,0.048-1.1,0.145-1.545c0.096-0.445,0.234-0.818,0.413-1.12c0.179-0.302,0.397-0.528,0.652-0.68
		c0.255-0.153,0.539-0.23,0.851-0.23c0.235,0,0.446,0.04,0.634,0.118c0.19,0.079,0.358,0.189,0.503,0.331
		c0.148,0.14,0.275,0.307,0.381,0.501c0.106,0.192,0.194,0.406,0.262,0.641L9.505,55.43c-0.019-0.134-0.029-0.273-0.029-0.416
		S9.476,54.729,9.476,54.586z"/>
	<path d="M4.62,59.125h1.216v-1.98H7.28v-1.006H5.836v-5.924H4.123L0.28,56.139v1.006h4.34V59.125z M1.481,56.139l3.139-4.773v4.773
		H1.481z"/>
	<rect x="18.495" y="48.366" width="2.304" height="0.2"/>
	<rect x="18.495" y="40.727" width="2.304" height="0.2"/>
	<rect x="18.495" y="33.088" width="2.304" height="0.2"/>
	<rect x="18.495" y="25.449" width="2.304" height="0.2"/>
	<rect x="18.495" y="17.81" width="3.907" height="0.2"/>
	<path d="M9.133,19.943c0.281,0.376,0.619,0.655,1.013,0.836c0.393,0.181,0.831,0.271,1.312,0.271c0.56,0,1.047-0.111,1.461-0.332
		c0.416-0.222,0.764-0.536,1.044-0.943c0.28-0.407,0.488-0.894,0.625-1.459c0.139-0.568,0.208-1.195,0.208-1.882
		c0-0.799-0.076-1.489-0.227-2.071c-0.15-0.582-0.366-1.063-0.648-1.442c-0.28-0.379-0.617-0.659-1.01-0.84
		c-0.394-0.181-0.832-0.271-1.313-0.271c-0.555,0-1.042,0.111-1.459,0.333c-0.417,0.221-0.765,0.535-1.043,0.942
		c-0.277,0.406-0.486,0.894-0.626,1.464c-0.14,0.569-0.21,1.197-0.21,1.885c0,0.798,0.075,1.489,0.225,2.072
		C8.637,19.088,8.853,19.567,9.133,19.943z M13.545,15.555c0.023,0.147,0.035,0.298,0.035,0.453c0,0.154,0,0.31,0,0.466
		c0,0.586-0.048,1.102-0.144,1.546c-0.095,0.445-0.232,0.818-0.412,1.118c-0.178,0.299-0.393,0.525-0.647,0.678
		c-0.254,0.152-0.537,0.228-0.849,0.228c-0.242,0-0.459-0.04-0.65-0.121c-0.189-0.081-0.358-0.194-0.507-0.339
		c-0.147-0.145-0.274-0.319-0.378-0.52c-0.105-0.203-0.192-0.425-0.261-0.665L13.545,15.555z M9.476,16.391
		c0-0.585,0.048-1.1,0.145-1.545c0.096-0.445,0.234-0.818,0.413-1.12c0.179-0.302,0.397-0.528,0.652-0.68
		c0.255-0.153,0.539-0.23,0.851-0.23c0.235,0,0.446,0.04,0.634,0.118c0.19,0.079,0.358,0.189,0.503,0.331
		c0.148,0.14,0.275,0.307,0.381,0.501c0.106,0.192,0.194,0.406,0.262,0.641l-3.812,2.828c-0.019-0.134-0.029-0.273-0.029-0.416
		S9.476,16.534,9.476,16.391z"/>
	<path d="M2.083,21.05c0.15,0,0.301,0,0.452,0c0.152,0,0.293,0,0.425,0c0.525,0,1.013-0.072,1.465-0.217
		c0.454-0.145,0.847-0.349,1.179-0.61C5.938,19.962,6.2,19.65,6.39,19.287c0.191-0.363,0.286-0.765,0.286-1.205
		c0-0.49-0.095-0.897-0.286-1.221c-0.191-0.325-0.444-0.584-0.757-0.777c-0.312-0.194-0.668-0.328-1.068-0.404
		c-0.399-0.078-0.817-0.116-1.253-0.116H2.52V13.07h3.69v-1.006H1.4v4.506h1.704c0.76,0,1.342,0.128,1.748,0.383
		c0.405,0.254,0.608,0.659,0.608,1.216c0,0.289-0.055,0.548-0.166,0.779c-0.111,0.23-0.271,0.427-0.479,0.59
		c-0.207,0.164-0.459,0.289-0.755,0.377c-0.295,0.086-0.626,0.129-0.995,0.129c-0.328,0-0.653-0.014-0.974-0.042
		c-0.319-0.028-0.596-0.071-0.831-0.129v1.081c0.114,0.026,0.241,0.049,0.383,0.068C1.786,21.041,1.932,21.05,2.083,21.05z"/>
	<rect x="18.495" y="10.171" width="2.304" height="0.2"/>
	<rect x="18.495" y="2.532" width="2.304" height="0.2"/>
	<polygon points="18.295,208.884 18.295,208.983 18.295,215.585 18.495,215.585 18.495,208.983 18.495,208.884 18.495,208.784 
		18.495,204.877 18.495,201.345 18.495,201.146 18.495,193.706 18.495,193.507 18.495,186.066 18.495,185.867 18.495,178.428 
		18.495,178.229 18.495,170.789 18.495,170.59 18.495,163.149 18.495,162.95 18.495,155.511 18.495,155.312 18.495,147.872 
		18.495,147.673 18.495,140.232 18.495,140.033 18.495,132.594 18.495,132.395 18.495,124.955 18.495,124.756 18.495,117.315 
		18.495,117.116 18.495,109.677 18.495,109.477 18.495,102.038 18.495,101.838 18.495,94.4 18.495,94.2 18.495,86.761 
		18.495,86.561 18.495,79.122 18.495,78.922 18.495,71.483 18.495,71.283 18.495,63.844 18.495,63.644 18.495,56.205 18.495,56.005 
		18.495,48.566 18.495,48.366 18.495,40.927 18.495,40.727 18.495,33.288 18.495,33.088 18.495,25.649 18.495,25.449 18.495,18.01 
		18.495,17.81 18.495,10.371 18.495,10.171 18.495,2.732 18.495,2.532 18.495,0.216 18.295,0.216 18.295,204.877 18.295,208.784 	
		"/>
</g>
</svg>
