<?xml version="1.0" encoding="utf-8"?>
<!-- Generator: Adobe Illustrator 16.0.4, SVG Export Plug-In . SVG Version: 6.00 Build 0)  -->
<!DOCTYPE svg PUBLIC "-//W3C//DTD SVG 1.1 Tiny//EN" "http://www.w3.org/Graphics/SVG/1.1/DTD/svg11-tiny.dtd">
<svg version="1.1" baseProfile="tiny" id="Layer_1" xmlns="http://www.w3.org/2000/svg" xmlns:xlink="http://www.w3.org/1999/xlink"
	 x="0px" y="0px" width="360px" height="227px" viewBox="0 0 360 227" xml:space="preserve">
<g>
	<g>
		<g>
		</g>
		<g>
		</g>
	</g>
	<g>
	</g>
</g>
<g>
	<path fill="#FFFFFF" d="M10.245,124.446c0.165,0.231,0.367,0.397,0.606,0.497c0.241,0.097,0.518,0.146,0.832,0.146
		c0.262,0,0.503-0.041,0.721-0.124c0.221-0.084,0.41-0.205,0.569-0.366c0.159-0.162,0.283-0.356,0.372-0.586
		c0.091-0.229,0.136-0.493,0.136-0.787c0-0.269-0.034-0.511-0.101-0.727c-0.065-0.217-0.17-0.4-0.313-0.549
		c-0.143-0.15-0.324-0.268-0.544-0.351c-0.219-0.083-0.48-0.124-0.783-0.124c-0.177,0-0.356,0.017-0.536,0.049
		c-0.18,0.029-0.356,0.072-0.528,0.129c-0.172,0.055-0.336,0.119-0.494,0.189c-0.157,0.071-0.3,0.148-0.429,0.23
		c0,0.576,0.041,1.057,0.123,1.442C9.959,123.903,10.082,124.213,10.245,124.446z"/>
	<path fill="#FFFFFF" d="M10.265,95.847c0.159,0.111,0.349,0.194,0.569,0.249c0.22,0.054,0.458,0.081,0.713,0.081
		c0.248,0,0.482-0.025,0.702-0.074c0.22-0.051,0.411-0.128,0.571-0.232c0.161-0.104,0.287-0.234,0.381-0.392
		c0.093-0.159,0.14-0.348,0.14-0.568c0-0.171-0.028-0.336-0.083-0.497c-0.056-0.16-0.155-0.319-0.298-0.475
		c-0.143-0.156-0.335-0.312-0.575-0.468c-0.241-0.156-0.546-0.317-0.917-0.483c-0.322,0.153-0.593,0.304-0.811,0.453
		c-0.219,0.148-0.396,0.3-0.532,0.455c-0.134,0.153-0.23,0.312-0.286,0.477c-0.057,0.164-0.086,0.339-0.086,0.525
		c0,0.205,0.045,0.387,0.136,0.546C9.981,95.602,10.106,95.736,10.265,95.847z"/>
	<path fill="#FFFFFF" d="M13.055,60.988c-0.106-0.194-0.233-0.361-0.381-0.501c-0.145-0.141-0.313-0.251-0.503-0.33
		c-0.188-0.079-0.399-0.118-0.634-0.118c-0.312,0-0.596,0.076-0.851,0.229c-0.255,0.152-0.473,0.379-0.652,0.681
		c-0.179,0.302-0.317,0.675-0.413,1.12c-0.097,0.445-0.145,0.959-0.145,1.544c0,0.143,0,0.286,0,0.429s0.01,0.281,0.029,0.415
		l3.812-2.828C13.249,61.394,13.161,61.181,13.055,60.988z"/>
	<polygon fill="#FFFFFF" points="12.32,2.569 9.181,7.342 12.32,7.342 	"/>
	<path fill="#FFFFFF" d="M11.669,91.844c0.518-0.244,0.902-0.497,1.153-0.761c0.253-0.264,0.379-0.571,0.379-0.921
		c0-0.409-0.143-0.713-0.429-0.913c-0.286-0.199-0.688-0.299-1.207-0.299c-0.514,0-0.913,0.099-1.199,0.297
		c-0.286,0.197-0.429,0.492-0.429,0.886c0,0.18,0.034,0.345,0.103,0.497c0.07,0.151,0.176,0.294,0.319,0.426
		c0.145,0.133,0.325,0.264,0.541,0.394C11.115,91.578,11.372,91.71,11.669,91.844z"/>
	<path fill="#FFFFFF" d="M9.732,65.621c0.069,0.241,0.156,0.463,0.261,0.665c0.104,0.201,0.231,0.375,0.378,0.521
		c0.149,0.144,0.318,0.257,0.507,0.339c0.191,0.08,0.408,0.12,0.65,0.12c0.312,0,0.595-0.076,0.849-0.227
		c0.254-0.153,0.469-0.379,0.647-0.678c0.18-0.301,0.317-0.673,0.412-1.118c0.096-0.445,0.144-0.961,0.144-1.547
		c0-0.156,0-0.311,0-0.466c0-0.154-0.012-0.305-0.035-0.452L9.732,65.621z"/>
	<path fill="#FFFFFF" d="M229.514,220.18c0.069,0.241,0.155,0.463,0.261,0.665s0.231,0.375,0.379,0.521
		c0.148,0.144,0.317,0.257,0.507,0.339c0.19,0.08,0.408,0.12,0.649,0.12c0.312,0,0.596-0.076,0.85-0.228
		c0.254-0.152,0.469-0.379,0.646-0.678c0.181-0.301,0.317-0.673,0.412-1.118c0.097-0.444,0.145-0.96,0.145-1.547
		c0-0.156,0-0.311,0-0.466c0-0.154-0.013-0.305-0.035-0.452L229.514,220.18z"/>
	<path fill="#FFFFFF" d="M232.837,215.547c-0.105-0.194-0.233-0.361-0.381-0.501c-0.146-0.141-0.313-0.251-0.503-0.33
		c-0.188-0.079-0.399-0.118-0.634-0.118c-0.312,0-0.597,0.076-0.852,0.229c-0.255,0.151-0.473,0.379-0.651,0.681
		c-0.18,0.302-0.317,0.675-0.413,1.12c-0.098,0.445-0.146,0.959-0.146,1.544c0,0.144,0,0.286,0,0.429
		c0,0.144,0.01,0.281,0.029,0.416l3.812-2.828C233.031,215.953,232.943,215.74,232.837,215.547z"/>
	<path fill="#FFFFFF" d="M0,227h360V0H0V227z M12.829,176.71c-0.06-0.203-0.153-0.38-0.28-0.532
		c-0.127-0.151-0.292-0.271-0.494-0.358c-0.202-0.089-0.443-0.134-0.725-0.134c-0.389,0-0.743,0.087-1.063,0.259
		c-0.319,0.171-0.612,0.392-0.879,0.665l-0.676-0.8c0.34-0.341,0.731-0.613,1.175-0.819c0.444-0.207,0.961-0.311,1.551-0.311
		c0.401,0,0.765,0.06,1.093,0.178c0.33,0.117,0.614,0.289,0.854,0.514c0.239,0.224,0.424,0.499,0.555,0.824
		c0.131,0.326,0.197,0.691,0.197,1.099c0,0.344-0.044,0.662-0.133,0.956c-0.088,0.293-0.221,0.585-0.399,0.877
		c-0.177,0.29-0.402,0.59-0.673,0.901c-0.27,0.311-0.602,0.652-0.996,1.027l-1.669,1.604h4.29v1.12h-5.88v-1.054l2.378-2.328
		c0.389-0.381,0.706-0.708,0.949-0.985c0.245-0.278,0.436-0.532,0.571-0.761c0.136-0.229,0.227-0.445,0.274-0.647
		c0.048-0.205,0.072-0.425,0.072-0.661C12.921,177.122,12.89,176.911,12.829,176.71z M125.478,221.068
		c-0.19,0.363-0.452,0.676-0.786,0.937c-0.332,0.261-0.725,0.464-1.179,0.61c-0.452,0.144-0.94,0.217-1.465,0.217
		c-0.132,0-0.273,0-0.425,0c-0.151,0-0.302,0-0.452,0c-0.151,0-0.297-0.01-0.44-0.029c-0.142-0.019-0.269-0.041-0.383-0.067v-1.08
		c0.235,0.058,0.512,0.101,0.831,0.129c0.321,0.026,0.646,0.041,0.974,0.041c0.369,0,0.7-0.043,0.995-0.129
		c0.296-0.087,0.548-0.213,0.755-0.376c0.208-0.163,0.368-0.36,0.479-0.592c0.111-0.229,0.166-0.489,0.166-0.777
		c0-0.559-0.203-0.963-0.608-1.217c-0.406-0.256-0.988-0.383-1.748-0.383h-1.704v-4.507h4.81v1.007h-3.69v2.493h0.792
		c0.436,0,0.854,0.039,1.253,0.116c0.4,0.076,0.756,0.211,1.068,0.405c0.313,0.191,0.566,0.451,0.757,0.775s0.286,0.731,0.286,1.222
		C125.764,220.303,125.669,220.705,125.478,221.068z M226.642,222.692h-5.6v-1.12h2.38v-6.535l-2.218,1.164l-0.442-1.013l2.914-1.5
		h1.006v7.884h1.96V222.692z M234.37,220.097c-0.137,0.566-0.345,1.053-0.625,1.459c-0.28,0.407-0.628,0.722-1.044,0.943
		c-0.414,0.222-0.901,0.333-1.461,0.333c-0.481,0-0.919-0.091-1.312-0.272c-0.394-0.181-0.731-0.459-1.013-0.835
		c-0.28-0.377-0.496-0.855-0.648-1.438c-0.149-0.583-0.225-1.273-0.225-2.071c0-0.688,0.07-1.316,0.21-1.886
		c0.14-0.57,0.349-1.058,0.626-1.463c0.278-0.407,0.626-0.721,1.043-0.943c0.417-0.222,0.903-0.332,1.459-0.332
		c0.481,0,0.919,0.09,1.313,0.271c0.393,0.181,0.729,0.461,1.01,0.84c0.282,0.379,0.498,0.858,0.647,1.44
		c0.151,0.582,0.228,1.273,0.228,2.072C234.578,218.903,234.509,219.53,234.37,220.097z M331.185,222.692h-5.6v-1.12h2.38v-6.535
		l-2.218,1.164l-0.442-1.013l2.914-1.5h1.006v7.884h1.96V222.692z M338.415,221.068c-0.19,0.363-0.452,0.676-0.786,0.937
		c-0.332,0.261-0.725,0.464-1.179,0.61c-0.452,0.144-0.94,0.217-1.465,0.217c-0.133,0-0.273,0-0.426,0c-0.15,0-0.302,0-0.451,0
		c-0.151,0-0.298-0.01-0.44-0.029c-0.142-0.019-0.269-0.041-0.383-0.067v-1.08c0.234,0.058,0.512,0.101,0.831,0.129
		c0.321,0.026,0.646,0.041,0.974,0.041c0.369,0,0.7-0.043,0.995-0.129c0.296-0.087,0.548-0.213,0.755-0.376
		c0.208-0.163,0.368-0.36,0.479-0.592c0.11-0.229,0.166-0.489,0.166-0.777c0-0.559-0.203-0.963-0.608-1.217
		c-0.406-0.256-0.988-0.383-1.748-0.383h-1.704v-4.507h4.811v1.007h-3.69v2.493h0.792c0.437,0,0.854,0.039,1.253,0.116
		c0.4,0.076,0.756,0.211,1.068,0.405c0.312,0.191,0.565,0.451,0.757,0.775s0.286,0.731,0.286,1.222
		C338.701,220.303,338.606,220.705,338.415,221.068z M38.242,194.175c0.282-0.281,0.663-0.438,1.061-0.438
		c0.123,0,0.242,0.02,0.359,0.049l19.07-12.924c0.044-0.322,0.187-0.624,0.418-0.856c0.281-0.281,0.663-0.438,1.061-0.438
		c0.125,0,0.247,0.021,0.366,0.051l19.063-12.763c0.046-0.318,0.188-0.616,0.418-0.848c0.282-0.281,0.663-0.439,1.061-0.439
		c0.129,0,0.255,0.022,0.378,0.055l19.053-12.528c0.048-0.314,0.189-0.608,0.417-0.837c0.281-0.28,0.663-0.438,1.061-0.438
		c0.131,0,0.258,0.022,0.383,0.056l19.048-12.431c0.049-0.312,0.19-0.603,0.416-0.829c0.282-0.282,0.663-0.44,1.061-0.44
		c0.14,0,0.276,0.026,0.409,0.064l19.026-11.915c0.053-0.302,0.194-0.583,0.414-0.805c0.281-0.279,0.663-0.438,1.061-0.438
		c0.148,0,0.293,0.029,0.433,0.071l19.002-11.45c0.056-0.293,0.197-0.566,0.411-0.781c0.282-0.281,0.663-0.439,1.061-0.439
		c0.127,0,0.251,0.021,0.372,0.053l19.059-12.677c0.047-0.317,0.188-0.614,0.417-0.843c0.281-0.281,0.663-0.44,1.062-0.44
		c0.169,0,0.333,0.035,0.49,0.089l18.96-10.501c0.062-0.271,0.196-0.523,0.396-0.725c0.282-0.281,0.663-0.44,1.062-0.44
		c0.149,0,0.294,0.029,0.435,0.072l19.002-11.436c0.057-0.292,0.197-0.565,0.411-0.779c0.281-0.281,0.663-0.44,1.062-0.44
		c0.172,0,0.338,0.035,0.497,0.091l18.955-10.323c0.063-0.268,0.196-0.517,0.395-0.715c0.282-0.281,0.663-0.438,1.061-0.438
		c0.165,0,0.325,0.033,0.479,0.085l18.969-10.634c0.062-0.275,0.197-0.53,0.4-0.733c0.28-0.281,0.663-0.439,1.061-0.439
		c0.142,0,0.278,0.027,0.412,0.065l19.021-11.882c0.051-0.307,0.191-0.594,0.414-0.817c0.282-0.281,0.663-0.439,1.062-0.439
		c0.219,0,0.431,0.052,0.625,0.142l18.869-8.128c0.073-0.216,0.189-0.416,0.354-0.581c0.281-0.283,0.663-0.44,1.062-0.44
		c0.146,0,0.287,0.028,0.425,0.069l19.01-11.611c0.055-0.296,0.196-0.572,0.412-0.789c0.282-0.281,0.663-0.439,1.062-0.439
		c0.197,0,0.39,0.04,0.568,0.113l18.904-9.26c0.069-0.243,0.193-0.469,0.375-0.651c0.281-0.28,0.663-0.438,1.061-0.438
		s0.779,0.158,1.061,0.438c0.281,0.283,0.439,0.664,0.439,1.062s-0.158,0.779-0.439,1.061c-0.281,0.281-0.663,0.439-1.061,0.439
		c-0.195,0-0.386-0.039-0.562-0.111l-18.91,9.258c-0.069,0.243-0.193,0.468-0.375,0.651c-0.282,0.281-0.663,0.439-1.061,0.439
		c-0.148,0-0.292-0.029-0.431-0.07l-19.003,11.6c-0.054,0.302-0.196,0.583-0.415,0.801c-0.281,0.281-0.663,0.439-1.06,0.439
		c-0.219,0-0.431-0.052-0.626-0.142l-18.869,8.128c-0.073,0.216-0.189,0.417-0.354,0.581c-0.281,0.282-0.663,0.44-1.061,0.44
		c-0.141,0-0.277-0.026-0.41-0.064L270.771,53.07c-0.054,0.302-0.195,0.583-0.414,0.803c-0.281,0.281-0.663,0.439-1.061,0.439
		c-0.165,0-0.326-0.033-0.479-0.085L249.849,64.86c-0.062,0.275-0.197,0.531-0.399,0.733c-0.282,0.281-0.663,0.439-1.062,0.439
		c-0.172,0-0.338-0.035-0.497-0.091l-18.955,10.322c-0.064,0.268-0.198,0.516-0.396,0.713c-0.281,0.282-0.663,0.44-1.06,0.44
		c-0.149,0-0.295-0.029-0.435-0.072l-19.003,11.435c-0.056,0.293-0.197,0.566-0.411,0.781C207.35,89.843,206.969,90,206.571,90
		c-0.168,0-0.332-0.034-0.487-0.087l-18.963,10.5c-0.062,0.272-0.198,0.524-0.398,0.724c-0.28,0.282-0.663,0.44-1.06,0.44
		c-0.128,0-0.253-0.022-0.375-0.054L166.232,114.2c-0.047,0.316-0.188,0.613-0.417,0.843c-0.282,0.282-0.663,0.44-1.061,0.44
		c-0.149,0-0.295-0.029-0.435-0.072l-19,11.45c-0.056,0.295-0.198,0.567-0.412,0.781c-0.281,0.28-0.663,0.438-1.06,0.438
		c-0.14,0-0.277-0.026-0.409-0.064l-19.025,11.915c-0.053,0.302-0.194,0.584-0.414,0.805c-0.282,0.28-0.663,0.438-1.061,0.438
		c-0.131,0-0.258-0.023-0.383-0.056l-19.048,12.431c-0.049,0.312-0.191,0.603-0.417,0.83c-0.281,0.281-0.663,0.439-1.06,0.439
		c-0.129,0-0.255-0.022-0.377-0.055l-19.054,12.528c-0.048,0.314-0.189,0.607-0.417,0.836c-0.282,0.281-0.663,0.438-1.061,0.438
		c-0.125,0-0.247-0.021-0.366-0.051L61.69,181.279c-0.046,0.318-0.188,0.616-0.418,0.847c-0.281,0.281-0.663,0.44-1.06,0.44
		c-0.123,0-0.242-0.02-0.358-0.049l-19.071,12.924c-0.044,0.321-0.187,0.621-0.419,0.854c-0.282,0.281-0.663,0.44-1.061,0.44
		c-0.398,0-0.779-0.159-1.061-0.44c-0.281-0.282-0.439-0.662-0.439-1.06C37.803,194.838,37.961,194.456,38.242,194.175z
		 M18.295,1.024h0.2v6.185h3.907v0.2h-3.907v7.028h2.304v0.2h-2.304v7.027h2.304v0.2h-2.304v7.029h2.304v0.2h-2.304v7.028h3.907v0.2
		h-3.907v7.028h2.304v0.2h-2.304v7.027h2.304v0.2h-2.304v7.028h2.304v0.2h-2.304v7.027h3.907v0.2h-3.907v7.029h2.304v0.2h-2.304
		v7.027h2.304v0.2h-2.304v7.028h2.304v0.2h-2.304v7.027h3.907v0.2h-3.907v7.029h2.304v0.2h-2.304v7.028h2.304v0.2h-2.304v7.028
		h2.304v0.199h-2.304v7.029h3.907v0.199h-3.907v7.028h2.304v0.199h-2.304v7.028h2.304v0.199h-2.304v7.029h2.304v0.199h-2.304v7.029
		h3.907v0.199h-3.907v7.028h2.304v0.199h-2.304v7.028h2.304v0.199h-2.304v7.028h2.304v0.199h-2.304v7.03h3.907v0.199h-3.907v7.027
		h2.304v0.199h-2.304v7.03h2.304v0.199h-2.304v7.028h2.304v0.199h-2.304v3.12v3.909h3.907h16.801v-2.306h0.2v2.306h20.708v-2.306
		h0.2v2.306H81.02v-2.306h0.2v2.306h20.708v-2.306h0.2v2.306h20.708v-3.909h0.2v3.909h20.709v-2.306h0.2v2.306h20.708v-2.306h0.2
		v2.306h20.709v-2.306h0.199v2.306h20.709v-2.306h0.199v2.306h20.71v-3.909h0.199v3.909h20.708v-2.306h0.199v2.306h20.71v-2.306
		h0.199v2.306h20.709v-2.306h0.199v2.306h20.71v-2.306h0.199v2.306h20.709v-3.909h0.199v3.909h20.709v-2.306h0.199v2.306h6.87v0.199
		H22.402h-3.907v6.601h-0.2v-6.601h-6.87v-0.199h6.87v-3.909V1.024z M7.98,7.342l3.843-5.924h1.713v5.924h1.444v1.007h-1.444v1.979
		H12.32V8.349H7.98V7.342z M9.101,91.468c-0.253-0.366-0.38-0.786-0.38-1.26c0-0.291,0.059-0.571,0.177-0.843
		c0.12-0.271,0.299-0.512,0.538-0.724c0.241-0.213,0.541-0.382,0.901-0.507c0.362-0.127,0.786-0.19,1.273-0.19
		c0.463,0,0.868,0.049,1.217,0.148c0.348,0.098,0.641,0.239,0.879,0.425c0.238,0.183,0.416,0.406,0.534,0.669
		c0.118,0.262,0.177,0.554,0.177,0.875c0,0.525-0.143,0.972-0.429,1.341c-0.284,0.367-0.698,0.689-1.24,0.965
		c0.265,0.134,0.507,0.281,0.726,0.441c0.219,0.159,0.409,0.338,0.571,0.536c0.162,0.197,0.287,0.417,0.376,0.659
		c0.091,0.242,0.136,0.511,0.136,0.807c0,0.381-0.077,0.718-0.23,1.013c-0.153,0.294-0.367,0.542-0.643,0.744
		c-0.275,0.201-0.601,0.354-0.975,0.459c-0.375,0.105-0.782,0.157-1.221,0.157c-0.483,0-0.908-0.054-1.275-0.164
		c-0.368-0.109-0.676-0.262-0.926-0.459c-0.248-0.197-0.435-0.43-0.562-0.7c-0.125-0.27-0.188-0.567-0.188-0.892
		c0-0.549,0.144-1.021,0.433-1.418c0.29-0.398,0.766-0.76,1.426-1.087C9.787,92.165,9.355,91.834,9.101,91.468z M8.627,120.786
		c0.059-0.43,0.157-0.834,0.293-1.214c0.137-0.38,0.319-0.729,0.547-1.045c0.229-0.317,0.512-0.588,0.851-0.814
		c0.339-0.227,0.739-0.404,1.198-0.529c0.461-0.126,0.994-0.188,1.599-0.188h0.882v1.006h-0.932c-0.539,0-1.008,0.066-1.404,0.199
		c-0.395,0.131-0.727,0.316-0.996,0.558c-0.266,0.24-0.472,0.53-0.616,0.87c-0.143,0.339-0.233,0.718-0.27,1.138l-0.026,0.288
		c0.29-0.176,0.624-0.316,1-0.424s0.784-0.162,1.223-0.162c0.453,0,0.85,0.067,1.19,0.199s0.622,0.315,0.848,0.549
		c0.228,0.235,0.399,0.518,0.512,0.848c0.114,0.327,0.171,0.688,0.171,1.077c0,0.412-0.074,0.798-0.223,1.158
		c-0.147,0.358-0.358,0.671-0.632,0.938c-0.273,0.267-0.602,0.477-0.987,0.63c-0.385,0.151-0.812,0.228-1.282,0.228
		c-0.493,0-0.928-0.079-1.306-0.236c-0.377-0.159-0.694-0.402-0.949-0.729c-0.255-0.327-0.449-0.74-0.582-1.238
		c-0.133-0.501-0.199-1.091-0.199-1.771C8.537,121.661,8.567,121.217,8.627,120.786z M14.588,65.538
		c-0.137,0.566-0.345,1.052-0.625,1.459c-0.28,0.407-0.628,0.721-1.044,0.943c-0.414,0.222-0.901,0.332-1.461,0.332
		c-0.481,0-0.919-0.09-1.312-0.271c-0.394-0.181-0.732-0.459-1.013-0.835c-0.28-0.377-0.496-0.856-0.648-1.438
		c-0.15-0.583-0.225-1.273-0.225-2.071c0-0.688,0.07-1.317,0.21-1.886c0.14-0.57,0.349-1.058,0.626-1.463
		c0.278-0.407,0.626-0.721,1.043-0.943c0.417-0.222,0.904-0.333,1.459-0.333c0.481,0,0.919,0.091,1.313,0.272
		c0.393,0.181,0.73,0.461,1.01,0.84c0.282,0.379,0.498,0.859,0.648,1.441c0.151,0.582,0.227,1.273,0.227,2.072
		C14.796,64.344,14.727,64.971,14.588,65.538z M12.832,32.151c-0.06-0.203-0.153-0.38-0.28-0.532
		c-0.127-0.152-0.292-0.271-0.494-0.359c-0.202-0.089-0.443-0.133-0.725-0.133c-0.389,0-0.743,0.086-1.063,0.258
		c-0.319,0.171-0.612,0.392-0.879,0.665l-0.676-0.799c0.34-0.341,0.731-0.614,1.175-0.82c0.444-0.207,0.961-0.31,1.551-0.31
		c0.401,0,0.765,0.059,1.093,0.177c0.33,0.118,0.614,0.289,0.854,0.514c0.239,0.224,0.424,0.499,0.555,0.824
		c0.131,0.326,0.197,0.692,0.197,1.099c0,0.344-0.044,0.662-0.133,0.956c-0.088,0.293-0.221,0.585-0.399,0.877
		c-0.177,0.29-0.402,0.59-0.673,0.901c-0.27,0.311-0.602,0.653-0.996,1.028l-1.669,1.604h4.29v1.12H8.68v-1.053l2.378-2.329
		c0.389-0.38,0.706-0.708,0.949-0.985c0.245-0.278,0.435-0.532,0.571-0.761c0.136-0.229,0.227-0.445,0.274-0.647
		c0.048-0.205,0.072-0.425,0.072-0.661C12.924,32.563,12.893,32.352,12.832,32.151z M7.977,151.901l3.843-5.924h1.713v5.924h1.444
		v1.006h-1.444v1.979h-1.216v-1.979h-4.34V151.901z M3.894,1.305H4.9v7.884h1.96v1.12h-5.6v-1.12h2.38V2.654L1.422,3.818L0.98,2.805
		L3.894,1.305z M3.894,30.217H4.9v7.884h1.96v1.12h-5.6v-1.12h2.38v-6.535L1.422,32.73L0.98,31.717L3.894,30.217z M3.894,59.129H4.9
		v7.883h1.96v1.12h-5.6v-1.12h2.38v-6.534l-2.218,1.164L0.98,60.629L3.894,59.129z"/>
	<polygon fill="#FFFFFF" points="12.317,147.128 9.178,151.901 12.317,151.901 	"/>
	<path fill="#FF00FF" d="M103.529,153.319c0,0.078-0.011,0.154-0.023,0.23l19.048-12.431c-0.253-0.067-0.489-0.195-0.678-0.383
		c-0.281-0.282-0.439-0.664-0.439-1.062c0-0.078,0.011-0.154,0.023-0.23l-19.048,12.431c0.253,0.067,0.489,0.194,0.677,0.382
		C103.37,152.54,103.529,152.921,103.529,153.319z"/>
	<path fill="#FF00FF" d="M124.437,139.675c0,0.087-0.011,0.172-0.025,0.257l19.025-11.915c-0.244-0.069-0.47-0.192-0.652-0.374
		c-0.281-0.28-0.439-0.662-0.439-1.062c0-0.087,0.011-0.172,0.025-0.257l-19.026,11.915c0.243,0.069,0.47,0.193,0.652,0.376
		C124.279,138.896,124.437,139.277,124.437,139.675z"/>
	<path fill="#FF00FF" d="M145.346,126.581c0,0.095-0.01,0.188-0.028,0.28l19-11.45c-0.233-0.071-0.45-0.192-0.626-0.368
		c-0.281-0.281-0.439-0.663-0.439-1.06c0-0.095,0.01-0.188,0.028-0.28l-19.002,11.45c0.233,0.071,0.451,0.192,0.627,0.367
		C145.187,125.803,145.346,126.184,145.346,126.581z"/>
	<path fill="#FF00FF" d="M312.614,30.732c0,0.088-0.011,0.174-0.025,0.26l19.003-11.6c-0.235-0.071-0.454-0.192-0.631-0.369
		c-0.281-0.283-0.438-0.663-0.438-1.061c0-0.092,0.011-0.183,0.026-0.272l-19.01,11.611c0.236,0.07,0.457,0.192,0.635,0.371
		C312.455,29.953,312.614,30.334,312.614,30.732z"/>
	<path fill="#FF00FF" d="M82.62,167.067c0,0.076-0.011,0.151-0.022,0.226l19.054-12.528c-0.256-0.066-0.494-0.194-0.684-0.385
		c-0.281-0.283-0.439-0.663-0.439-1.061c0-0.076,0.011-0.151,0.022-0.226l-19.053,12.528c0.255,0.067,0.493,0.195,0.683,0.385
		C82.462,166.289,82.62,166.67,82.62,167.067z"/>
	<path fill="#FF00FF" d="M40.803,195.236c0,0.069-0.011,0.137-0.021,0.205l19.071-12.924c-0.264-0.065-0.508-0.197-0.703-0.392
		c-0.281-0.281-0.439-0.663-0.439-1.06c0-0.069,0.011-0.138,0.021-0.205l-19.07,12.924c0.263,0.064,0.506,0.195,0.701,0.39
		C40.645,194.456,40.803,194.838,40.803,195.236z"/>
	<path fill="#FF00FF" d="M61.712,181.066c0,0.072-0.011,0.143-0.021,0.213l19.063-12.763c-0.26-0.065-0.502-0.195-0.695-0.388
		c-0.281-0.282-0.439-0.663-0.439-1.062c0-0.072,0.011-0.143,0.021-0.213l-19.063,12.763c0.26,0.065,0.501,0.195,0.694,0.388
		C61.553,180.286,61.712,180.668,61.712,181.066z"/>
	<path fill="#FF00FF" d="M291.705,39.739c0,0.166-0.033,0.326-0.086,0.479l18.869-8.128c-0.16-0.073-0.309-0.171-0.436-0.297
		c-0.28-0.281-0.438-0.663-0.438-1.061c0-0.166,0.033-0.326,0.085-0.479L290.83,38.38c0.16,0.074,0.309,0.171,0.436,0.298
		C291.547,38.959,291.705,39.341,291.705,39.739z"/>
	<path fill="#FF00FF" d="M187.163,100.076c0,0.114-0.017,0.226-0.042,0.336l18.963-10.5c-0.214-0.073-0.411-0.188-0.574-0.351
		c-0.281-0.282-0.438-0.663-0.438-1.062c0-0.114,0.017-0.226,0.042-0.335l-18.96,10.501c0.212,0.074,0.408,0.189,0.569,0.351
		C187.004,99.297,187.163,99.678,187.163,100.076z"/>
	<path fill="#FF00FF" d="M270.797,52.812c0,0.087-0.011,0.173-0.025,0.258l19.023-11.895c-0.243-0.07-0.469-0.193-0.651-0.376
		c-0.28-0.281-0.438-0.663-0.438-1.06c0-0.083,0.011-0.163,0.024-0.244l-19.021,11.882c0.242,0.07,0.467,0.193,0.648,0.374
		C270.638,52.033,270.797,52.413,270.797,52.812z"/>
	<path fill="#FF00FF" d="M166.254,113.983c0,0.074-0.011,0.145-0.021,0.217l19.056-12.678c-0.257-0.066-0.496-0.195-0.687-0.386
		c-0.28-0.28-0.438-0.662-0.438-1.06c0-0.074,0.011-0.146,0.021-0.217l-19.059,12.677c0.258,0.066,0.497,0.195,0.689,0.386
		C166.096,113.203,166.254,113.585,166.254,113.983z"/>
	<path fill="#FF00FF" d="M208.071,88.5c0,0.095-0.011,0.189-0.028,0.281l19.003-11.435c-0.234-0.071-0.451-0.192-0.627-0.368
		c-0.281-0.281-0.438-0.662-0.438-1.06c0-0.095,0.01-0.189,0.027-0.281l-19.002,11.436c0.232,0.071,0.45,0.192,0.626,0.368
		C207.913,87.722,208.071,88.103,208.071,88.5z"/>
	<path fill="#FF00FF" d="M249.888,64.533c0,0.111-0.016,0.22-0.039,0.327l18.969-10.634c-0.217-0.073-0.417-0.189-0.581-0.354
		c-0.281-0.282-0.439-0.663-0.439-1.061c0-0.111,0.016-0.221,0.039-0.328l-18.969,10.634c0.216,0.073,0.417,0.188,0.582,0.353
		C249.73,63.754,249.888,64.135,249.888,64.533z"/>
	<path fill="#FF00FF" d="M333.522,17.962c0,0.141-0.026,0.277-0.064,0.41l18.91-9.258c-0.185-0.075-0.354-0.185-0.498-0.328
		c-0.281-0.282-0.439-0.663-0.439-1.061c0-0.141,0.026-0.277,0.064-0.411l-18.904,9.26c0.183,0.075,0.35,0.185,0.492,0.326
		C333.364,17.183,333.522,17.564,333.522,17.962z"/>
	<path fill="#FF00FF" d="M228.98,75.918c0,0.118-0.019,0.234-0.045,0.347l18.955-10.322c-0.209-0.074-0.403-0.188-0.563-0.349
		c-0.281-0.282-0.439-0.664-0.439-1.061c0-0.118,0.019-0.233,0.045-0.347l-18.955,10.323c0.209,0.074,0.403,0.189,0.562,0.349
		C228.821,75.139,228.98,75.521,228.98,75.918z"/>
	<path d="M39.303,196.736c0.398,0,0.779-0.159,1.061-0.44c0.232-0.233,0.375-0.533,0.419-0.854c0.01-0.068,0.021-0.136,0.021-0.205
		c0-0.398-0.158-0.78-0.439-1.062c-0.195-0.194-0.438-0.325-0.701-0.39c-0.117-0.029-0.237-0.049-0.359-0.049
		c-0.398,0-0.779,0.157-1.061,0.438c-0.281,0.281-0.439,0.663-0.439,1.062c0,0.397,0.158,0.777,0.439,1.06
		C38.524,196.577,38.905,196.736,39.303,196.736z"/>
	<path d="M59.151,182.126c0.195,0.194,0.439,0.326,0.703,0.392c0.117,0.029,0.236,0.049,0.358,0.049c0.397,0,0.779-0.159,1.06-0.44
		c0.23-0.23,0.373-0.528,0.418-0.847c0.011-0.07,0.021-0.141,0.021-0.213c0-0.398-0.159-0.78-0.44-1.062
		c-0.192-0.192-0.434-0.322-0.694-0.388c-0.119-0.03-0.241-0.051-0.366-0.051c-0.398,0-0.78,0.157-1.061,0.438
		c-0.232,0.232-0.374,0.534-0.418,0.856c-0.01,0.067-0.021,0.136-0.021,0.205C58.712,181.463,58.87,181.845,59.151,182.126z"/>
	<path d="M80.059,168.129c0.193,0.192,0.435,0.322,0.695,0.388c0.119,0.03,0.241,0.051,0.366,0.051c0.398,0,0.779-0.157,1.061-0.438
		c0.227-0.229,0.369-0.521,0.417-0.836c0.012-0.074,0.022-0.149,0.022-0.226c0-0.397-0.158-0.778-0.439-1.061
		c-0.19-0.189-0.428-0.317-0.683-0.385c-0.123-0.032-0.249-0.055-0.378-0.055c-0.398,0-0.779,0.158-1.061,0.439
		c-0.23,0.231-0.372,0.529-0.418,0.848c-0.01,0.07-0.021,0.141-0.021,0.213C79.62,167.466,79.778,167.847,80.059,168.129z"/>
	<path d="M100.968,154.38c0.19,0.19,0.428,0.318,0.684,0.385c0.123,0.032,0.248,0.055,0.377,0.055c0.397,0,0.779-0.158,1.06-0.439
		c0.226-0.228,0.368-0.519,0.417-0.83c0.012-0.076,0.023-0.152,0.023-0.23c0-0.398-0.159-0.779-0.44-1.062
		c-0.188-0.188-0.424-0.314-0.677-0.382c-0.125-0.033-0.252-0.056-0.383-0.056c-0.398,0-0.78,0.157-1.061,0.438
		c-0.227,0.229-0.369,0.522-0.417,0.837c-0.012,0.074-0.022,0.149-0.022,0.226C100.529,153.717,100.687,154.097,100.968,154.38z"/>
	<path d="M121.876,140.736c0.189,0.188,0.425,0.315,0.678,0.383c0.125,0.032,0.252,0.056,0.383,0.056
		c0.398,0,0.779-0.158,1.061-0.438c0.22-0.221,0.361-0.503,0.414-0.805c0.015-0.085,0.025-0.17,0.025-0.257
		c0-0.397-0.158-0.778-0.439-1.06c-0.183-0.183-0.409-0.307-0.652-0.376c-0.132-0.038-0.269-0.064-0.409-0.064
		c-0.398,0-0.779,0.158-1.061,0.44c-0.226,0.227-0.367,0.518-0.416,0.829c-0.012,0.076-0.023,0.152-0.023,0.23
		C121.437,140.072,121.595,140.454,121.876,140.736z"/>
	<path d="M142.785,127.643c0.182,0.182,0.408,0.305,0.652,0.374c0.132,0.038,0.269,0.064,0.409,0.064
		c0.397,0,0.779-0.158,1.06-0.438c0.214-0.214,0.356-0.486,0.412-0.781c0.018-0.092,0.028-0.186,0.028-0.28
		c0-0.397-0.159-0.778-0.44-1.062c-0.176-0.175-0.394-0.296-0.627-0.367c-0.14-0.042-0.285-0.071-0.433-0.071
		c-0.398,0-0.78,0.159-1.061,0.438c-0.22,0.222-0.361,0.503-0.414,0.805c-0.015,0.085-0.025,0.17-0.025,0.257
		C142.346,126.98,142.504,127.362,142.785,127.643z"/>
	<path d="M163.693,115.043c0.176,0.176,0.393,0.297,0.626,0.368c0.14,0.043,0.286,0.072,0.435,0.072c0.398,0,0.779-0.158,1.061-0.44
		c0.229-0.229,0.371-0.526,0.417-0.843c0.011-0.072,0.021-0.144,0.021-0.217c0-0.398-0.158-0.78-0.439-1.061
		c-0.192-0.191-0.431-0.32-0.689-0.386c-0.121-0.031-0.245-0.053-0.372-0.053c-0.398,0-0.779,0.158-1.061,0.439
		c-0.214,0.214-0.355,0.487-0.411,0.781c-0.018,0.092-0.028,0.186-0.028,0.28C163.254,114.38,163.412,114.762,163.693,115.043z"/>
	<path d="M184.602,101.136c0.19,0.191,0.43,0.32,0.687,0.386c0.122,0.032,0.247,0.054,0.375,0.054c0.396,0,0.779-0.158,1.06-0.44
		c0.2-0.2,0.336-0.452,0.398-0.724c0.025-0.11,0.042-0.222,0.042-0.336c0-0.398-0.159-0.779-0.44-1.06
		c-0.161-0.162-0.357-0.277-0.569-0.351c-0.157-0.055-0.321-0.089-0.49-0.089c-0.398,0-0.78,0.159-1.062,0.44
		c-0.229,0.229-0.37,0.526-0.417,0.843c-0.011,0.072-0.021,0.144-0.021,0.217C184.163,100.474,184.321,100.856,184.602,101.136z"/>
	<path d="M205.51,89.562c0.163,0.162,0.36,0.277,0.574,0.351c0.155,0.054,0.319,0.087,0.487,0.087c0.397,0,0.778-0.157,1.061-0.438
		c0.214-0.215,0.355-0.487,0.411-0.781c0.018-0.092,0.028-0.186,0.028-0.281c0-0.397-0.158-0.778-0.439-1.06
		c-0.176-0.175-0.394-0.296-0.626-0.368c-0.141-0.043-0.285-0.072-0.435-0.072c-0.398,0-0.779,0.159-1.062,0.44
		c-0.2,0.201-0.334,0.453-0.396,0.725c-0.025,0.109-0.042,0.221-0.042,0.335C205.071,88.899,205.229,89.28,205.51,89.562z"/>
	<path d="M226.419,76.978c0.176,0.176,0.393,0.297,0.627,0.368c0.14,0.042,0.285,0.072,0.435,0.072c0.396,0,0.778-0.158,1.06-0.44
		c0.197-0.198,0.331-0.446,0.396-0.713c0.026-0.113,0.045-0.229,0.045-0.347c0-0.397-0.159-0.779-0.44-1.06
		c-0.159-0.16-0.354-0.274-0.562-0.349c-0.159-0.056-0.325-0.091-0.497-0.091c-0.398,0-0.78,0.159-1.062,0.44
		c-0.214,0.214-0.354,0.486-0.411,0.779c-0.018,0.092-0.027,0.186-0.027,0.281C225.98,76.316,226.138,76.697,226.419,76.978z"/>
	<path d="M247.327,65.594c0.16,0.16,0.354,0.274,0.563,0.349c0.159,0.056,0.325,0.091,0.497,0.091c0.398,0,0.779-0.158,1.062-0.439
		c0.202-0.203,0.338-0.458,0.399-0.733c0.023-0.107,0.039-0.216,0.039-0.327c0-0.398-0.157-0.779-0.438-1.062
		c-0.165-0.165-0.366-0.28-0.582-0.353c-0.154-0.052-0.314-0.085-0.479-0.085c-0.397,0-0.778,0.157-1.061,0.438
		c-0.198,0.199-0.331,0.448-0.395,0.715c-0.026,0.113-0.045,0.229-0.045,0.347C246.888,64.93,247.046,65.312,247.327,65.594z"/>
	<path d="M268.236,53.873c0.164,0.164,0.364,0.28,0.581,0.354c0.153,0.052,0.314,0.085,0.479,0.085c0.397,0,0.779-0.158,1.061-0.439
		c0.219-0.22,0.36-0.501,0.414-0.803c0.015-0.084,0.025-0.17,0.025-0.258c0-0.399-0.159-0.779-0.439-1.061
		c-0.182-0.181-0.406-0.304-0.648-0.374c-0.134-0.038-0.271-0.065-0.412-0.065c-0.397,0-0.78,0.158-1.061,0.439
		c-0.203,0.203-0.339,0.458-0.4,0.733c-0.023,0.107-0.039,0.216-0.039,0.328C267.797,53.21,267.955,53.591,268.236,53.873z"/>
	<path d="M289.144,40.799c0.183,0.183,0.408,0.306,0.651,0.376c0.133,0.038,0.27,0.064,0.41,0.064c0.397,0,0.779-0.158,1.061-0.44
		c0.164-0.164,0.28-0.365,0.354-0.581c0.053-0.154,0.086-0.314,0.086-0.479c0-0.398-0.158-0.78-0.439-1.061
		c-0.127-0.126-0.275-0.224-0.436-0.298c-0.194-0.09-0.406-0.142-0.625-0.142c-0.398,0-0.779,0.158-1.062,0.439
		c-0.223,0.223-0.363,0.51-0.414,0.817c-0.014,0.081-0.024,0.161-0.024,0.244C288.705,40.136,288.863,40.518,289.144,40.799z"/>
	<path d="M310.053,31.793c0.127,0.126,0.275,0.224,0.436,0.297c0.195,0.09,0.407,0.142,0.626,0.142c0.396,0,0.778-0.158,1.06-0.439
		c0.219-0.219,0.361-0.5,0.415-0.801c0.015-0.085,0.025-0.172,0.025-0.26c0-0.398-0.159-0.779-0.44-1.06
		c-0.178-0.179-0.398-0.301-0.635-0.371c-0.138-0.041-0.279-0.069-0.425-0.069c-0.398,0-0.78,0.157-1.062,0.44
		c-0.164,0.165-0.28,0.365-0.354,0.581c-0.052,0.154-0.085,0.314-0.085,0.479C309.614,31.13,309.772,31.512,310.053,31.793z"/>
	<path d="M330.961,19.023c0.177,0.177,0.396,0.298,0.631,0.369c0.139,0.042,0.282,0.07,0.431,0.07c0.397,0,0.778-0.158,1.061-0.439
		c0.182-0.183,0.306-0.408,0.375-0.651c0.038-0.133,0.064-0.27,0.064-0.41c0-0.398-0.158-0.779-0.439-1.061
		c-0.143-0.142-0.31-0.251-0.492-0.326c-0.179-0.073-0.371-0.113-0.568-0.113c-0.398,0-0.779,0.158-1.062,0.439
		c-0.216,0.217-0.357,0.492-0.412,0.789c-0.016,0.089-0.026,0.18-0.026,0.272C330.522,18.36,330.68,18.74,330.961,19.023z"/>
	<path d="M351.87,8.786c0.144,0.143,0.313,0.253,0.498,0.328c0.177,0.072,0.367,0.111,0.562,0.111c0.397,0,0.779-0.158,1.061-0.439
		c0.281-0.282,0.439-0.663,0.439-1.061s-0.158-0.779-0.439-1.062c-0.281-0.28-0.663-0.438-1.061-0.438s-0.779,0.158-1.061,0.438
		c-0.182,0.183-0.306,0.409-0.375,0.651c-0.038,0.133-0.064,0.27-0.064,0.411C351.431,8.123,351.589,8.504,351.87,8.786z"/>
	<rect x="39.203" y="207.287" width="0.2" height="2.306"/>
	<rect x="60.112" y="207.287" width="0.2" height="2.306"/>
	<rect x="81.02" y="207.287" width="0.2" height="2.306"/>
	<rect x="101.929" y="207.287" width="0.2" height="2.306"/>
	<rect x="122.837" y="205.684" width="0.2" height="3.909"/>
	<path d="M124.721,217.866c-0.312-0.194-0.668-0.329-1.068-0.405c-0.399-0.077-0.817-0.116-1.253-0.116h-0.792v-2.493h3.69v-1.007
		h-4.81v4.507h1.704c0.76,0,1.342,0.127,1.748,0.383c0.405,0.254,0.608,0.658,0.608,1.217c0,0.288-0.055,0.548-0.166,0.777
		c-0.111,0.231-0.271,0.429-0.479,0.592c-0.207,0.163-0.459,0.289-0.755,0.376c-0.295,0.086-0.626,0.129-0.995,0.129
		c-0.328,0-0.653-0.015-0.974-0.041c-0.319-0.028-0.596-0.071-0.831-0.129v1.08c0.114,0.026,0.241,0.049,0.383,0.067
		c0.143,0.02,0.289,0.029,0.44,0.029c0.15,0,0.301,0,0.452,0c0.152,0,0.293,0,0.425,0c0.525,0,1.013-0.073,1.465-0.217
		c0.454-0.146,0.847-0.35,1.179-0.61c0.334-0.261,0.596-0.573,0.786-0.937c0.191-0.363,0.286-0.766,0.286-1.205
		c0-0.49-0.095-0.897-0.286-1.222S125.034,218.058,124.721,217.866z"/>
	<rect x="143.746" y="207.287" width="0.2" height="2.306"/>
	<rect x="164.654" y="207.287" width="0.2" height="2.306"/>
	<rect x="185.563" y="207.287" width="0.199" height="2.306"/>
	<rect x="206.472" y="207.287" width="0.199" height="2.306"/>
	<rect x="227.381" y="205.684" width="0.199" height="3.909"/>
	<polygon points="224.682,213.688 223.676,213.688 220.762,215.188 221.204,216.201 223.422,215.037 223.422,221.572 
		221.042,221.572 221.042,222.692 226.642,222.692 226.642,221.572 224.682,221.572 	"/>
	<path d="M233.703,214.703c-0.28-0.379-0.617-0.659-1.01-0.84c-0.395-0.182-0.832-0.271-1.313-0.271
		c-0.556,0-1.042,0.11-1.459,0.332c-0.417,0.223-0.765,0.536-1.043,0.943c-0.277,0.405-0.486,0.893-0.626,1.463
		c-0.14,0.569-0.21,1.198-0.21,1.886c0,0.798,0.075,1.488,0.225,2.071c0.152,0.582,0.368,1.061,0.648,1.438
		c0.281,0.376,0.619,0.654,1.013,0.835c0.394,0.182,0.831,0.272,1.312,0.272c0.56,0,1.047-0.111,1.461-0.333
		c0.416-0.222,0.764-0.536,1.044-0.943c0.28-0.406,0.488-0.893,0.625-1.459c0.139-0.566,0.208-1.193,0.208-1.881
		c0-0.799-0.076-1.49-0.228-2.072C234.201,215.562,233.985,215.082,233.703,214.703z M229.287,219.017
		c-0.02-0.135-0.029-0.272-0.029-0.416c0-0.143,0-0.285,0-0.429c0-0.585,0.048-1.099,0.146-1.544
		c0.096-0.445,0.233-0.818,0.413-1.12c0.179-0.302,0.396-0.529,0.651-0.681c0.255-0.153,0.539-0.229,0.852-0.229
		c0.234,0,0.445,0.039,0.634,0.118c0.189,0.079,0.357,0.189,0.503,0.33c0.147,0.14,0.275,0.307,0.381,0.501
		c0.106,0.193,0.194,0.406,0.262,0.642L229.287,219.017z M233.362,218.255c0,0.587-0.048,1.103-0.145,1.547
		c-0.095,0.445-0.231,0.817-0.412,1.118c-0.178,0.299-0.393,0.525-0.646,0.678c-0.254,0.151-0.537,0.228-0.85,0.228
		c-0.241,0-0.459-0.04-0.649-0.12c-0.189-0.082-0.358-0.195-0.507-0.339c-0.147-0.146-0.273-0.319-0.379-0.521
		s-0.191-0.424-0.261-0.665l3.813-2.843c0.022,0.147,0.035,0.298,0.035,0.452C233.362,217.944,233.362,218.099,233.362,218.255z"/>
	<rect x="248.288" y="207.287" width="0.199" height="2.306"/>
	<rect x="269.197" y="207.287" width="0.199" height="2.306"/>
	<rect x="290.105" y="207.287" width="0.199" height="2.306"/>
	<rect x="311.015" y="207.287" width="0.199" height="2.306"/>
	<rect x="331.923" y="205.684" width="0.199" height="3.909"/>
	<polygon points="329.225,213.688 328.219,213.688 325.305,215.188 325.747,216.201 327.965,215.037 327.965,221.572 
		325.585,221.572 325.585,222.692 331.185,222.692 331.185,221.572 329.225,221.572 	"/>
	<path d="M337.658,217.866c-0.312-0.194-0.668-0.329-1.068-0.405c-0.398-0.077-0.816-0.116-1.253-0.116h-0.792v-2.493h3.69v-1.007
		h-4.811v4.507h1.704c0.76,0,1.342,0.127,1.748,0.383c0.405,0.254,0.608,0.658,0.608,1.217c0,0.288-0.056,0.548-0.166,0.777
		c-0.111,0.231-0.271,0.429-0.479,0.592c-0.207,0.163-0.459,0.289-0.755,0.376c-0.295,0.086-0.626,0.129-0.995,0.129
		c-0.328,0-0.652-0.015-0.974-0.041c-0.319-0.028-0.597-0.071-0.831-0.129v1.08c0.114,0.026,0.241,0.049,0.383,0.067
		c0.143,0.02,0.289,0.029,0.44,0.029c0.149,0,0.301,0,0.451,0c0.152,0,0.293,0,0.426,0c0.524,0,1.013-0.073,1.465-0.217
		c0.454-0.146,0.847-0.35,1.179-0.61c0.334-0.261,0.596-0.573,0.786-0.937c0.191-0.363,0.286-0.766,0.286-1.205
		c0-0.49-0.095-0.897-0.286-1.222S337.971,218.058,337.658,217.866z"/>
	<rect x="352.831" y="207.287" width="0.199" height="2.306"/>
	<polygon points="18.295,209.593 11.425,209.593 11.425,209.792 18.295,209.792 18.295,209.692 	"/>
	<polygon points="359.9,209.792 359.9,209.593 353.03,209.593 352.831,209.593 332.122,209.593 331.923,209.593 311.214,209.593 
		311.015,209.593 290.305,209.593 290.105,209.593 269.396,209.593 269.197,209.593 248.487,209.593 248.288,209.593 
		227.58,209.593 227.381,209.593 206.671,209.593 206.472,209.593 185.763,209.593 185.563,209.593 164.854,209.593 
		164.654,209.593 143.946,209.593 143.746,209.593 123.037,209.593 122.837,209.593 102.129,209.593 101.929,209.593 81.22,209.593 
		81.02,209.593 60.312,209.593 60.112,209.593 39.403,209.593 39.203,209.593 22.402,209.593 22.402,209.792 	"/>
	<polygon points="18.495,209.792 22.402,209.792 22.402,209.593 18.495,209.593 18.495,209.692 	"/>
	<rect x="18.495" y="202.364" width="2.304" height="0.199"/>
	<rect x="18.495" y="195.137" width="2.304" height="0.199"/>
	<rect x="18.495" y="187.907" width="2.304" height="0.199"/>
	<rect x="18.495" y="180.681" width="3.907" height="0.199"/>
	<path d="M12.575,178.652c-0.135,0.229-0.326,0.482-0.571,0.761c-0.243,0.277-0.56,0.604-0.949,0.985l-2.378,2.328v1.054h5.88v-1.12
		h-4.29l1.669-1.604c0.394-0.375,0.726-0.717,0.996-1.027c0.271-0.312,0.496-0.611,0.673-0.901c0.178-0.292,0.311-0.584,0.399-0.877
		c0.089-0.294,0.133-0.612,0.133-0.956c0-0.407-0.066-0.772-0.197-1.099c-0.131-0.325-0.316-0.601-0.555-0.824
		c-0.24-0.225-0.524-0.396-0.854-0.514c-0.328-0.118-0.692-0.178-1.093-0.178c-0.59,0-1.107,0.104-1.551,0.311
		c-0.444,0.206-0.835,0.479-1.175,0.819l0.676,0.8c0.267-0.273,0.56-0.494,0.879-0.665c0.32-0.172,0.674-0.259,1.063-0.259
		c0.282,0,0.523,0.045,0.725,0.134c0.202,0.088,0.367,0.207,0.494,0.358c0.127,0.152,0.22,0.329,0.28,0.532
		c0.061,0.201,0.092,0.412,0.092,0.634c0,0.236-0.024,0.456-0.072,0.661C12.802,178.207,12.711,178.423,12.575,178.652z"/>
	<rect x="18.495" y="173.451" width="2.304" height="0.199"/>
	<rect x="18.495" y="166.224" width="2.304" height="0.199"/>
	<rect x="18.495" y="158.996" width="2.304" height="0.199"/>
	<rect x="18.495" y="151.769" width="3.907" height="0.199"/>
	<path d="M12.317,154.887h1.216v-1.979h1.444v-1.006h-1.444v-5.924H11.82l-3.843,5.924v1.006h4.34V154.887z M9.178,151.901
		l3.139-4.773v4.773H9.178z"/>
	<rect x="18.495" y="144.54" width="2.304" height="0.199"/>
	<rect x="18.495" y="137.312" width="2.304" height="0.199"/>
	<rect x="18.495" y="130.084" width="2.304" height="0.199"/>
	<rect x="18.495" y="122.856" width="3.907" height="0.199"/>
	<path d="M8.736,123.893c0.133,0.498,0.327,0.911,0.582,1.238c0.255,0.326,0.572,0.569,0.949,0.729
		c0.378,0.157,0.813,0.236,1.306,0.236c0.47,0,0.897-0.076,1.282-0.228c0.385-0.153,0.714-0.363,0.987-0.63
		c0.274-0.268,0.485-0.58,0.632-0.938c0.149-0.36,0.223-0.746,0.223-1.158c0-0.39-0.057-0.75-0.171-1.077
		c-0.113-0.33-0.284-0.612-0.512-0.848c-0.226-0.233-0.508-0.417-0.848-0.549s-0.737-0.199-1.19-0.199
		c-0.439,0-0.847,0.055-1.223,0.162s-0.71,0.248-1,0.424l0.026-0.288c0.037-0.42,0.127-0.799,0.27-1.138
		c0.144-0.34,0.35-0.63,0.616-0.87c0.269-0.241,0.601-0.427,0.996-0.558c0.396-0.133,0.865-0.199,1.404-0.199h0.932v-1.006h-0.882
		c-0.605,0-1.138,0.062-1.599,0.188c-0.459,0.125-0.859,0.303-1.198,0.529c-0.339,0.227-0.622,0.497-0.851,0.814
		c-0.228,0.315-0.41,0.665-0.547,1.045c-0.136,0.38-0.234,0.784-0.293,1.214c-0.06,0.431-0.09,0.875-0.09,1.335
		C8.537,122.802,8.603,123.392,8.736,123.893z M10.182,121.843c0.158-0.07,0.322-0.135,0.494-0.189
		c0.172-0.057,0.348-0.1,0.528-0.129c0.18-0.032,0.359-0.049,0.536-0.049c0.303,0,0.564,0.041,0.783,0.124
		c0.22,0.083,0.401,0.2,0.544,0.351c0.143,0.148,0.248,0.332,0.313,0.549c0.067,0.216,0.101,0.458,0.101,0.727
		c0,0.294-0.045,0.558-0.136,0.787c-0.089,0.229-0.213,0.424-0.372,0.586c-0.159,0.161-0.348,0.282-0.569,0.366
		c-0.218,0.083-0.459,0.124-0.721,0.124c-0.314,0-0.591-0.049-0.832-0.146c-0.239-0.1-0.441-0.266-0.606-0.497
		c-0.163-0.233-0.286-0.543-0.369-0.931c-0.082-0.386-0.123-0.866-0.123-1.442C9.882,121.991,10.025,121.914,10.182,121.843z"/>
	<rect x="18.495" y="115.628" width="2.304" height="0.199"/>
	<rect x="18.495" y="108.4" width="2.304" height="0.2"/>
	<rect x="18.495" y="101.172" width="2.304" height="0.2"/>
	<rect x="18.495" y="93.943" width="3.907" height="0.2"/>
	<path d="M8.97,93.55c-0.289,0.397-0.433,0.869-0.433,1.418c0,0.325,0.063,0.622,0.188,0.892c0.127,0.27,0.314,0.503,0.562,0.7
		c0.25,0.197,0.558,0.35,0.926,0.459c0.367,0.11,0.792,0.164,1.275,0.164c0.439,0,0.846-0.052,1.221-0.157
		c0.374-0.105,0.7-0.258,0.975-0.459c0.276-0.202,0.49-0.45,0.643-0.744c0.153-0.295,0.23-0.632,0.23-1.013
		c0-0.296-0.045-0.565-0.136-0.807c-0.089-0.242-0.214-0.462-0.376-0.659c-0.162-0.198-0.352-0.377-0.571-0.536
		c-0.219-0.16-0.461-0.307-0.726-0.441c0.542-0.276,0.956-0.598,1.24-0.965c0.286-0.369,0.429-0.816,0.429-1.341
		c0-0.321-0.059-0.613-0.177-0.875c-0.118-0.263-0.296-0.486-0.534-0.669c-0.238-0.186-0.531-0.327-0.879-0.425
		c-0.349-0.099-0.754-0.148-1.217-0.148c-0.487,0-0.911,0.063-1.273,0.19c-0.36,0.125-0.66,0.294-0.901,0.507
		c-0.239,0.212-0.418,0.453-0.538,0.724c-0.118,0.272-0.177,0.552-0.177,0.843c0,0.474,0.127,0.894,0.38,1.26
		c0.254,0.366,0.686,0.697,1.295,0.995C9.736,92.79,9.26,93.152,8.97,93.55z M10.359,91.056c-0.143-0.132-0.249-0.275-0.319-0.426
		c-0.069-0.152-0.103-0.317-0.103-0.497c0-0.394,0.143-0.689,0.429-0.886c0.286-0.198,0.685-0.297,1.199-0.297
		c0.519,0,0.921,0.1,1.207,0.299c0.286,0.2,0.429,0.504,0.429,0.913c0,0.35-0.126,0.657-0.379,0.921
		c-0.251,0.264-0.635,0.517-1.153,0.761c-0.297-0.134-0.554-0.266-0.769-0.394C10.684,91.32,10.504,91.189,10.359,91.056z
		 M9.839,94.373c0.056-0.165,0.152-0.324,0.286-0.477c0.136-0.155,0.313-0.307,0.532-0.455c0.218-0.149,0.489-0.3,0.811-0.453
		c0.371,0.166,0.676,0.327,0.917,0.483c0.24,0.156,0.432,0.312,0.575,0.468c0.143,0.156,0.242,0.315,0.298,0.475
		c0.055,0.161,0.083,0.326,0.083,0.497c0,0.22-0.047,0.409-0.14,0.568c-0.094,0.158-0.22,0.288-0.381,0.392
		c-0.16,0.104-0.351,0.181-0.571,0.232c-0.22,0.049-0.454,0.074-0.702,0.074c-0.255,0-0.493-0.027-0.713-0.081
		c-0.22-0.055-0.41-0.138-0.569-0.249c-0.159-0.111-0.284-0.245-0.376-0.403c-0.091-0.159-0.136-0.341-0.136-0.546
		C9.753,94.712,9.782,94.537,9.839,94.373z"/>
	<rect x="18.495" y="86.716" width="2.304" height="0.2"/>
	<rect x="18.495" y="79.488" width="2.304" height="0.2"/>
	<rect x="18.495" y="72.261" width="2.304" height="0.2"/>
	<rect x="18.495" y="65.032" width="3.907" height="0.2"/>
	<polygon points="3.64,60.478 3.64,67.012 1.26,67.012 1.26,68.132 6.86,68.132 6.86,67.012 4.9,67.012 4.9,59.129 3.894,59.129 
		0.98,60.629 1.422,61.642 	"/>
	<path d="M14.569,61.585c-0.15-0.582-0.366-1.062-0.648-1.441c-0.28-0.379-0.617-0.659-1.01-0.84
		c-0.394-0.181-0.832-0.272-1.313-0.272c-0.555,0-1.042,0.111-1.459,0.333c-0.417,0.222-0.765,0.536-1.043,0.943
		c-0.277,0.405-0.486,0.893-0.626,1.463c-0.14,0.569-0.21,1.198-0.21,1.886c0,0.798,0.075,1.488,0.225,2.071
		c0.152,0.582,0.368,1.061,0.648,1.438c0.281,0.376,0.619,0.654,1.013,0.835c0.393,0.181,0.831,0.271,1.312,0.271
		c0.56,0,1.047-0.11,1.461-0.332c0.416-0.222,0.764-0.536,1.044-0.943c0.28-0.407,0.488-0.893,0.625-1.459
		c0.139-0.567,0.208-1.194,0.208-1.881C14.796,62.858,14.72,62.167,14.569,61.585z M9.505,64.457
		c-0.019-0.134-0.029-0.272-0.029-0.415s0-0.286,0-0.429c0-0.585,0.048-1.099,0.145-1.544c0.096-0.445,0.234-0.818,0.413-1.12
		c0.179-0.302,0.397-0.529,0.652-0.681c0.255-0.153,0.539-0.229,0.851-0.229c0.235,0,0.446,0.039,0.634,0.118
		c0.19,0.079,0.358,0.189,0.503,0.33c0.148,0.14,0.275,0.307,0.381,0.501c0.106,0.193,0.194,0.406,0.262,0.641L9.505,64.457z
		 M13.58,63.696c0,0.586-0.048,1.102-0.144,1.547c-0.095,0.445-0.232,0.817-0.412,1.118c-0.178,0.299-0.393,0.525-0.647,0.678
		c-0.254,0.151-0.537,0.227-0.849,0.227c-0.242,0-0.459-0.04-0.65-0.12c-0.189-0.082-0.358-0.195-0.507-0.339
		c-0.147-0.146-0.274-0.32-0.378-0.521c-0.105-0.202-0.192-0.424-0.261-0.665l3.813-2.843c0.023,0.147,0.035,0.298,0.035,0.452
		C13.58,63.385,13.58,63.54,13.58,63.696z"/>
	<rect x="18.495" y="57.805" width="2.304" height="0.2"/>
	<rect x="18.495" y="50.577" width="2.304" height="0.2"/>
	<rect x="18.495" y="43.349" width="2.304" height="0.2"/>
	<rect x="18.495" y="36.121" width="3.907" height="0.2"/>
	<polygon points="3.64,31.566 3.64,38.101 1.26,38.101 1.26,39.221 6.86,39.221 6.86,38.101 4.9,38.101 4.9,30.217 3.894,30.217 
		0.98,31.717 1.422,32.73 	"/>
	<path d="M12.578,34.093c-0.136,0.229-0.326,0.483-0.571,0.761c-0.243,0.277-0.56,0.605-0.949,0.985L8.68,38.168v1.053h5.88v-1.12
		h-4.29l1.669-1.604c0.394-0.375,0.726-0.717,0.996-1.028c0.271-0.311,0.496-0.611,0.673-0.901c0.178-0.292,0.311-0.584,0.399-0.877
		c0.089-0.294,0.133-0.612,0.133-0.956c0-0.407-0.066-0.773-0.197-1.099c-0.131-0.325-0.316-0.6-0.555-0.824
		c-0.24-0.225-0.524-0.396-0.854-0.514c-0.328-0.118-0.692-0.177-1.093-0.177c-0.59,0-1.107,0.103-1.551,0.31
		c-0.444,0.206-0.835,0.479-1.175,0.82l0.676,0.799c0.267-0.273,0.56-0.494,0.879-0.665c0.32-0.172,0.674-0.258,1.063-0.258
		c0.282,0,0.523,0.044,0.725,0.133c0.202,0.088,0.367,0.207,0.494,0.359c0.127,0.152,0.22,0.329,0.28,0.532
		c0.061,0.201,0.092,0.412,0.092,0.634c0,0.236-0.024,0.456-0.072,0.661C12.805,33.648,12.714,33.864,12.578,34.093z"/>
	<rect x="18.495" y="28.893" width="2.304" height="0.2"/>
	<rect x="18.495" y="21.664" width="2.304" height="0.2"/>
	<rect x="18.495" y="14.437" width="2.304" height="0.2"/>
	<rect x="18.495" y="7.209" width="3.907" height="0.2"/>
	<path d="M12.32,10.328h1.216V8.349h1.444V7.342h-1.444V1.418h-1.713L7.98,7.342v1.007h4.34V10.328z M9.181,7.342l3.139-4.773v4.773
		H9.181z"/>
	<polygon points="3.64,2.654 3.64,9.189 1.26,9.189 1.26,10.309 6.86,10.309 6.86,9.189 4.9,9.189 4.9,1.305 3.894,1.305 
		0.98,2.805 1.422,3.818 	"/>
	<polygon points="18.295,209.692 18.295,209.792 18.295,216.393 18.495,216.393 18.495,209.792 18.495,209.692 18.495,209.593 
		18.495,205.684 18.495,202.563 18.495,202.364 18.495,195.336 18.495,195.137 18.495,188.106 18.495,187.907 18.495,180.88 
		18.495,180.681 18.495,173.65 18.495,173.451 18.495,166.423 18.495,166.224 18.495,159.195 18.495,158.996 18.495,151.968 
		18.495,151.769 18.495,144.739 18.495,144.54 18.495,137.511 18.495,137.312 18.495,130.283 18.495,130.084 18.495,123.056 
		18.495,122.856 18.495,115.827 18.495,115.628 18.495,108.6 18.495,108.4 18.495,101.372 18.495,101.172 18.495,94.143 
		18.495,93.943 18.495,86.916 18.495,86.716 18.495,79.688 18.495,79.488 18.495,72.461 18.495,72.261 18.495,65.232 18.495,65.032 
		18.495,58.005 18.495,57.805 18.495,50.777 18.495,50.577 18.495,43.549 18.495,43.349 18.495,36.321 18.495,36.121 18.495,29.093 
		18.495,28.893 18.495,21.864 18.495,21.664 18.495,14.637 18.495,14.437 18.495,7.409 18.495,7.209 18.495,1.024 18.295,1.024 
		18.295,205.684 18.295,209.593 	"/>
</g>
</svg>
