<?xml version="1.0" encoding="utf-8"?>
<!-- Generator: Adobe Illustrator 16.0.4, SVG Export Plug-In . SVG Version: 6.00 Build 0)  -->
<!DOCTYPE svg PUBLIC "-//W3C//DTD SVG 1.1 Tiny//EN" "http://www.w3.org/Graphics/SVG/1.1/DTD/svg11-tiny.dtd">
<svg version="1.1" baseProfile="tiny" id="Layer_1" xmlns="http://www.w3.org/2000/svg" xmlns:xlink="http://www.w3.org/1999/xlink"
	 x="0px" y="0px" width="360px" height="215px" viewBox="0 0 360 215" xml:space="preserve">
<g>
	<g>
		<g>
		</g>
		<g>
		</g>
	</g>
	<g>
	</g>
</g>
<g>
	<path fill="#FFFFFF" d="M243.07,127.258c-0.281,0.282-0.662,0.439-1.061,0.439c-0.06,0-0.117-0.011-0.176-0.018l-28.096,24.575
		l25.515-20.285c0.04-0.148,0.08-0.297,0.131-0.438c0.138-0.38,0.319-0.729,0.547-1.045c0.229-0.317,0.513-0.588,0.852-0.814
		s0.739-0.404,1.198-0.529c0.18-0.049,0.38-0.08,0.582-0.11l3.845-4.018h-1.486l-1.414,1.215
		C243.498,126.615,243.344,126.983,243.07,127.258z"/>
	<path fill="#FFFFFF" d="M241.668,133.483c-0.18,0.029-0.355,0.072-0.528,0.129c-0.172,0.055-0.337,0.119-0.493,0.189
		c-0.158,0.071-0.301,0.148-0.43,0.23c0,0.576,0.041,1.057,0.123,1.442c0.083,0.388,0.206,0.697,0.369,0.931
		c0.165,0.231,0.367,0.397,0.606,0.497c0.24,0.097,0.518,0.146,0.832,0.146c0.262,0,0.503-0.041,0.722-0.124
		c0.22-0.084,0.409-0.205,0.568-0.366c0.158-0.161,0.282-0.356,0.371-0.586c0.092-0.229,0.137-0.493,0.137-0.787
		c0-0.269-0.034-0.511-0.102-0.727c-0.064-0.217-0.17-0.4-0.312-0.549c-0.144-0.15-0.324-0.268-0.544-0.351s-0.48-0.124-0.784-0.124
		C242.027,133.435,241.848,133.451,241.668,133.483z"/>
	<path fill="#FFFFFF" d="M206.525,153.494c0,0.397-0.158,0.78-0.44,1.061c-0.281,0.282-0.663,0.439-1.06,0.439
		c-0.14,0-0.274-0.025-0.406-0.062l-23.707,14.904l22.669-11.67c0.066-0.254,0.193-0.491,0.383-0.68
		c0.281-0.28,0.663-0.439,1.062-0.439c0.06,0,0.117,0.011,0.176,0.018l35.311-30.886c0.005-0.392,0.16-0.765,0.438-1.042
		c0.046-0.046,0.098-0.083,0.148-0.122h-3.746l-30.83,28.438C206.521,153.467,206.525,153.48,206.525,153.494z"/>
	<polygon fill="#FFFFFF" points="168.811,134.948 168.811,130.175 165.672,134.948 	"/>
	<path fill="#FFFFFF" d="M317.394,134.81c-0.143-0.155-0.335-0.312-0.574-0.468c-0.241-0.156-0.546-0.316-0.917-0.482
		c-0.322,0.152-0.594,0.304-0.812,0.452c-0.219,0.148-0.396,0.301-0.532,0.455c-0.134,0.153-0.229,0.312-0.285,0.478
		c-0.058,0.164-0.086,0.339-0.086,0.524c0,0.205,0.045,0.388,0.136,0.547c0.092,0.157,0.217,0.292,0.376,0.402
		c0.159,0.111,0.349,0.194,0.568,0.249c0.221,0.055,0.458,0.081,0.714,0.081c0.247,0,0.481-0.024,0.701-0.074
		c0.221-0.051,0.411-0.128,0.571-0.231c0.161-0.104,0.287-0.234,0.381-0.393c0.093-0.158,0.141-0.348,0.141-0.567
		c0-0.171-0.028-0.336-0.083-0.497C317.636,135.125,317.537,134.966,317.394,134.81z"/>
	<polygon fill="#FFFFFF" points="245.152,124.815 246.598,124.815 253.284,117.828 	"/>
	<path fill="#FFFFFF" d="M316.103,132.715c0.519-0.244,0.902-0.497,1.153-0.761c0.253-0.264,0.379-0.571,0.379-0.921
		c0-0.409-0.143-0.713-0.429-0.913c-0.286-0.199-0.688-0.299-1.208-0.299c-0.513,0-0.912,0.099-1.198,0.297
		c-0.286,0.197-0.429,0.492-0.429,0.886c0,0.18,0.034,0.345,0.103,0.497c0.07,0.151,0.177,0.294,0.319,0.426
		c0.145,0.133,0.325,0.265,0.54,0.395C315.549,132.449,315.806,132.581,316.103,132.715z"/>
	<path fill="#FFFFFF" d="M0,215h360V0H0V215z M318.761,136.694c-0.152,0.294-0.367,0.542-0.643,0.744
		c-0.275,0.2-0.602,0.354-0.976,0.459c-0.375,0.104-0.781,0.157-1.221,0.157c-0.482,0-0.908-0.055-1.274-0.165
		c-0.368-0.108-0.677-0.262-0.927-0.459c-0.248-0.196-0.435-0.43-0.562-0.699c-0.125-0.271-0.188-0.567-0.188-0.893
		c0-0.549,0.145-1.021,0.434-1.418c0.29-0.397,0.766-0.76,1.426-1.087c-0.609-0.298-1.041-0.629-1.295-0.995
		c-0.253-0.366-0.38-0.786-0.38-1.26c0-0.291,0.059-0.571,0.177-0.843c0.12-0.271,0.299-0.513,0.538-0.725
		c0.241-0.213,0.541-0.382,0.901-0.507c0.361-0.127,0.785-0.189,1.272-0.189c0.463,0,0.868,0.049,1.217,0.147
		c0.349,0.098,0.642,0.239,0.879,0.425c0.238,0.184,0.416,0.406,0.534,0.669c0.118,0.264,0.177,0.555,0.177,0.875
		c0,0.525-0.143,0.973-0.429,1.342c-0.284,0.366-0.698,0.688-1.24,0.965c0.266,0.134,0.508,0.28,0.727,0.441
		c0.219,0.158,0.409,0.337,0.57,0.535c0.162,0.197,0.287,0.417,0.377,0.659c0.091,0.242,0.136,0.511,0.136,0.807
		C318.991,136.062,318.914,136.399,318.761,136.694z M19.999,0.352h0.2V5.18h2.306v0.2h-2.306v7.277h3.91v0.2h-3.91v7.277h2.306v0.2
		h-2.306v7.278h2.306v0.2h-2.306v7.277h2.306v0.2h-2.306v7.277h2.306v0.2h-2.306v7.277h3.91v0.2h-3.91v7.277h2.306v0.2h-2.306v7.277
		h2.306v0.2h-2.306v7.278h2.306v0.2h-2.306v7.276h2.306v0.2h-2.306v7.276h3.91v0.2h-3.91v7.277h2.306v0.2h-2.306v7.278h2.306v0.2
		h-2.306v7.277h2.306v0.199h-2.306v7.279h2.306v0.199h-2.306v3.366v3.911h3.91h14.382v-2.309h0.2v2.309h18.293v-2.309h0.2v2.309
		h18.292v-2.309h0.2v2.309h18.292v-3.911h0.2v3.911h18.293v-2.309h0.2v2.309h18.292v-2.309h0.2v2.309h18.292v-2.309h0.2v2.309
		h18.292v-3.911h0.2v3.911h18.293v-2.309h0.199v2.309h18.294v-2.309h0.199v2.309h18.292v-2.309h0.199v2.309h11.007l5.889-5.436
		c0-0.007-0.002-0.015-0.002-0.021c0-0.398,0.158-0.778,0.439-1.062c0.281-0.281,0.663-0.438,1.061-0.438
		c0.03,0,0.059,0.007,0.089,0.009l35.403-34.917c-0.001-0.023-0.007-0.045-0.007-0.068c0-0.398,0.158-0.779,0.438-1.06
		c0.282-0.281,0.663-0.44,1.062-0.44c0.397,0,0.779,0.159,1.061,0.44c0.281,0.281,0.439,0.662,0.439,1.06s-0.158,0.779-0.439,1.062
		c-0.281,0.28-0.663,0.438-1.061,0.438c-0.03,0-0.059-0.007-0.088-0.009l-35.404,34.917c0.001,0.023,0.007,0.045,0.007,0.068
		c0,0.397-0.158,0.779-0.439,1.061c-0.281,0.282-0.662,0.439-1.061,0.439c-0.047,0-0.092-0.009-0.138-0.014l-4.305,3.971h3.861
		c0.151-0.063,0.315-0.097,0.481-0.108v-3.803h0.199v3.803c0.03,0.002,0.061,0.005,0.09,0.009l25.285-21.726l10.021-10.472
		c-0.003-0.037-0.011-0.072-0.011-0.109c0-0.398,0.158-0.779,0.438-1.059c0.28-0.28,0.658-0.438,1.054-0.44l35.51-40.119
		c-0.007-0.056-0.017-0.11-0.017-0.167c0-0.398,0.157-0.779,0.438-1.062c0.272-0.27,0.637-0.423,1.02-0.434l35.546-41.909
		c-0.009-0.066-0.02-0.131-0.02-0.199c0-0.397,0.158-0.778,0.44-1.061c0.28-0.281,0.662-0.439,1.06-0.439
		c0.398,0,0.78,0.158,1.062,0.439c0.28,0.283,0.438,0.664,0.438,1.061c0,0.398-0.158,0.779-0.438,1.062
		c-0.092,0.092-0.198,0.166-0.309,0.229c0.11,0.065,0.217,0.138,0.309,0.23c0.28,0.281,0.438,0.662,0.438,1.06
		s-0.158,0.78-0.438,1.061c-0.271,0.271-0.636,0.424-1.019,0.435l-35.547,41.921c0.009,0.066,0.02,0.132,0.02,0.199
		c0,0.397-0.158,0.779-0.439,1.061c-0.282,0.281-0.663,0.439-1.061,0.439c-0.001,0-0.002,0-0.003,0L280.479,94.25
		c0.006,0.056,0.017,0.111,0.017,0.168c0,0.399-0.158,0.78-0.439,1.062c-0.281,0.28-0.663,0.438-1.061,0.438
		c-0.064,0-0.127-0.011-0.19-0.019l-9.967,8.564l-19.482,20.352h11.047v-2.309h0.199v2.309h18.294v-2.309h0.199v2.309h18.294v-2.309
		h0.199v2.309h18.293v-3.911h0.199v3.911h18.293v-2.309h0.199v2.309h18.293v-2.309h0.199v2.309h6.836v0.199H249.165l-4.704,4.913
		v0.033h-0.031l-0.932,0.974c0.003,0.04,0.012,0.08,0.012,0.121c0,0.398-0.158,0.781-0.439,1.062
		c-0.14,0.139-0.303,0.247-0.481,0.321c0.388,0.014,0.741,0.071,1.041,0.188c0.34,0.132,0.622,0.315,0.848,0.549
		c0.229,0.235,0.399,0.518,0.513,0.848c0.113,0.327,0.171,0.688,0.171,1.077c0,0.412-0.074,0.798-0.224,1.158
		c-0.146,0.358-0.357,0.671-0.632,0.938c-0.272,0.267-0.602,0.477-0.986,0.63c-0.386,0.151-0.812,0.228-1.282,0.228
		c-0.493,0-0.928-0.079-1.306-0.236c-0.378-0.159-0.694-0.402-0.949-0.729c-0.255-0.327-0.449-0.74-0.582-1.238
		c-0.09-0.338-0.138-0.732-0.167-1.152l-32.517,25.853c-0.023,0.364-0.172,0.71-0.432,0.968c-0.281,0.281-0.663,0.439-1.06,0.439
		c-0.197,0-0.39-0.039-0.567-0.112l-34.979,16.993c-0.068,0.248-0.193,0.479-0.378,0.664c-0.281,0.281-0.663,0.438-1.061,0.438
		c-0.281,0-0.552-0.082-0.787-0.228l-23.123,6.765l-11.685,4.223c-0.075,0.186-0.186,0.356-0.329,0.501
		c-0.281,0.28-0.663,0.438-1.061,0.438c-0.301,0-0.591-0.091-0.837-0.256l-34.825,8.99c-0.07,0.134-0.154,0.261-0.263,0.369
		c-0.282,0.282-0.663,0.439-1.061,0.439c-0.314,0-0.615-0.101-0.867-0.28l-34.818,7.81c-0.066,0.117-0.143,0.229-0.24,0.326
		c-0.281,0.281-0.662,0.44-1.06,0.44s-0.78-0.159-1.061-0.44c-0.281-0.282-0.439-0.663-0.439-1.06c0-0.398,0.158-0.78,0.439-1.062
		c0.281-0.28,0.663-0.438,1.061-0.438c0.314,0,0.616,0.102,0.868,0.28l34.816-7.81c0.066-0.117,0.143-0.229,0.24-0.326
		c0.282-0.281,0.663-0.44,1.061-0.44c0.287,0,0.563,0.085,0.802,0.236l34.845-9.82c0.072-0.145,0.161-0.28,0.278-0.396
		c0.281-0.283,0.662-0.441,1.06-0.441c0.27,0,0.529,0.078,0.757,0.213l18.185-5.741l16.653-6.02c0.075-0.186,0.185-0.356,0.33-0.5
		c0.281-0.28,0.663-0.439,1.06-0.439c0.139,0,0.274,0.026,0.406,0.063l35.106-22.098c0.051-0.304,0.192-0.587,0.413-0.808
		c0.281-0.28,0.663-0.439,1.062-0.439c0.046,0,0.091,0.01,0.137,0.014l29.245-26.993H24.109h-3.91v7.276h2.306v0.199h-2.306v7.278
		h2.306v0.199h-2.306v7.277h2.306v0.199h-2.306v7.278h2.306v0.199h-2.306v7.277h3.91v0.199h-3.91v7.278h2.306v0.199h-2.306v7.278
		h2.306v0.199h-2.306v7.278h2.306v0.199h-2.306v7.278h2.306v0.199h-2.306v7.276h3.91v0.199h-3.91v7.278h2.306v0.199h-2.306v7.278
		h2.306v0.199h-2.406v-0.091h-0.1v-89.634h-6.835v-0.199h6.835v-3.911V0.352z M95.352,130.845c-0.06-0.203-0.153-0.38-0.28-0.531
		c-0.127-0.152-0.292-0.271-0.495-0.359c-0.201-0.089-0.442-0.133-0.724-0.133c-0.389,0-0.743,0.086-1.063,0.258
		c-0.319,0.171-0.612,0.392-0.879,0.665l-0.676-0.799c0.34-0.342,0.731-0.614,1.175-0.82c0.444-0.207,0.961-0.31,1.551-0.31
		c0.401,0,0.765,0.059,1.093,0.177c0.33,0.118,0.614,0.289,0.853,0.514c0.24,0.225,0.425,0.499,0.556,0.824
		c0.131,0.326,0.197,0.692,0.197,1.099c0,0.345-0.044,0.662-0.133,0.956c-0.088,0.293-0.221,0.585-0.399,0.877
		c-0.177,0.29-0.402,0.59-0.673,0.901c-0.27,0.311-0.602,0.653-0.996,1.028l-1.669,1.603h4.29v1.121H91.2v-1.053l2.378-2.329
		c0.389-0.38,0.706-0.708,0.949-0.985c0.245-0.278,0.436-0.532,0.571-0.761c0.136-0.229,0.227-0.445,0.274-0.648
		c0.048-0.204,0.072-0.424,0.072-0.66C95.444,131.257,95.413,131.046,95.352,130.845z M171.471,134.948v1.006h-1.444v1.979h-1.216
		v-1.979h-4.34v-1.006l3.843-5.924h1.713v5.924H171.471z M10.521,14.734c0.308,0.051,0.618,0.09,0.932,0.118
		c0.315,0.026,0.636,0.039,0.965,0.039c0.444,0,0.824-0.039,1.139-0.118c0.317-0.08,0.575-0.195,0.775-0.346
		c0.199-0.15,0.345-0.331,0.435-0.544c0.092-0.213,0.138-0.454,0.138-0.722c0-0.245-0.056-0.458-0.166-0.639
		c-0.11-0.182-0.265-0.334-0.466-0.457c-0.2-0.123-0.439-0.214-0.718-0.276c-0.277-0.061-0.578-0.092-0.903-0.092h-1.011v-1.006
		h1.024c0.267,0,0.509-0.035,0.728-0.105c0.22-0.07,0.409-0.17,0.565-0.302c0.156-0.131,0.275-0.293,0.358-0.485
		c0.083-0.193,0.125-0.411,0.125-0.654c0-0.476-0.144-0.822-0.433-1.039c-0.289-0.219-0.713-0.328-1.273-0.328
		c-0.299,0-0.607,0.029-0.923,0.089c-0.315,0.059-0.652,0.146-1.011,0.263V7.11c0.152-0.052,0.314-0.1,0.488-0.142
		c0.173-0.044,0.346-0.079,0.518-0.107c0.172-0.029,0.344-0.051,0.514-0.066c0.172-0.016,0.336-0.024,0.493-0.024
		c0.468,0,0.879,0.051,1.233,0.151c0.355,0.101,0.651,0.246,0.888,0.435c0.238,0.19,0.417,0.421,0.539,0.692
		c0.122,0.27,0.183,0.574,0.183,0.912c0,0.506-0.121,0.93-0.363,1.273c-0.242,0.343-0.599,0.619-1.07,0.829
		c0.237,0.038,0.466,0.112,0.69,0.221c0.224,0.109,0.426,0.249,0.605,0.42c0.18,0.171,0.325,0.372,0.436,0.604
		c0.111,0.23,0.166,0.485,0.166,0.765c0,0.391-0.08,0.758-0.241,1.101c-0.159,0.342-0.398,0.642-0.717,0.899
		c-0.318,0.255-0.719,0.456-1.203,0.604c-0.484,0.147-1.047,0.22-1.689,0.22c-0.356,0-0.675,0-0.958,0s-0.547-0.029-0.792-0.089
		V14.734z M10.381,52.091l2.378-2.329c0.389-0.38,0.706-0.708,0.949-0.985c0.245-0.278,0.436-0.532,0.571-0.761
		c0.136-0.229,0.227-0.445,0.274-0.648c0.048-0.204,0.072-0.424,0.072-0.66c0-0.222-0.031-0.433-0.092-0.635
		c-0.06-0.202-0.153-0.379-0.28-0.531s-0.292-0.271-0.494-0.359c-0.202-0.089-0.443-0.133-0.725-0.133
		c-0.389,0-0.743,0.086-1.063,0.258c-0.319,0.17-0.612,0.392-0.879,0.665l-0.676-0.799c0.34-0.341,0.731-0.614,1.175-0.82
		c0.444-0.207,0.961-0.311,1.551-0.311c0.401,0,0.765,0.06,1.093,0.178c0.33,0.118,0.614,0.289,0.854,0.514
		c0.239,0.224,0.424,0.499,0.555,0.824c0.131,0.326,0.197,0.692,0.197,1.099c0,0.344-0.044,0.662-0.133,0.955
		c-0.088,0.294-0.221,0.586-0.399,0.878c-0.177,0.29-0.402,0.59-0.673,0.901c-0.27,0.311-0.602,0.653-0.996,1.028l-1.669,1.603h4.29
		v1.12h-5.88V52.091z M13.295,81.525h1.006v7.884h1.96v1.12h-5.6v-1.12h2.38v-6.535l-2.218,1.164l-0.442-1.013L13.295,81.525z
		 M13.295,156.296h1.006v7.883h1.96v1.12h-5.6v-1.12h2.38v-6.534l-2.218,1.164l-0.442-1.013L13.295,156.296z M10.381,201.633
		l2.378-2.329c0.389-0.38,0.706-0.708,0.949-0.984c0.245-0.278,0.436-0.532,0.571-0.762c0.136-0.229,0.227-0.444,0.274-0.647
		c0.048-0.204,0.072-0.424,0.072-0.66c0-0.222-0.031-0.433-0.092-0.635c-0.06-0.202-0.153-0.379-0.28-0.531
		s-0.292-0.271-0.495-0.359c-0.201-0.089-0.442-0.133-0.724-0.133c-0.389,0-0.743,0.086-1.063,0.258
		c-0.319,0.17-0.612,0.393-0.879,0.665l-0.676-0.799c0.34-0.341,0.731-0.614,1.175-0.819c0.444-0.207,0.961-0.312,1.551-0.312
		c0.401,0,0.765,0.06,1.093,0.178c0.33,0.118,0.614,0.289,0.853,0.515c0.24,0.224,0.425,0.499,0.556,0.823
		c0.131,0.326,0.197,0.692,0.197,1.1c0,0.344-0.044,0.662-0.133,0.955c-0.088,0.294-0.221,0.586-0.399,0.878
		c-0.177,0.29-0.402,0.59-0.673,0.9c-0.27,0.312-0.602,0.653-0.996,1.028l-1.669,1.604h4.29v1.119h-5.88V201.633z M1.4,162.079H7
		v0.421H1.4V162.079z M1.4,199.465H7v0.42H1.4V199.465z"/>
	<path fill="#FF0000" d="M241.872,120.845c-0.347-0.032-0.675-0.177-0.923-0.426c-0.276-0.276-0.432-0.649-0.438-1.039l-5.889,5.436
		h2.944L241.872,120.845z"/>
	<path fill="#FF0000" d="M206.521,153.453l30.83-28.438h-2.944l-29.245,26.993c0.346,0.032,0.675,0.178,0.923,0.426
		C206.357,152.705,206.511,153.069,206.521,153.453z"/>
	<path fill="#FF0000" d="M169.217,175.857l11.695-6.021l23.707-14.904c-0.245-0.069-0.473-0.193-0.655-0.377
		c-0.281-0.28-0.438-0.663-0.438-1.061c0-0.086,0.011-0.17,0.025-0.253l-35.106,22.098c0.245,0.069,0.472,0.193,0.655,0.376
		C169.144,175.759,169.179,175.809,169.217,175.857z"/>
	<path fill="#FF0000" d="M166.539,176.775c0-0.193,0.039-0.384,0.11-0.561l-16.653,6.02l16.565-5.229
		C166.55,176.93,166.539,176.854,166.539,176.775z"/>
	<rect x="75.792" y="186.967" fill="#FF0000" width="0.001" height="35.683"/>
	<path fill="#FF0000" d="M129.662,190.694l-34.253,9.652c-0.005,0.01-0.011,0.02-0.016,0.029l34.825-8.99
		c-0.08-0.054-0.154-0.114-0.223-0.183C129.848,191.057,129.736,190.883,129.662,190.694z"/>
	<path fill="#FF0000" d="M243.503,119.29l35.404-34.917c-0.366-0.021-0.713-0.17-0.974-0.429c-0.264-0.266-0.414-0.621-0.432-0.994
		l-35.403,34.917c0.365,0.021,0.712,0.17,0.972,0.43C243.335,118.563,243.486,118.917,243.503,119.29z"/>
	<path fill="#FF0000" d="M132.554,190.142c0,0.194-0.039,0.384-0.11,0.561l11.685-4.223l-11.602,3.395
		C132.543,189.962,132.554,190.051,132.554,190.142z"/>
	<path fill="#00FF00" d="M166.563,177.832c-0.013-0.081-0.024-0.162-0.024-0.244c0-0.139,0.026-0.274,0.063-0.406
		c-0.016-0.058-0.031-0.116-0.04-0.176l-16.565,5.229l-18.185,5.741c0.009,0.005,0.02,0.009,0.028,0.015L166.563,177.832z"/>
	<path fill="#00FF00" d="M243.51,126.197c0,0.011-0.003,0.021-0.003,0.032l1.414-1.215h-1.999c0.051,0.039,0.103,0.076,0.148,0.122
		C243.352,125.418,243.51,125.799,243.51,126.197z"/>
	<path fill="#00FF00" d="M203.581,158.166l-22.669,11.67l-11.695,6.021c0.169,0.218,0.274,0.477,0.306,0.751l34.068-16.564
		c0.058-0.197,0.154-0.381,0.287-0.54c-0.224-0.27-0.353-0.604-0.353-0.957C203.525,158.417,203.548,158.29,203.581,158.166z"/>
	<path fill="#00FF00" d="M314.573,53.722l-34.095,38.52c0.006,0.056,0.017,0.11,0.017,0.167c0,0.373-0.144,0.73-0.394,1.005
		c0.212,0.234,0.342,0.525,0.377,0.836l35.499-39.533c-0.397,0-0.777-0.158-1.059-0.438
		C314.761,54.12,314.646,53.929,314.573,53.722z"/>
	<path fill="#00FF00" d="M240.949,127.258c-0.281-0.282-0.439-0.663-0.439-1.061c0-0.006,0.002-0.012,0.002-0.019l-35.311,30.886
		c0.332,0.04,0.645,0.184,0.884,0.422c0.163,0.162,0.278,0.359,0.353,0.572l7.301-5.804l28.096-24.575
		C241.501,127.641,241.188,127.498,240.949,127.258z"/>
	<path fill="#00FF00" d="M245.152,124.815l8.132-6.987l14.2-14.838l-25.285,21.726c0.135,0.018,0.268,0.047,0.393,0.1H245.152z"/>
	<path fill="#00FF00" d="M351.905,10.663c-0.138-0.137-0.244-0.298-0.318-0.473l-34.126,40.233c0.009,0.066,0.02,0.132,0.02,0.199
		c0,0.397-0.158,0.778-0.439,1.06c-0.096,0.095-0.206,0.171-0.321,0.237c0.115,0.065,0.226,0.141,0.321,0.236
		c0.233,0.234,0.376,0.538,0.42,0.862l35.547-41.921c-0.015,0-0.028,0.004-0.043,0.004
		C352.567,11.102,352.186,10.945,351.905,10.663z"/>
	<path fill="#00FF00" d="M277.715,95.191l-8.877,9.272l9.967-8.564c-0.327-0.042-0.635-0.185-0.871-0.419
		C277.847,95.393,277.777,95.294,277.715,95.191z"/>
	<path fill="#0000FF" d="M246.598,124.815h2.758l19.482-20.352l8.877-9.272c-0.14-0.232-0.22-0.497-0.22-0.773
		c0-0.373,0.144-0.729,0.393-1.004c-0.225-0.248-0.357-0.562-0.382-0.896l-10.021,10.472l-14.2,14.838L246.598,124.815z"/>
	<path fill="#0000FF" d="M317.041,49.561c0.233,0.235,0.376,0.539,0.42,0.863l34.126-40.233c-0.079-0.185-0.122-0.384-0.122-0.588
		c0-0.398,0.158-0.779,0.44-1.06c0.092-0.092,0.197-0.166,0.309-0.23c-0.111-0.064-0.217-0.137-0.309-0.229
		c-0.234-0.235-0.377-0.54-0.421-0.863l-35.546,41.909c0.014,0,0.027-0.004,0.042-0.004
		C316.378,49.123,316.759,49.281,317.041,49.561z"/>
	<path fill="#0000FF" d="M280.056,91.349c0.241,0.24,0.385,0.556,0.423,0.892l34.095-38.52c-0.058-0.161-0.093-0.33-0.093-0.504
		c0-0.398,0.157-0.78,0.438-1.062c0.096-0.096,0.206-0.171,0.321-0.236c-0.115-0.066-0.226-0.142-0.321-0.237
		c-0.241-0.242-0.384-0.558-0.422-0.893l-35.51,40.119c0.003,0,0.005-0.001,0.008-0.001
		C279.393,90.908,279.774,91.067,280.056,91.349z"/>
	<path fill="#0000FF" d="M242.562,129.032c0.314-0.047,0.647-0.078,1.017-0.078h0.882v0.974l4.704-4.913h-2.758L242.562,129.032z"/>
	<path fill="#0000FF" d="M203.525,160.459c0-0.143,0.026-0.28,0.065-0.415l-34.068,16.564c0.006,0.056,0.017,0.11,0.017,0.167
		c0,0.14-0.026,0.275-0.063,0.406c0.038,0.132,0.063,0.268,0.063,0.406c0,0.146-0.028,0.289-0.069,0.427
		c0.041,0.139,0.069,0.28,0.069,0.428c0,0.136-0.025,0.269-0.061,0.397l34.979-16.993c-0.184-0.074-0.352-0.185-0.494-0.327
		C203.683,161.24,203.525,160.857,203.525,160.459z"/>
	<path fill="#0000FF" d="M239.091,132.745c0.037-0.27,0.095-0.525,0.162-0.775l-25.515,20.285l-7.301,5.804
		c0.054,0.156,0.088,0.32,0.088,0.488c0,0.353-0.13,0.688-0.354,0.957c0.225,0.268,0.354,0.603,0.354,0.955
		c0,0.031-0.007,0.062-0.009,0.093l32.517-25.853c-0.014-0.201-0.032-0.397-0.032-0.619
		C239.001,133.62,239.031,133.176,239.091,132.745z"/>
	<path fill="#0000FF" d="M240.576,131.474c-0.02,0.04-0.046,0.073-0.063,0.114c-0.143,0.339-0.232,0.718-0.269,1.138l-0.027,0.288
		c0.29-0.176,0.624-0.316,1-0.424c0.135-0.038,0.278-0.062,0.421-0.087c-0.258-0.066-0.497-0.194-0.688-0.385
		C240.77,131.938,240.646,131.714,240.576,131.474z"/>
	<path fill="#0000FF" d="M166.539,178.442c0-0.147,0.028-0.289,0.069-0.428c-0.018-0.061-0.035-0.12-0.045-0.183L131.84,187.99
		c0.099,0.062,0.192,0.13,0.275,0.214c0.281,0.28,0.439,0.662,0.439,1.059c0,0.151-0.03,0.298-0.073,0.439
		c0.018,0.057,0.036,0.113,0.047,0.172l11.602-3.395l23.123-6.765c-0.098-0.061-0.19-0.129-0.273-0.211
		C166.697,179.222,166.539,178.841,166.539,178.442z"/>
	<path fill="#0000FF" d="M243.064,129.991c0.002,0.002,0.004,0.003,0.006,0.005c0.252,0.253,0.398,0.587,0.428,0.938l0.932-0.974
		h-0.9C243.363,129.961,243.217,129.979,243.064,129.991z"/>
	<path fill="#0000FF" d="M58.584,207.98c0,0.26-0.074,0.51-0.2,0.732l34.816-7.81c-0.067-0.048-0.133-0.099-0.192-0.158
		c-0.281-0.281-0.439-0.661-0.439-1.061c0-0.26,0.074-0.511,0.199-0.733l-34.816,7.81c0.067,0.048,0.133,0.099,0.192,0.157
		C58.426,207.2,58.584,207.582,58.584,207.98z"/>
	<path fill="#0000FF" d="M95.13,198.625c0.281,0.28,0.439,0.662,0.439,1.06c0,0.233-0.06,0.457-0.161,0.662l34.253-9.652
		c-0.069-0.175-0.107-0.361-0.107-0.553c0-0.151,0.03-0.297,0.073-0.439c-0.043-0.142-0.073-0.288-0.073-0.439
		c0-0.232,0.06-0.457,0.162-0.662l-34.845,9.82C94.963,198.48,95.051,198.547,95.13,198.625z"/>
	<path d="M132.528,189.874c-0.011-0.059-0.029-0.115-0.047-0.172c-0.071,0.232-0.191,0.448-0.366,0.623
		c-0.281,0.281-0.663,0.438-1.061,0.438s-0.779-0.156-1.06-0.438c-0.175-0.175-0.295-0.391-0.367-0.623
		c-0.043,0.143-0.073,0.288-0.073,0.439c0,0.191,0.039,0.378,0.107,0.553c0.075,0.188,0.186,0.362,0.333,0.509
		c0.069,0.068,0.144,0.129,0.223,0.183c0.246,0.165,0.536,0.256,0.837,0.256c0.398,0,0.78-0.158,1.061-0.438
		c0.144-0.145,0.254-0.315,0.329-0.501c0.071-0.177,0.11-0.366,0.11-0.561C132.554,190.051,132.543,189.962,132.528,189.874z"/>
	<path d="M166.562,177.006c0.009,0.06,0.024,0.118,0.04,0.176c0.069-0.244,0.194-0.472,0.377-0.654
		c0.281-0.281,0.663-0.439,1.06-0.439c0.398,0,0.78,0.158,1.061,0.439c0.182,0.183,0.307,0.41,0.375,0.654
		c0.038-0.131,0.063-0.267,0.063-0.406c0-0.057-0.01-0.111-0.017-0.167c-0.031-0.274-0.136-0.533-0.306-0.751
		c-0.038-0.049-0.073-0.099-0.117-0.143c-0.183-0.183-0.411-0.307-0.655-0.376c-0.131-0.037-0.267-0.063-0.406-0.063
		c-0.397,0-0.779,0.159-1.06,0.439c-0.145,0.144-0.255,0.314-0.33,0.5c-0.071,0.177-0.11,0.367-0.11,0.561
		C166.539,176.854,166.55,176.93,166.562,177.006z"/>
	<path d="M203.964,154.555c0.183,0.184,0.41,0.308,0.655,0.377c0.132,0.037,0.267,0.062,0.406,0.062c0.396,0,0.778-0.157,1.06-0.439
		c0.282-0.28,0.44-0.663,0.44-1.061c0-0.014-0.004-0.027-0.004-0.041c-0.011-0.384-0.164-0.748-0.437-1.02
		c-0.248-0.248-0.577-0.394-0.923-0.426c-0.046-0.004-0.091-0.014-0.137-0.014c-0.398,0-0.78,0.159-1.062,0.439
		c-0.221,0.221-0.362,0.504-0.413,0.808c-0.015,0.083-0.025,0.167-0.025,0.253C203.525,153.892,203.683,154.274,203.964,154.555z"/>
	<path d="M241.872,120.845c0.046,0.005,0.091,0.014,0.138,0.014c0.398,0,0.779-0.157,1.061-0.439
		c0.281-0.281,0.439-0.663,0.439-1.061c0-0.023-0.006-0.045-0.007-0.068c-0.017-0.373-0.168-0.727-0.433-0.993
		c-0.26-0.26-0.606-0.408-0.972-0.43c-0.03-0.002-0.059-0.009-0.089-0.009c-0.397,0-0.779,0.157-1.061,0.438
		c-0.281,0.283-0.439,0.663-0.439,1.062c0,0.007,0.002,0.015,0.002,0.021c0.006,0.39,0.161,0.763,0.438,1.039
		C241.197,120.668,241.525,120.812,241.872,120.845z"/>
	<path d="M278.907,84.373c0.029,0.002,0.058,0.009,0.088,0.009c0.397,0,0.779-0.158,1.061-0.438
		c0.281-0.283,0.439-0.664,0.439-1.062s-0.158-0.779-0.439-1.06c-0.281-0.281-0.663-0.44-1.061-0.44
		c-0.398,0-0.779,0.159-1.062,0.44c-0.28,0.281-0.438,0.662-0.438,1.06c0,0.023,0.006,0.045,0.007,0.068
		c0.018,0.373,0.168,0.728,0.432,0.994C278.194,84.203,278.541,84.352,278.907,84.373z"/>
	<path d="M169.1,176.527c-0.281-0.281-0.663-0.439-1.061-0.439c-0.397,0-0.779,0.158-1.06,0.439
		c-0.183,0.183-0.308,0.41-0.377,0.654c-0.037,0.132-0.063,0.268-0.063,0.406c0,0.082,0.011,0.163,0.024,0.244
		c0.01,0.062,0.027,0.122,0.045,0.183c0.071-0.236,0.192-0.455,0.371-0.633c0.281-0.281,0.663-0.439,1.06-0.439
		c0.398,0,0.78,0.158,1.061,0.439c0.177,0.178,0.299,0.396,0.37,0.633c0.041-0.138,0.069-0.28,0.069-0.427
		c0-0.139-0.026-0.274-0.063-0.406C169.407,176.938,169.282,176.71,169.1,176.527z"/>
	<path d="M205.201,157.064c-0.059-0.007-0.116-0.018-0.176-0.018c-0.398,0-0.78,0.159-1.062,0.439
		c-0.189,0.188-0.316,0.426-0.383,0.68c-0.033,0.124-0.056,0.251-0.056,0.381c0,0.353,0.129,0.688,0.353,0.957
		c0.029-0.035,0.054-0.072,0.086-0.104c0.281-0.281,0.663-0.44,1.062-0.44c0.396,0,0.778,0.159,1.06,0.44
		c0.032,0.032,0.057,0.069,0.086,0.104c0.225-0.27,0.354-0.604,0.354-0.957c0-0.168-0.034-0.332-0.088-0.488
		c-0.074-0.213-0.189-0.41-0.353-0.572C205.846,157.248,205.533,157.104,205.201,157.064z"/>
	<path d="M241.91,124.707c-0.166,0.012-0.33,0.045-0.481,0.108h0.481V124.707z"/>
	<path d="M240.512,126.179c0,0.007-0.002,0.013-0.002,0.019c0,0.397,0.158,0.778,0.439,1.061c0.239,0.24,0.552,0.383,0.885,0.422
		c0.059,0.007,0.116,0.018,0.176,0.018c0.398,0,0.779-0.157,1.061-0.439c0.273-0.274,0.428-0.643,0.437-1.028
		c0-0.011,0.003-0.021,0.003-0.032c0-0.398-0.158-0.779-0.439-1.061c-0.046-0.046-0.098-0.083-0.148-0.122h-1.824
		c-0.051,0.039-0.103,0.076-0.148,0.122C240.672,125.414,240.517,125.787,240.512,126.179z"/>
	<path d="M242.109,124.815h0.482c-0.125-0.053-0.258-0.082-0.393-0.1c-0.029-0.004-0.06-0.007-0.09-0.009V124.815z"/>
	<path d="M280.056,93.47c-0.281,0.281-0.663,0.438-1.061,0.438c-0.398,0-0.779-0.157-1.062-0.438
		c-0.018-0.018-0.03-0.039-0.046-0.057c-0.249,0.276-0.393,0.631-0.393,1.004c0,0.276,0.08,0.541,0.22,0.773
		c0.062,0.104,0.132,0.202,0.219,0.289c0.236,0.235,0.544,0.377,0.871,0.419c0.063,0.008,0.126,0.019,0.19,0.019
		c0.397,0,0.779-0.158,1.061-0.438c0.281-0.282,0.439-0.663,0.439-1.062c0-0.057-0.011-0.112-0.017-0.168
		c-0.035-0.312-0.165-0.603-0.377-0.836C280.086,93.432,280.073,93.453,280.056,93.47z"/>
	<path d="M316.72,51.92c-0.225,0.128-0.477,0.203-0.739,0.203s-0.516-0.075-0.74-0.203c-0.115,0.065-0.226,0.141-0.321,0.236
		c-0.281,0.282-0.438,0.664-0.438,1.062c0,0.174,0.035,0.343,0.093,0.504c0.073,0.207,0.188,0.398,0.346,0.557
		c0.281,0.281,0.661,0.438,1.059,0.438c0.001,0,0.002,0,0.003,0c0.397,0,0.778-0.158,1.061-0.439
		c0.281-0.282,0.439-0.664,0.439-1.061c0-0.067-0.011-0.133-0.02-0.199c-0.044-0.324-0.187-0.628-0.42-0.862
		C316.945,52.061,316.835,51.985,316.72,51.92z"/>
	<path d="M352.965,8.52c-0.268,0-0.524-0.077-0.751-0.208c-0.111,0.065-0.217,0.138-0.309,0.23c-0.282,0.281-0.44,0.662-0.44,1.06
		c0,0.205,0.043,0.404,0.122,0.588c0.074,0.175,0.181,0.336,0.318,0.473c0.28,0.282,0.662,0.439,1.06,0.439
		c0.015,0,0.028-0.004,0.043-0.004c0.383-0.011,0.747-0.163,1.019-0.435c0.28-0.281,0.438-0.663,0.438-1.061
		s-0.158-0.779-0.438-1.06c-0.092-0.092-0.198-0.166-0.309-0.23C353.49,8.443,353.232,8.52,352.965,8.52z"/>
	<path d="M58.584,207.98c0-0.398-0.158-0.78-0.44-1.062c-0.059-0.059-0.125-0.109-0.192-0.157c-0.252-0.179-0.554-0.28-0.868-0.28
		c-0.398,0-0.78,0.157-1.061,0.438c-0.281,0.282-0.439,0.664-0.439,1.062c0,0.396,0.158,0.777,0.439,1.06
		c0.281,0.281,0.663,0.44,1.061,0.44s0.779-0.159,1.06-0.44c0.097-0.098,0.173-0.209,0.24-0.326v-0.001
		C58.51,208.49,58.584,208.24,58.584,207.98z"/>
	<path d="M95.569,199.685c0-0.397-0.158-0.779-0.439-1.06c-0.079-0.078-0.167-0.145-0.259-0.204
		c-0.239-0.151-0.516-0.236-0.802-0.236c-0.398,0-0.779,0.159-1.061,0.44c-0.097,0.097-0.173,0.209-0.24,0.326
		c-0.125,0.223-0.199,0.474-0.199,0.733c0,0.399,0.158,0.779,0.439,1.061c0.06,0.06,0.125,0.11,0.192,0.158c0,0,0.001,0,0.001,0.001
		c0.252,0.18,0.553,0.28,0.867,0.28c0.398,0,0.779-0.157,1.061-0.439c0.109-0.108,0.192-0.235,0.263-0.369
		c0.005-0.01,0.011-0.02,0.016-0.029C95.509,200.142,95.569,199.918,95.569,199.685z"/>
	<path d="M129.627,189.702c0.071,0.232,0.192,0.448,0.367,0.623c0.281,0.281,0.662,0.438,1.06,0.438s0.78-0.156,1.061-0.438
		c0.174-0.175,0.294-0.391,0.366-0.623c0.043-0.142,0.073-0.288,0.073-0.439c0-0.396-0.158-0.778-0.439-1.059
		c-0.083-0.084-0.177-0.152-0.275-0.214c-0.009-0.006-0.019-0.01-0.028-0.015c-0.229-0.135-0.488-0.213-0.757-0.213
		c-0.398,0-0.779,0.158-1.06,0.441c-0.117,0.116-0.206,0.252-0.278,0.396c-0.102,0.205-0.162,0.43-0.162,0.662
		C129.554,189.414,129.584,189.561,129.627,189.702z"/>
	<path d="M169.47,178.015c-0.071-0.236-0.192-0.455-0.37-0.633c-0.281-0.281-0.663-0.439-1.061-0.439
		c-0.397,0-0.779,0.158-1.06,0.439c-0.178,0.178-0.3,0.396-0.371,0.633c-0.041,0.139-0.069,0.28-0.069,0.428
		c0,0.398,0.158,0.779,0.44,1.062c0.083,0.082,0.175,0.15,0.273,0.211c0.235,0.146,0.506,0.228,0.787,0.228
		c0.398,0,0.78-0.157,1.061-0.438c0.185-0.186,0.31-0.416,0.378-0.664c0.036-0.129,0.061-0.262,0.061-0.397
		C169.539,178.295,169.511,178.153,169.47,178.015z"/>
	<path d="M206.171,159.504c-0.029-0.035-0.054-0.072-0.086-0.104c-0.281-0.281-0.663-0.44-1.06-0.44c-0.398,0-0.78,0.159-1.062,0.44
		c-0.032,0.032-0.057,0.069-0.086,0.104c-0.133,0.159-0.229,0.343-0.287,0.54c-0.039,0.135-0.065,0.272-0.065,0.415
		c0,0.398,0.157,0.781,0.438,1.061c0.143,0.143,0.311,0.253,0.494,0.327c0.178,0.073,0.37,0.112,0.567,0.112
		c0.396,0,0.778-0.158,1.06-0.439c0.26-0.258,0.408-0.604,0.432-0.968c0.002-0.031,0.009-0.062,0.009-0.093
		C206.525,160.106,206.396,159.771,206.171,159.504z"/>
	<path d="M243.064,129.991c-0.343,0.028-0.665,0.077-0.939,0.169c-0.395,0.131-0.727,0.316-0.996,0.558
		c-0.233,0.211-0.412,0.468-0.553,0.756c0.07,0.24,0.193,0.465,0.373,0.645c0.191,0.19,0.431,0.318,0.688,0.385
		c0.256-0.045,0.521-0.075,0.803-0.075c0.053,0,0.098,0.01,0.148,0.012c0.179-0.074,0.342-0.183,0.481-0.321
		c0.281-0.281,0.439-0.664,0.439-1.062c0-0.041-0.009-0.081-0.012-0.121c-0.029-0.352-0.176-0.686-0.428-0.938
		C243.068,129.994,243.066,129.993,243.064,129.991z"/>
	<path d="M277.934,93.47c0.282,0.281,0.663,0.438,1.062,0.438c0.397,0,0.779-0.157,1.061-0.438c0.018-0.018,0.03-0.039,0.046-0.057
		c0.25-0.275,0.394-0.632,0.394-1.005c0-0.057-0.011-0.111-0.017-0.167c-0.038-0.336-0.182-0.652-0.423-0.892
		c-0.281-0.282-0.663-0.441-1.061-0.441c-0.003,0-0.005,0.001-0.008,0.001c-0.396,0.002-0.773,0.16-1.054,0.44
		c-0.28,0.28-0.438,0.661-0.438,1.059c0,0.037,0.008,0.073,0.011,0.109c0.024,0.333,0.157,0.648,0.382,0.896
		C277.903,93.432,277.916,93.453,277.934,93.47z"/>
	<path d="M315.24,51.92c0.225,0.128,0.478,0.203,0.74,0.203s0.515-0.075,0.739-0.203c0.115-0.066,0.226-0.142,0.321-0.237
		c0.281-0.282,0.439-0.663,0.439-1.06c0-0.067-0.011-0.133-0.02-0.199c-0.044-0.324-0.187-0.628-0.42-0.863
		c-0.282-0.28-0.663-0.438-1.061-0.438c-0.015,0-0.028,0.004-0.042,0.004c-0.383,0.011-0.747,0.164-1.02,0.434
		c-0.281,0.283-0.438,0.664-0.438,1.062c0,0.057,0.01,0.111,0.017,0.167c0.038,0.335,0.181,0.651,0.422,0.893
		C315.015,51.778,315.125,51.854,315.24,51.92z"/>
	<path d="M352.214,8.312c0.227,0.132,0.483,0.208,0.751,0.208s0.525-0.077,0.753-0.208c0.11-0.064,0.217-0.137,0.309-0.229
		c0.28-0.283,0.438-0.664,0.438-1.062c0-0.397-0.158-0.778-0.438-1.061c-0.281-0.281-0.663-0.439-1.062-0.439
		c-0.397,0-0.779,0.158-1.06,0.439c-0.282,0.283-0.44,0.664-0.44,1.061c0,0.067,0.011,0.133,0.02,0.199
		c0.044,0.324,0.187,0.628,0.421,0.863C351.997,8.174,352.103,8.248,352.214,8.312z"/>
	<rect x="38.491" y="122.507" width="0.2" height="2.309"/>
	<rect x="56.984" y="122.507" width="0.2" height="2.309"/>
	<rect x="75.476" y="122.507" width="0.2" height="2.309"/>
	<rect x="93.969" y="120.904" width="0.2" height="3.911"/>
	<path d="M95.098,132.787c-0.135,0.229-0.326,0.482-0.571,0.761c-0.243,0.277-0.56,0.605-0.949,0.985l-2.378,2.329v1.053h5.88
		v-1.121h-4.29l1.669-1.603c0.394-0.375,0.726-0.718,0.996-1.028c0.271-0.312,0.496-0.611,0.673-0.901
		c0.178-0.292,0.311-0.584,0.399-0.877c0.089-0.294,0.133-0.611,0.133-0.956c0-0.406-0.066-0.772-0.197-1.099
		c-0.131-0.325-0.316-0.6-0.556-0.824c-0.239-0.225-0.523-0.396-0.853-0.514c-0.328-0.118-0.692-0.177-1.093-0.177
		c-0.59,0-1.107,0.103-1.551,0.31c-0.444,0.206-0.835,0.479-1.175,0.82l0.676,0.799c0.267-0.273,0.56-0.494,0.879-0.665
		c0.32-0.172,0.674-0.258,1.063-0.258c0.282,0,0.523,0.044,0.724,0.133c0.203,0.088,0.368,0.207,0.495,0.359
		c0.127,0.151,0.22,0.328,0.28,0.531c0.061,0.201,0.092,0.412,0.092,0.634c0,0.236-0.024,0.456-0.072,0.66
		C95.325,132.342,95.234,132.558,95.098,132.787z"/>
	<rect x="112.462" y="122.507" width="0.2" height="2.309"/>
	<rect x="130.954" y="122.507" width="0.2" height="2.309"/>
	<rect x="149.447" y="122.507" width="0.2" height="2.309"/>
	<rect x="167.939" y="120.904" width="0.2" height="3.911"/>
	<path d="M168.314,129.024l-3.843,5.924v1.006h4.34v1.979h1.216v-1.979h1.444v-1.006h-1.444v-5.924H168.314z M168.811,134.948
		h-3.139l3.139-4.773V134.948z"/>
	<rect x="186.433" y="122.507" width="0.199" height="2.309"/>
	<rect x="204.926" y="122.507" width="0.199" height="2.309"/>
	<rect x="223.417" y="122.507" width="0.199" height="2.309"/>
	<polygon points="242.109,124.815 242.109,124.707 242.109,120.904 241.91,120.904 241.91,124.707 241.91,124.815 	"/>
	<path d="M243.579,128.954c-0.369,0-0.702,0.031-1.017,0.078c-0.202,0.03-0.402,0.062-0.582,0.11
		c-0.459,0.125-0.859,0.303-1.198,0.529s-0.622,0.497-0.852,0.814c-0.228,0.315-0.409,0.665-0.547,1.045
		c-0.051,0.142-0.091,0.29-0.131,0.438c-0.067,0.25-0.125,0.506-0.162,0.775c-0.06,0.431-0.09,0.875-0.09,1.335
		c0,0.222,0.019,0.418,0.032,0.619c0.029,0.42,0.077,0.814,0.167,1.152c0.133,0.498,0.327,0.911,0.582,1.238
		c0.255,0.326,0.571,0.569,0.949,0.729c0.378,0.157,0.812,0.236,1.306,0.236c0.47,0,0.896-0.076,1.282-0.228
		c0.385-0.153,0.714-0.363,0.986-0.63c0.274-0.268,0.485-0.58,0.632-0.938c0.149-0.36,0.224-0.746,0.224-1.158
		c0-0.39-0.058-0.75-0.171-1.077c-0.113-0.33-0.284-0.612-0.513-0.848c-0.226-0.233-0.508-0.417-0.848-0.549
		c-0.3-0.116-0.653-0.174-1.041-0.188c-0.051-0.002-0.096-0.012-0.148-0.012c-0.282,0-0.547,0.03-0.803,0.075
		c-0.143,0.024-0.286,0.049-0.421,0.087c-0.376,0.107-0.71,0.248-1,0.424l0.027-0.288c0.036-0.42,0.126-0.799,0.269-1.138
		c0.018-0.041,0.044-0.074,0.063-0.114c0.141-0.288,0.319-0.545,0.553-0.756c0.27-0.241,0.602-0.427,0.996-0.558
		c0.274-0.092,0.597-0.141,0.939-0.169c0.152-0.012,0.299-0.03,0.465-0.03h0.9h0.031v-0.033v-0.974H243.579z M243.531,133.909
		c0.143,0.148,0.248,0.332,0.312,0.549c0.067,0.216,0.102,0.458,0.102,0.727c0,0.294-0.045,0.558-0.137,0.787
		c-0.089,0.229-0.213,0.425-0.371,0.586c-0.159,0.161-0.349,0.282-0.568,0.366c-0.219,0.083-0.46,0.124-0.722,0.124
		c-0.314,0-0.592-0.049-0.832-0.146c-0.239-0.1-0.441-0.266-0.606-0.497c-0.163-0.233-0.286-0.543-0.369-0.931
		c-0.082-0.386-0.123-0.866-0.123-1.442c0.129-0.082,0.271-0.159,0.43-0.23c0.156-0.07,0.321-0.135,0.493-0.189
		c0.173-0.057,0.349-0.1,0.528-0.129c0.18-0.032,0.359-0.049,0.535-0.049c0.304,0,0.564,0.041,0.784,0.124
		S243.388,133.759,243.531,133.909z"/>
	<rect x="260.402" y="122.507" width="0.199" height="2.309"/>
	<rect x="278.896" y="122.507" width="0.199" height="2.309"/>
	<rect x="297.389" y="122.507" width="0.199" height="2.309"/>
	<rect x="315.881" y="120.904" width="0.199" height="3.911"/>
	<path d="M318.479,134.215c-0.161-0.198-0.352-0.377-0.57-0.535c-0.219-0.161-0.461-0.308-0.727-0.441
		c0.542-0.276,0.956-0.599,1.24-0.965c0.286-0.369,0.429-0.816,0.429-1.342c0-0.32-0.059-0.611-0.177-0.875
		c-0.118-0.263-0.296-0.485-0.534-0.669c-0.237-0.186-0.53-0.327-0.879-0.425c-0.349-0.099-0.754-0.147-1.217-0.147
		c-0.487,0-0.911,0.062-1.272,0.189c-0.36,0.125-0.66,0.294-0.901,0.507c-0.239,0.212-0.418,0.453-0.538,0.725
		c-0.118,0.271-0.177,0.552-0.177,0.843c0,0.474,0.127,0.894,0.38,1.26c0.254,0.366,0.686,0.697,1.295,0.995
		c-0.66,0.327-1.136,0.689-1.426,1.087c-0.289,0.397-0.434,0.869-0.434,1.418c0,0.325,0.063,0.622,0.188,0.893
		c0.127,0.27,0.313,0.503,0.562,0.699c0.25,0.197,0.559,0.351,0.927,0.459c0.366,0.11,0.792,0.165,1.274,0.165
		c0.439,0,0.846-0.053,1.221-0.157c0.374-0.105,0.7-0.259,0.976-0.459c0.275-0.202,0.49-0.45,0.643-0.744
		c0.153-0.295,0.23-0.633,0.23-1.014c0-0.296-0.045-0.564-0.136-0.807C318.766,134.632,318.641,134.412,318.479,134.215z
		 M314.793,131.927c-0.143-0.132-0.249-0.274-0.319-0.426c-0.068-0.152-0.103-0.317-0.103-0.497c0-0.394,0.143-0.688,0.429-0.886
		c0.286-0.198,0.686-0.297,1.198-0.297c0.52,0,0.922,0.1,1.208,0.299c0.286,0.2,0.429,0.504,0.429,0.913
		c0,0.35-0.126,0.657-0.379,0.921c-0.251,0.264-0.635,0.517-1.153,0.761c-0.297-0.134-0.554-0.266-0.77-0.394
		C315.118,132.191,314.938,132.06,314.793,131.927z M317.635,136.35c-0.094,0.158-0.22,0.288-0.381,0.393
		c-0.16,0.104-0.351,0.181-0.571,0.231c-0.22,0.05-0.454,0.074-0.701,0.074c-0.256,0-0.493-0.026-0.714-0.081
		c-0.22-0.055-0.409-0.138-0.568-0.249c-0.159-0.11-0.284-0.245-0.376-0.402c-0.091-0.159-0.136-0.342-0.136-0.547
		c0-0.186,0.028-0.36,0.086-0.524c0.056-0.165,0.151-0.324,0.285-0.478c0.137-0.154,0.313-0.307,0.532-0.455
		c0.218-0.148,0.489-0.3,0.812-0.452c0.371,0.166,0.676,0.326,0.917,0.482c0.239,0.156,0.432,0.312,0.574,0.468
		c0.144,0.156,0.242,0.315,0.299,0.476c0.055,0.161,0.083,0.326,0.083,0.497C317.775,136.002,317.728,136.191,317.635,136.35z"/>
	<rect x="334.373" y="122.507" width="0.199" height="2.309"/>
	<rect x="352.865" y="122.507" width="0.199" height="2.309"/>
	<polygon points="234.407,125.015 237.352,125.015 241.098,125.015 242.922,125.015 244.921,125.015 246.407,125.015 
		249.165,125.015 359.9,125.015 359.9,124.815 353.064,124.815 352.865,124.815 334.572,124.815 334.373,124.815 316.08,124.815 
		315.881,124.815 297.588,124.815 297.389,124.815 279.095,124.815 278.896,124.815 260.602,124.815 260.402,124.815 
		249.355,124.815 246.598,124.815 245.152,124.815 242.592,124.815 242.109,124.815 241.91,124.815 241.429,124.815 
		237.567,124.815 234.623,124.815 223.616,124.815 223.417,124.815 205.125,124.815 204.926,124.815 186.632,124.815 
		186.433,124.815 168.139,124.815 167.939,124.815 149.647,124.815 149.447,124.815 131.154,124.815 130.954,124.815 
		112.662,124.815 112.462,124.815 94.169,124.815 93.969,124.815 75.676,124.815 75.476,124.815 57.184,124.815 56.984,124.815 
		38.691,124.815 38.491,124.815 24.109,124.815 24.109,125.015 	"/>
	<polygon points="19.999,124.815 13.164,124.815 13.164,125.015 19.999,125.015 19.999,124.915 	"/>
	<polygon points="20.099,214.648 20.099,214.739 22.505,214.739 22.505,214.54 20.199,214.54 20.199,214.648 	"/>
	<rect x="20.199" y="207.062" width="2.306" height="0.199"/>
	<rect x="20.199" y="199.585" width="3.91" height="0.199"/>
	<rect x="1.4" y="199.465" width="5.6" height="0.42"/>
	<path d="M16.261,201.565h-4.29l1.669-1.604c0.394-0.375,0.726-0.717,0.996-1.028c0.271-0.311,0.496-0.61,0.673-0.9
		c0.178-0.292,0.311-0.584,0.399-0.878c0.089-0.293,0.133-0.611,0.133-0.955c0-0.407-0.066-0.773-0.197-1.1
		c-0.131-0.324-0.316-0.6-0.556-0.823c-0.239-0.226-0.523-0.396-0.853-0.515c-0.328-0.118-0.692-0.178-1.093-0.178
		c-0.59,0-1.107,0.104-1.551,0.312c-0.444,0.205-0.835,0.479-1.175,0.819l0.676,0.799c0.267-0.272,0.56-0.495,0.879-0.665
		c0.32-0.172,0.674-0.258,1.063-0.258c0.282,0,0.523,0.044,0.724,0.133c0.203,0.089,0.368,0.207,0.495,0.359s0.22,0.329,0.28,0.531
		c0.061,0.202,0.092,0.413,0.092,0.635c0,0.236-0.024,0.456-0.072,0.66c-0.047,0.203-0.138,0.419-0.274,0.647
		c-0.135,0.229-0.326,0.483-0.571,0.762c-0.243,0.276-0.56,0.604-0.949,0.984l-2.378,2.329v1.052h5.88V201.565z"/>
	<rect x="20.199" y="192.109" width="2.306" height="0.199"/>
	<rect x="20.199" y="184.632" width="2.306" height="0.199"/>
	<rect x="20.199" y="177.154" width="2.306" height="0.199"/>
	<rect x="20.199" y="169.677" width="2.306" height="0.199"/>
	<rect x="20.199" y="162.199" width="3.91" height="0.199"/>
	<rect x="1.4" y="162.079" width="5.6" height="0.421"/>
	<polygon points="13.041,157.645 13.041,164.179 10.661,164.179 10.661,165.299 16.261,165.299 16.261,164.179 14.301,164.179 
		14.301,156.296 13.295,156.296 10.381,157.796 10.823,158.809 	"/>
	<rect x="20.199" y="154.723" width="2.306" height="0.199"/>
	<rect x="20.199" y="147.245" width="2.306" height="0.199"/>
	<rect x="20.199" y="139.769" width="2.306" height="0.199"/>
	<rect x="20.199" y="132.291" width="2.306" height="0.199"/>
	<polygon points="20.199,125.015 24.109,125.015 24.109,124.815 20.199,124.815 20.199,124.915 	"/>
	<rect x="20.199" y="117.339" width="2.306" height="0.199"/>
	<rect x="20.199" y="109.86" width="2.306" height="0.199"/>
	<rect x="20.199" y="102.383" width="2.306" height="0.2"/>
	<rect x="20.199" y="94.905" width="2.306" height="0.2"/>
	<rect x="20.199" y="87.428" width="3.91" height="0.2"/>
	<polygon points="13.041,82.874 13.041,89.409 10.661,89.409 10.661,90.529 16.261,90.529 16.261,89.409 14.301,89.409 
		14.301,81.525 13.295,81.525 10.381,83.025 10.823,84.038 	"/>
	<rect x="20.199" y="79.952" width="2.306" height="0.2"/>
	<rect x="20.199" y="72.475" width="2.306" height="0.2"/>
	<rect x="20.199" y="64.997" width="2.306" height="0.2"/>
	<rect x="20.199" y="57.52" width="2.306" height="0.2"/>
	<rect x="20.199" y="50.043" width="3.91" height="0.2"/>
	<path d="M16.261,52.023h-4.29l1.669-1.603c0.394-0.375,0.726-0.717,0.996-1.028c0.271-0.311,0.496-0.611,0.673-0.901
		c0.178-0.292,0.311-0.584,0.399-0.878c0.089-0.293,0.133-0.611,0.133-0.955c0-0.407-0.066-0.773-0.197-1.099
		c-0.131-0.325-0.316-0.6-0.555-0.824c-0.24-0.225-0.524-0.396-0.854-0.514c-0.328-0.118-0.692-0.178-1.093-0.178
		c-0.59,0-1.107,0.104-1.551,0.311c-0.444,0.206-0.835,0.479-1.175,0.82l0.676,0.799c0.267-0.273,0.56-0.495,0.879-0.665
		c0.32-0.172,0.674-0.258,1.063-0.258c0.282,0,0.523,0.044,0.725,0.133c0.202,0.088,0.367,0.207,0.494,0.359s0.22,0.329,0.28,0.531
		c0.061,0.202,0.092,0.413,0.092,0.635c0,0.236-0.024,0.456-0.072,0.66c-0.047,0.203-0.138,0.419-0.274,0.648
		c-0.135,0.229-0.326,0.483-0.571,0.761c-0.243,0.277-0.56,0.605-0.949,0.985l-2.378,2.329v1.052h5.88V52.023z"/>
	<rect x="20.199" y="42.566" width="2.306" height="0.2"/>
	<rect x="20.199" y="35.089" width="2.306" height="0.2"/>
	<rect x="20.199" y="27.612" width="2.306" height="0.2"/>
	<rect x="20.199" y="20.134" width="2.306" height="0.2"/>
	<rect x="20.199" y="12.657" width="3.91" height="0.2"/>
	<path d="M12.271,15.897c0.642,0,1.205-0.073,1.689-0.22c0.484-0.148,0.885-0.349,1.203-0.604c0.319-0.257,0.558-0.557,0.717-0.899
		c0.161-0.343,0.241-0.71,0.241-1.101c0-0.28-0.055-0.535-0.166-0.765c-0.111-0.232-0.256-0.433-0.436-0.604
		c-0.179-0.171-0.381-0.311-0.605-0.42c-0.224-0.109-0.453-0.183-0.69-0.221c0.471-0.21,0.828-0.486,1.07-0.829
		c0.242-0.343,0.363-0.767,0.363-1.273c0-0.338-0.061-0.642-0.183-0.912c-0.122-0.271-0.301-0.502-0.539-0.692
		c-0.237-0.189-0.533-0.334-0.888-0.435c-0.354-0.1-0.765-0.151-1.233-0.151c-0.157,0-0.321,0.008-0.493,0.024
		c-0.17,0.015-0.342,0.037-0.514,0.066c-0.172,0.028-0.345,0.063-0.518,0.107c-0.174,0.042-0.336,0.09-0.488,0.142v1.02
		c0.359-0.117,0.696-0.204,1.011-0.263c0.316-0.06,0.624-0.089,0.923-0.089c0.56,0,0.984,0.109,1.273,0.328
		c0.289,0.217,0.433,0.563,0.433,1.039c0,0.243-0.042,0.461-0.125,0.654c-0.083,0.192-0.202,0.354-0.358,0.485
		c-0.156,0.132-0.345,0.232-0.565,0.302c-0.219,0.07-0.461,0.105-0.728,0.105h-1.024v1.006h1.011c0.325,0,0.626,0.031,0.903,0.092
		c0.279,0.062,0.518,0.153,0.718,0.276c0.201,0.123,0.356,0.275,0.466,0.457c0.11,0.181,0.166,0.394,0.166,0.639
		c0,0.268-0.046,0.509-0.138,0.722c-0.09,0.213-0.236,0.394-0.435,0.544c-0.2,0.151-0.458,0.266-0.775,0.346
		c-0.315,0.079-0.695,0.118-1.139,0.118c-0.329,0-0.65-0.013-0.965-0.039c-0.314-0.028-0.624-0.067-0.932-0.118v1.074
		c0.245,0.06,0.509,0.089,0.792,0.089S11.915,15.897,12.271,15.897z"/>
	<rect x="20.199" y="5.18" width="2.306" height="0.2"/>
	<polygon points="19.999,124.915 19.999,125.015 19.999,214.648 20.099,214.648 20.199,214.648 20.199,214.54 20.199,207.262 
		20.199,207.062 20.199,199.784 20.199,199.585 20.199,192.309 20.199,192.109 20.199,184.831 20.199,184.632 20.199,177.354 
		20.199,177.154 20.199,169.876 20.199,169.677 20.199,162.398 20.199,162.199 20.199,154.922 20.199,154.723 20.199,147.444 
		20.199,147.245 20.199,139.968 20.199,139.769 20.199,132.49 20.199,132.291 20.199,125.015 20.199,124.915 20.199,124.815 
		20.199,120.904 20.199,117.538 20.199,117.339 20.199,110.06 20.199,109.86 20.199,102.583 20.199,102.383 20.199,95.105 
		20.199,94.905 20.199,87.628 20.199,87.428 20.199,80.152 20.199,79.952 20.199,72.675 20.199,72.475 20.199,65.197 20.199,64.997 
		20.199,57.72 20.199,57.52 20.199,50.243 20.199,50.043 20.199,42.766 20.199,42.566 20.199,35.289 20.199,35.089 20.199,27.812 
		20.199,27.612 20.199,20.334 20.199,20.134 20.199,12.857 20.199,12.657 20.199,5.38 20.199,5.18 20.199,0.352 19.999,0.352 
		19.999,120.904 19.999,124.815 	"/>
</g>
</svg>
